<svg width="135" height="79" viewBox="0 0 135 79" fill="none" xmlns="http://www.w3.org/2000/svg">
<path d="M130.232 65.4456V71.7466C130.232 72.1736 130.329 72.4835 130.521 72.6763C130.728 72.8553 131.072 72.9448 131.554 72.9448H133.001V74.9074H131.141C130.081 74.9074 129.268 74.6595 128.704 74.1637C128.139 73.6679 127.856 72.8622 127.856 71.7466V65.4456H126.514V63.5244H127.856V60.6941H130.232V63.5244H133.001V65.4456H130.232Z" fill="black"/>
<path d="M125.167 68.937C125.167 69.3639 125.139 69.7495 125.084 70.0939H116.387C116.456 71.0028 116.793 71.7328 117.399 72.2837C118.005 72.8346 118.749 73.1101 119.63 73.1101C120.898 73.1101 121.793 72.5798 122.316 71.5193H124.857C124.513 72.566 123.886 73.4268 122.977 74.1017C122.082 74.7628 120.966 75.0933 119.63 75.0933C118.542 75.0933 117.565 74.8523 116.697 74.3703C115.843 73.8744 115.168 73.1858 114.672 72.3044C114.19 71.4091 113.949 70.3762 113.949 69.2055C113.949 68.0348 114.183 67.0088 114.652 66.1273C115.134 65.2321 115.802 64.5435 116.656 64.0614C117.523 63.5794 118.515 63.3384 119.63 63.3384C120.705 63.3384 121.662 63.5725 122.502 64.0408C123.342 64.5091 123.996 65.1701 124.465 66.024C124.933 66.8642 125.167 67.8351 125.167 68.937ZM122.709 68.1932C122.695 67.3256 122.385 66.63 121.779 66.1067C121.173 65.5833 120.422 65.3216 119.527 65.3216C118.715 65.3216 118.019 65.5833 117.441 66.1067C116.862 66.6163 116.518 67.3118 116.408 68.1932H122.709Z" fill="black"/>
<path d="M111.642 59.6196V74.9072H109.287V59.6196H111.642Z" fill="black"/>
<path d="M106.195 59.6196V74.9072H103.84V59.6196H106.195Z" fill="black"/>
<path d="M89.0527 69.1642C89.0527 68.0211 89.2869 67.0088 89.7551 66.1273C90.2372 65.2459 90.8845 64.5641 91.6971 64.0821C92.5234 63.5863 93.4324 63.3384 94.4241 63.3384C95.3193 63.3384 96.0974 63.5174 96.7585 63.8755C97.4334 64.2198 97.9705 64.6537 98.3699 65.177V63.5243H100.746V74.9074H98.3699V73.2134C97.9705 73.7505 97.4265 74.1981 96.7379 74.5562C96.0492 74.9143 95.2642 75.0933 94.3827 75.0933C93.4049 75.0933 92.5097 74.8454 91.6971 74.3496C90.8845 73.84 90.2372 73.1376 89.7551 72.2424C89.2869 71.3334 89.0527 70.3073 89.0527 69.1642ZM98.3699 69.2055C98.3699 68.4205 98.2046 67.7387 97.8741 67.1603C97.5573 66.5818 97.1373 66.1411 96.6139 65.8381C96.0905 65.5351 95.5259 65.3836 94.9199 65.3836C94.3139 65.3836 93.7492 65.5351 93.2258 65.8381C92.7025 66.1273 92.2755 66.5612 91.945 67.1396C91.6282 67.7043 91.4698 68.3792 91.4698 69.1642C91.4698 69.9492 91.6282 70.6379 91.945 71.2301C92.2755 71.8223 92.7025 72.2768 93.2258 72.5936C93.763 72.8966 94.3277 73.0481 94.9199 73.0481C95.5259 73.0481 96.0905 72.8966 96.6139 72.5936C97.1373 72.2906 97.5573 71.8499 97.8741 71.2714C98.2046 70.6792 98.3699 69.9906 98.3699 69.2055Z" fill="black"/>
<path d="M87.8962 60.5493L83.6405 74.9073H80.9755L77.9593 64.0407L74.7571 74.9073L72.1128 74.9279L68.043 60.5493H70.5427L73.5176 72.2423L76.7404 60.5493H79.3847L82.3803 72.1803L85.3758 60.5493H87.8962Z" fill="black"/>
<path d="M56.1612 63.3384C57.0564 63.3384 57.8552 63.5243 58.5576 63.8962C59.2738 64.268 59.8316 64.8189 60.231 65.5489C60.6304 66.2788 60.8301 67.1603 60.8301 68.1932V74.9074H58.4956V68.5444C58.4956 67.5253 58.2408 66.7471 57.7312 66.21C57.2216 65.6591 56.5261 65.3836 55.6447 65.3836C54.7632 65.3836 54.0608 65.6591 53.5375 66.21C53.0279 66.7471 52.7731 67.5253 52.7731 68.5444V74.9074H50.418V63.5243H52.7731V64.8258C53.1587 64.3576 53.6476 63.9926 54.2399 63.7309C54.8459 63.4692 55.4863 63.3384 56.1612 63.3384Z" fill="black"/>
<path d="M48.0987 68.937C48.0987 69.3639 48.0711 69.7495 48.016 70.0939H39.3186C39.3875 71.0028 39.7249 71.7328 40.3309 72.2837C40.9369 72.8346 41.6806 73.1101 42.5621 73.1101C43.8291 73.1101 44.7244 72.5798 45.2477 71.5193H47.7888C47.4445 72.566 46.8178 73.4268 45.9088 74.1017C45.0136 74.7628 43.898 75.0933 42.5621 75.0933C41.474 75.0933 40.4962 74.8523 39.6285 74.3703C38.7746 73.8744 38.0997 73.1858 37.6039 72.3044C37.1219 71.4091 36.8809 70.3762 36.8809 69.2055C36.8809 68.0348 37.115 67.0088 37.5833 66.1273C38.0653 65.2321 38.7333 64.5435 39.5872 64.0614C40.4549 63.5794 41.4465 63.3384 42.5621 63.3384C43.6363 63.3384 44.5935 63.5725 45.4337 64.0408C46.2738 64.5091 46.928 65.1701 47.3963 66.024C47.8645 66.8642 48.0987 67.8351 48.0987 68.937ZM45.6402 68.1932C45.6265 67.3256 45.3166 66.63 44.7106 66.1067C44.1046 65.5833 43.354 65.3216 42.4588 65.3216C41.6462 65.3216 40.9507 65.5833 40.3722 66.1067C39.7938 66.6163 39.4495 67.3118 39.3393 68.1932H45.6402Z" fill="black"/>
<path d="M22.8789 69.1641C22.8789 68.0209 23.113 67.0086 23.5813 66.1272C24.0634 65.2457 24.7107 64.564 25.5232 64.082C26.3496 63.5861 27.2655 63.3382 28.2709 63.3382C29.0146 63.3382 29.7446 63.5035 30.4607 63.8341C31.1907 64.1508 31.7691 64.5778 32.1961 65.1149V59.6196H34.5719V74.9072H32.1961V73.1926C31.8105 73.7435 31.2733 74.198 30.5847 74.556C29.9098 74.9141 29.1317 75.0932 28.2502 75.0932C27.2586 75.0932 26.3496 74.8453 25.5232 74.3495C24.7107 73.8399 24.0634 73.1375 23.5813 72.2422C23.113 71.3332 22.8789 70.3072 22.8789 69.1641ZM32.1961 69.2054C32.1961 68.4203 32.0308 67.7386 31.7003 67.1601C31.3835 66.5817 30.9634 66.141 30.4401 65.838C29.9167 65.535 29.352 65.3835 28.746 65.3835C28.14 65.3835 27.5754 65.535 27.052 65.838C26.5287 66.1272 26.1017 66.561 25.7712 67.1395C25.4544 67.7042 25.296 68.379 25.296 69.1641C25.296 69.9491 25.4544 70.6377 25.7712 71.23C26.1017 71.8222 26.5287 72.2767 27.052 72.5934C27.5891 72.8964 28.1538 73.0479 28.746 73.0479C29.352 73.0479 29.9167 72.8964 30.4401 72.5934C30.9634 72.2904 31.3835 71.8497 31.7003 71.2713C32.0308 70.679 32.1961 69.9904 32.1961 69.2054Z" fill="black"/>
<path d="M19.4163 62.0162C18.9894 62.0162 18.6313 61.8716 18.342 61.5824C18.0528 61.2931 17.9082 60.9351 17.9082 60.5081C17.9082 60.0812 18.0528 59.7231 18.342 59.4338C18.6313 59.1446 18.9894 59 19.4163 59C19.8295 59 20.1807 59.1446 20.4699 59.4338C20.7591 59.7231 20.9037 60.0812 20.9037 60.5081C20.9037 60.9351 20.7591 61.2931 20.4699 61.5824C20.1807 61.8716 19.8295 62.0162 19.4163 62.0162ZM20.5732 63.5243V74.9074H18.2181V63.5243H20.5732Z" fill="black"/>
<path d="M15.1223 60.5496V74.9075H12.7672V65.0739L8.38753 74.9075H6.75547L2.35512 65.0739V74.9075H0V60.5496H2.54105L7.58183 71.8087L12.602 60.5496H15.1223Z" fill="black"/>
<g clip-path="url(#clip0_14416_10990)">
<path d="M42 31.6923C38.6867 31.6923 36 34.4479 36 37.8462C36 41.2445 38.6867 44 42 44C45.3133 44 48 41.2445 48 37.8462C48 34.4479 45.3133 31.6923 42 31.6923Z" fill="#7286A0"/>
<path d="M12 44H0V19.3846C0 10.9026 6.73 4 15 4C23.27 4 30 10.9026 30 19.3846V28.6154H18V19.3846C18 17.6889 16.6533 16.3077 15 16.3077C13.3467 16.3077 12 17.6889 12 19.3846V44Z" fill="#7286A0"/>
<path d="M30 44H18V19.3846C18 10.9026 24.73 4 33 4C41.27 4 48 10.9026 48 19.3846V28.6154H36V19.3846C36 17.6889 34.6533 16.3077 33 16.3077C31.3467 16.3077 30 17.6889 30 19.3846V44Z" fill="#7286A0"/>
</g>
<defs>
<clipPath id="clip0_14416_10990">
<rect width="48" height="40" fill="white" transform="translate(0 4)"/>
</clipPath>
</defs>
</svg>
