<svg width="35" height="35" viewBox="0 0 35 35" fill="none" xmlns="http://www.w3.org/2000/svg">
<path d="M6.15509 28.0555C4.27637 26.1768 4.27637 23.152 4.27637 17.1053C4.27637 11.0586 4.27637 8.03382 6.15509 6.15509C8.03382 4.27637 11.0586 4.27637 17.1053 4.27637C23.152 4.27637 26.1768 4.27637 28.0555 6.15509C29.9343 8.03382 29.9343 11.0586 29.9343 17.1053C29.9343 23.152 29.9343 26.1768 28.0555 28.0555C26.1768 29.9343 23.152 29.9343 17.1053 29.9343C11.0586 29.9343 8.03382 29.9343 6.15509 28.0555Z" stroke="currentColor" stroke-width="1.06908" stroke-linecap="round" stroke-linejoin="round"/>
<path d="M8.55273 17.1053H12.1163L14.9672 11.4036L19.2435 22.8071L22.0944 17.1053H25.658" stroke="currentColor" stroke-width="1.06908" stroke-linecap="round" stroke-linejoin="round"/>
</svg>
