<svg width="14" height="14" viewBox="0 0 14 14" fill="none" xmlns="http://www.w3.org/2000/svg">
<path d="M1.16611 3.07306L1.91248 2.33252L11.662 12.082L10.9214 12.8284L9.12547 11.0324C8.4549 11.254 7.74351 11.3706 6.99714 11.3706C4.08163 11.3706 1.59178 9.55716 0.583008 6.99734C0.985349 5.97108 1.62676 5.06727 2.44311 4.35006L1.16611 3.07306ZM6.99714 5.24803C7.46109 5.24803 7.90603 5.43234 8.23409 5.76039C8.56215 6.08845 8.74645 6.5334 8.74645 6.99734C8.74674 7.19593 8.71322 7.39311 8.64732 7.58045L6.41404 5.34716C6.60137 5.28126 6.79855 5.24774 6.99714 5.24803ZM6.99714 2.62407C9.91265 2.62407 12.4025 4.43752 13.4113 6.99734C12.9351 8.20608 12.1264 9.2553 11.0789 10.0236L10.2509 9.18981C11.0573 8.63204 11.7076 7.87731 12.1401 6.99734C11.6688 6.03514 10.9369 5.2245 10.0277 4.65756C9.11858 4.09062 8.06859 3.79014 6.99714 3.79028C6.36156 3.79028 5.73764 3.89524 5.15453 4.08183L4.25656 3.18968C5.09622 2.82816 6.02336 2.62407 6.99714 2.62407ZM1.85417 6.99734C2.32552 7.95954 3.05738 8.77019 3.96654 9.33713C4.8757 9.90407 5.92569 10.2045 6.99714 10.2044C7.39948 10.2044 7.79599 10.1636 8.16335 10.082L6.83387 8.74665C6.42813 8.70316 6.0495 8.52208 5.76095 8.23354C5.4724 7.94499 5.29132 7.56636 5.24783 7.16061L3.26528 5.17223C2.68801 5.66787 2.20403 6.28596 1.85417 6.99734Z" fill="#FF5500"/>
</svg>
