<svg width="14" height="14" viewBox="0 0 14 14" fill="none" xmlns="http://www.w3.org/2000/svg">
<path d="M6.99714 5.24799C7.46109 5.24799 7.90603 5.43229 8.23409 5.76035C8.56215 6.08841 8.74645 6.53335 8.74645 6.9973C8.74645 7.46124 8.56215 7.90618 8.23409 8.23424C7.90603 8.5623 7.46109 8.7466 6.99714 8.7466C6.53319 8.7466 6.08825 8.5623 5.76019 8.23424C5.43213 7.90618 5.24783 7.46124 5.24783 6.9973C5.24783 6.53335 5.43213 6.08841 5.76019 5.76035C6.08825 5.43229 6.53319 5.24799 6.99714 5.24799ZM6.99714 2.62402C9.91265 2.62402 12.4025 4.43747 13.4113 6.9973C12.4025 9.55712 9.91265 11.3706 6.99714 11.3706C4.08163 11.3706 1.59178 9.55712 0.583008 6.9973C1.59178 4.43747 4.08163 2.62402 6.99714 2.62402ZM1.85417 6.9973C2.32547 7.95959 3.05729 8.77036 3.96645 9.33744C4.87561 9.90451 5.92563 10.2051 6.99714 10.2051C8.06865 10.2051 9.11867 9.90451 10.0278 9.33744C10.937 8.77036 11.6688 7.95959 12.1401 6.9973C11.6688 6.035 10.937 5.22423 10.0278 4.65715C9.11867 4.09008 8.06865 3.78946 6.99714 3.78946C5.92563 3.78946 4.87561 4.09008 3.96645 4.65715C3.05729 5.22423 2.32547 6.035 1.85417 6.9973Z" fill="#FF5500"/>
</svg>
