<svg width="18" height="18" viewBox="0 0 18 18" fill="none" xmlns="http://www.w3.org/2000/svg">
<path d="M9.16718 6.23363V4.03351L6.60037 5.50025H2.93351L0.366699 4.03351V15.0341" stroke="currentColor" stroke-width="0.451307" stroke-miterlimit="10" stroke-linecap="round" stroke-linejoin="round"/>
<path d="M9.16718 6.23364L6.60037 7.70039H2.93351L0.366699 6.23364M6.94873 9.70176L6.60037 9.90051H2.93351L0.366699 8.43376M6.94873 11.9019L6.60037 12.1006H2.93351L0.366699 10.6339M6.94873 14.102L6.60037 14.3007H2.93351L0.366699 12.834M6.94873 16.3021L6.60037 16.5009H2.93351L0.366699 15.0341M0.366699 4.03352L2.93351 2.56677H6.60037L9.16718 4.03352M17.2343 15.0341V8.43376L14.6675 9.90051H11.0006L8.43381 8.43376V15.0341" stroke="currentColor" stroke-width="0.451307" stroke-miterlimit="10" stroke-linecap="round" stroke-linejoin="round"/>
<path d="M17.2343 10.6339L14.6675 12.1006H11.0006L8.43384 10.6339M17.2343 12.834L14.6675 14.3008H11.0006L8.43384 12.834M17.2343 15.0341L14.6675 16.5009H11.0006L8.43384 15.0341M8.43384 8.43377L11.0006 6.96702H14.6675L17.2343 8.43377M13.5675 1.10004V1.83341M13.5675 4.7669V5.50028M15.7676 3.30016H15.0342M12.1007 3.30016H11.3673" stroke="currentColor" stroke-width="0.451307" stroke-miterlimit="10" stroke-linecap="round" stroke-linejoin="round"/>
</svg>
