<svg width="35" height="35" viewBox="0 0 35 35" fill="none" xmlns="http://www.w3.org/2000/svg">
<path fill-rule="evenodd" clip-rule="evenodd" d="M28.0262 18.5115C26.5387 17.9113 24.3652 17.5 21.875 17.5V14C24.6995 14 27.3385 14.4602 29.337 15.267C30.331 15.6695 31.2515 16.191 31.9533 16.8595C32.6568 17.5332 33.25 18.473 33.25 19.6385C33.25 20.8058 32.6585 21.7438 31.9533 22.4175C31.2533 23.0878 30.331 23.6093 29.337 24.01C27.3385 24.8185 24.6995 25.277 21.875 25.277C19.0505 25.277 16.4115 24.8185 14.413 24.0117C13.419 23.6092 12.4985 23.0877 11.7968 22.4192C11.095 21.742 10.5 20.804 10.5 19.6367H14L13.9983 19.6105C14.0513 19.7158 14.1251 19.8092 14.2153 19.8853C14.4883 20.1477 14.9765 20.4627 15.7255 20.7637C17.2113 21.3657 19.383 21.7752 21.875 21.7752C24.367 21.7752 26.5387 21.364 28.0262 20.7637C28.7735 20.4627 29.2618 20.146 29.5348 19.8853C29.6154 19.8134 29.6844 19.7296 29.7395 19.6367C29.6844 19.5439 29.6154 19.4601 29.5348 19.3883C29.2618 19.1275 28.7735 18.8107 28.0262 18.5097M29.75 19.6122C29.75 19.6052 29.7512 19.6018 29.7535 19.6018L29.75 19.6122Z" fill="white"/>
<path fill-rule="evenodd" clip-rule="evenodd" d="M12.25 18.668C12.7141 18.668 13.1592 18.8523 13.4874 19.1805C13.8156 19.5087 14 19.9538 14 20.418V25.8395C14.014 25.8745 14.0613 25.962 14.2153 26.1107C14.4883 26.3715 14.9765 26.6882 15.7255 26.9892C17.2113 27.5895 19.383 28.0007 21.875 28.0007C24.367 28.0007 26.5387 27.5895 28.0262 26.9892C28.7735 26.6865 29.2618 26.3715 29.5348 26.1107C29.6239 26.0355 29.697 25.9433 29.75 25.8395V20.418C29.75 19.9538 29.9344 19.5087 30.2626 19.1805C30.5907 18.8523 31.0359 18.668 31.5 18.668C31.9641 18.668 32.4093 18.8523 32.7374 19.1805C33.0656 19.5087 33.25 19.9538 33.25 20.418V25.8605C33.25 27.0295 32.6585 27.9675 31.9533 28.6412C31.2533 29.3115 30.331 29.8312 29.337 30.2337C27.3385 31.0422 24.6995 31.5007 21.875 31.5007C19.0505 31.5007 16.4115 31.0422 14.413 30.2337C13.419 29.8312 12.4985 29.3115 11.7968 28.6412C11.095 27.9657 10.5 27.0295 10.5 25.8622V20.418C10.5 19.9538 10.6844 19.5087 11.0126 19.1805C11.3408 18.8523 11.7859 18.668 12.25 18.668ZM29.7553 25.8255L29.7517 25.8342C29.7517 25.8284 29.7529 25.8255 29.7553 25.8255Z" fill="white"/>
<path fill-rule="evenodd" clip-rule="evenodd" d="M16.1 28V24.5H19.6V28H16.1ZM23.8 28V24.5H27.3V28H23.8ZM5.2605 9.14025C5.31542 9.04676 5.38449 8.96234 5.46525 8.89C5.73825 8.62925 6.2265 8.3125 6.9755 8.0115C8.46125 7.41125 10.633 7 13.125 7C15.617 7 17.7888 7.41125 19.2763 8.0115C20.0235 8.31425 20.5118 8.62925 20.7848 8.89C20.9125 9.0125 20.9668 9.09475 20.9895 9.1385C20.9344 9.23137 20.8654 9.31519 20.7848 9.387C20.5118 9.6495 20.0235 9.9645 19.2745 10.2655C17.7888 10.8675 15.617 11.277 13.125 11.277C10.633 11.277 8.46125 10.8675 6.9755 10.2655C6.2265 9.9645 5.73825 9.64775 5.46525 9.387C5.38463 9.31519 5.31557 9.23312 5.2605 9.14025ZM21 9.11225C21 9.10525 21.0012 9.10175 21.0035 9.10175L21 9.11225ZM5.66475 4.767C7.6615 3.96025 10.3005 3.5 13.125 3.5C15.9495 3.5 18.5885 3.96025 20.587 4.767C21.581 5.1695 22.5015 5.691 23.2033 6.3595C23.9068 7.03325 24.5 7.973 24.5 9.1385C24.5 10.3058 23.9085 11.2438 23.2015 11.9175C22.5015 12.5877 21.581 13.1093 20.587 13.51C18.5885 14.3185 15.9495 14.777 13.125 14.777C10.3005 14.777 7.6615 14.3185 5.663 13.5118C4.669 13.1093 3.7485 12.5877 3.04675 11.9192C2.345 11.242 1.75 10.304 1.75 9.13675C1.75 7.9695 2.34325 7.0315 3.04675 6.35775C3.74675 5.68925 4.669 5.16775 5.663 4.76525" fill="white"/>
<path fill-rule="evenodd" clip-rule="evenodd" d="M3.5 8.16699C3.96413 8.16699 4.40925 8.35137 4.73744 8.67956C5.06563 9.00774 5.25 9.45286 5.25 9.91699V15.3385C5.30296 15.4423 5.37615 15.5346 5.46525 15.6097C5.73825 15.8705 6.2265 16.1872 6.9755 16.4882C8.46125 17.0885 10.633 17.4997 13.125 17.4997C15.617 17.4997 17.7887 17.0885 19.2763 16.4882C20.0235 16.1855 20.5117 15.8705 20.7847 15.6097C20.8739 15.5346 20.947 15.4423 21 15.3385V9.91699C21 9.45286 21.1844 9.00774 21.5126 8.67956C21.8408 8.35137 22.2859 8.16699 22.75 8.16699C23.2141 8.16699 23.6592 8.35137 23.9874 8.67956C24.3156 9.00774 24.5 9.45286 24.5 9.91699V15.3595C24.5 16.5267 23.9085 17.4665 23.2015 18.1402C22.5015 18.8105 21.581 19.3302 20.587 19.7327C18.5885 20.5412 15.9495 20.9997 13.125 20.9997C10.3005 20.9997 7.6615 20.5412 5.663 19.7327C4.669 19.3302 3.7485 18.8105 3.04675 18.1402C2.345 17.4647 1.75 16.5267 1.75 15.3612V9.91699C1.75 9.45286 1.93437 9.00774 2.26256 8.67956C2.59075 8.35137 3.03587 8.16699 3.5 8.16699ZM21.0053 15.3245L21 15.3332C21 15.3274 21.0012 15.3245 21.0035 15.3245" fill="white"/>
<path fill-rule="evenodd" clip-rule="evenodd" d="M7.3501 17.5V14H10.8501V17.5H7.3501ZM15.0501 17.5V14H18.5501V17.5H15.0501Z" fill="white"/>
</svg>
