<svg width="22" height="22" viewBox="0 0 22 22" fill="none" xmlns="http://www.w3.org/2000/svg">
<path fill-rule="evenodd" clip-rule="evenodd" d="M1.6499 10.9994C1.6499 12.2273 1.89175 13.4431 2.36163 14.5775C2.83151 15.7119 3.52023 16.7426 4.38845 17.6109C5.25668 18.4791 6.28742 19.1678 7.42181 19.6377C8.55621 20.1076 9.77204 20.3494 10.9999 20.3494C12.2278 20.3494 13.4436 20.1076 14.578 19.6377C15.7124 19.1678 16.7431 18.4791 17.6114 17.6109C18.4796 16.7426 19.1683 15.7119 19.6382 14.5775C20.1081 13.4431 20.3499 12.2273 20.3499 10.9994C20.3499 8.51964 19.3648 6.14143 17.6114 4.38797C15.8579 2.6345 13.4797 1.64941 10.9999 1.64941C8.52013 1.64941 6.14192 2.6345 4.38845 4.38797C2.63499 6.14143 1.6499 8.51964 1.6499 10.9994ZM19.2499 10.9994C19.2499 13.1875 18.3807 15.2859 16.8335 16.833C15.2864 18.3802 13.1879 19.2494 10.9999 19.2494C8.81187 19.2494 6.71345 18.3802 5.16627 16.833C3.6191 15.2859 2.7499 13.1875 2.7499 10.9994C2.7499 8.81138 3.6191 6.71296 5.16627 5.16578C6.71345 3.61861 8.81187 2.74941 10.9999 2.74941C13.1879 2.74941 15.2864 3.61861 16.8335 5.16578C18.3807 6.71296 19.2499 8.81138 19.2499 10.9994Z" fill="currentColor"/>
<path fill-rule="evenodd" clip-rule="evenodd" d="M7.1499 10.9992C7.1499 15.8348 8.7361 19.7992 10.9999 19.7992C13.2637 19.7992 14.8499 15.8348 14.8499 10.9992C14.8499 6.16362 13.2637 2.19922 10.9999 2.19922C8.7361 2.19922 7.1499 6.16362 7.1499 10.9992ZM13.7499 10.9992C13.7499 15.2771 12.3804 18.6992 10.9999 18.6992C9.6194 18.6992 8.2499 15.2771 8.2499 10.9992C8.2499 6.72132 9.6194 3.29922 10.9999 3.29922C12.3804 3.29922 13.7499 6.72132 13.7499 10.9992Z" fill="currentColor"/>
<path d="M4.57842 5.8162L5.31542 5C5.43276 5.1056 5.55852 5.20863 5.69272 5.3091C7.14252 6.3959 9.43052 7.0581 11.9242 7.0581C14.0505 7.0581 16.0349 6.5774 17.4847 5.7491C17.8187 5.56005 18.1343 5.34019 18.4274 5.0924L19.1424 5.9284C18.8139 6.20927 18.4436 6.4674 18.0314 6.7028C16.4067 7.6323 14.2342 8.1581 11.9242 8.1581C9.20722 8.1581 6.68602 7.4288 5.03272 6.1891C4.8758 6.07125 4.72422 5.94756 4.57842 5.8162ZM4.57842 16.143L5.31542 16.957C5.43276 16.8507 5.55852 16.748 5.69272 16.649C7.14252 15.5622 9.43052 14.9 11.9242 14.9C14.0505 14.9 16.0349 15.3796 17.4847 16.209C17.8382 16.4121 18.1524 16.6307 18.4274 16.8646L19.1424 16.0286C18.797 15.7364 18.4251 15.4772 18.0314 15.2542C16.4067 14.3258 14.2342 13.8 11.9242 13.8C9.20722 13.8 6.68602 14.5293 5.03272 15.7679C4.87139 15.8889 4.71996 16.0147 4.57842 16.143ZM2.66992 11.523V10.423H20.2699V11.523H2.66992Z" fill="currentColor"/>
</svg>
