<svg width="35" height="35" viewBox="0 0 35 35" fill="none" xmlns="http://www.w3.org/2000/svg">
<path d="M18.3769 4.00544L30.6299 13.677C30.9435 13.9241 31.1723 14.2628 31.2844 14.646C31.3965 15.0292 31.3863 15.4378 31.2554 15.8149C31.1245 16.1921 30.8792 16.519 30.5538 16.7503C30.2283 16.9815 29.8389 17.1056 29.4397 17.1052H28.5089V22.0943C28.5089 26.1254 28.5089 28.1424 27.2559 29.3939C26.0044 30.6469 23.9874 30.6469 19.9562 30.6469H14.2545C10.2234 30.6469 8.20636 30.6469 6.95482 29.3939C5.70186 28.1424 5.70186 26.1254 5.70186 22.0943V17.1052H4.77105C4.37182 17.1056 3.98239 16.9815 3.65696 16.7503C3.33153 16.519 3.08628 16.1921 2.95534 15.8149C2.82439 15.4378 2.81427 15.0292 2.92637 14.646C3.03847 14.2628 3.26723 13.9241 3.58081 13.677L15.8339 4.00544C16.1961 3.71965 16.644 3.56421 17.1054 3.56421C17.5667 3.56421 18.0147 3.71965 18.3769 4.00544Z" stroke="currentColor" stroke-width="1.06908" stroke-linecap="round" stroke-linejoin="round"/>
<path d="M20.6689 30.6469V24.2324C20.6689 22.8996 20.6689 22.234 20.3824 21.7379C20.1948 21.4129 19.9249 21.143 19.5999 20.9553C19.1038 20.6688 18.4381 20.6688 17.1053 20.6688C15.7726 20.6688 15.1069 20.6688 14.6108 20.9553C14.2858 21.143 14.0159 21.4129 13.8283 21.7379C13.5417 22.234 13.5417 22.8996 13.5417 24.2324V30.6469" stroke="currentColor" stroke-width="1.06908" stroke-linecap="round" stroke-linejoin="round"/>
</svg>
