<svg width="108" height="109" viewBox="0 0 108 109" fill="none" xmlns="http://www.w3.org/2000/svg">
<path d="M85.2706 98.2305C84.9677 98.545 84.5667 98.6027 84.2609 99.096C83.6003 100.161 83.9493 101.828 82.504 102.258C81.3644 102.595 81.3125 101.909 80.597 101.796C79.5037 101.626 66.8359 106.807 64.4876 107.569C62.9759 108.059 61.4786 108.772 59.8659 108.735C55.2904 108.634 47.4751 106.144 43.4305 106.545C42.8592 106.603 42.363 107.18 41.688 107.269C38.8954 107.644 39.9166 105.316 39.3829 104.935L17.9334 96.1563C16.9583 95.9716 15.7668 97.4718 14.6302 96.0293C13.7445 94.9042 14.6908 94.2464 14.333 93.1732L2.39807 72.8806C1.8759 72.3873 0.346882 72.8085 0.0699289 71.3833C-0.374351 69.0754 1.44027 69.3697 1.52682 69.0523C1.71434 68.3744 1.44604 66.5655 1.5124 65.6308C1.90186 60.1494 2.41826 54.6594 2.6606 49.1953C2.77023 46.7201 3.24047 42.4821 2.97217 40.2491C2.9087 39.7126 1.96244 39.7212 2.06342 38.247C2.21632 36.0141 3.98478 36.7786 4.8243 36.0833C9.00457 29.572 13.6724 23.3867 18.0027 16.9822C18.62 16.0676 20.628 13.4222 20.8905 12.6548C21.2107 11.7172 20.1981 10.6786 21.404 9.72079C22.8119 8.60144 23.6283 10.2055 24.638 10.1016L52.016 1.49585C53.5595 -0.950573 54.6355 -0.0302794 56.2655 1.65164L84.584 11.8153C85.7726 10.7853 87.8325 11.2815 87.9738 12.9115C88.02 13.4568 87.6392 13.979 87.8267 14.4579C88.1036 15.1733 90.2039 17.7438 90.8039 18.7016C95.6449 26.4361 100.587 34.1042 105.413 41.8474C106.045 42.358 107.239 41.9484 107.715 43.01C108.483 44.7208 106.726 45.2285 106.478 46.0854C106.059 47.5278 106.282 50.231 106.129 51.7889C105.832 54.8556 104.135 67.3156 104.75 69.3148C104.877 69.7332 105.431 69.912 105.555 70.5323C105.999 72.7623 104.565 72.2661 103.688 73.2701C100.587 76.8272 98.2442 84.3771 95.3044 88.5198C93.334 91.298 87.9565 95.4379 85.2706 98.2276V98.2305ZM51.9439 2.93543L51.8054 2.3671C50.5649 2.97871 49.1686 3.2095 47.8502 3.60185C40.8773 5.67612 32.2571 8.15716 25.5612 10.7219C25.0332 10.9238 24.3697 10.843 24.563 11.5873L37.0346 14.4203C41.6937 11.0479 45.9981 7.21667 50.5303 3.6884C50.9169 3.38836 51.892 2.99602 51.9439 2.93543ZM83.9378 12.4557L55.9799 2.65559L71.4374 16.7196L83.531 13.0558L83.9349 12.4557H83.9378ZM53.9432 3.25277L52.1487 3.51819L38.1135 15.0435L57.9936 20.095L58.4494 19.3536L53.9432 3.25277ZM70.3902 17.3514L54.8317 3.22969L59.5255 19.5757L60.616 20.1008L70.3902 17.3514ZM35.8027 15.3378C32.2802 14.7579 27.7076 12.5884 24.2832 12.2884C23.8735 12.2538 23.5215 12.2855 23.1609 12.4932L21.9723 26.8631L35.8027 15.3406V15.3378ZM19.9125 28.8219C19.272 27.2929 20.9626 26.9381 21.1126 26.1505C21.7185 22.9338 21.2569 18.7881 21.9839 15.4935L21.6867 12.7471L5.25415 36.9517L19.9125 28.8248V28.8219ZM85.8736 14.8387L84.3734 13.6847L72.5885 17.3514L72.4096 17.9227L90.5645 34.6437L85.8736 14.8387ZM104.686 42.7129L86.8227 14.7579C87.1689 17.2043 87.7719 19.6277 88.3373 22.0308C88.721 23.6521 91.1617 34.1417 91.58 34.6408C92.1512 35.3188 93.8129 35.2928 93.5071 37.3267L104.686 42.7158V42.7129ZM57.1339 20.8134C50.3572 19.8238 43.768 17.4755 37.1529 15.6926C33.2755 18.7102 28.9971 21.9067 25.4285 25.2735C25.1083 25.5735 23.0859 27.417 23.4177 27.7257L57.1368 20.8134H57.1339ZM89.9904 35.7948L71.5355 18.0669C71.2354 17.8592 70.9412 17.9342 70.6152 17.9775C67.7302 18.3496 64.0058 20.5047 60.9189 20.8451L61.0603 21.9904L89.9904 35.7948ZM23.4148 28.594L23.8533 29.4508L47.0539 47.4673C47.8127 47.8308 48.6695 47.6692 49.0013 46.8297L57.8897 22.9771L57.2983 21.9991L23.4177 28.594H23.4148ZM89.624 36.7382L60.3044 22.8299L76.6418 55.069L77.7352 54.8152L89.8548 38.3826C90.0481 37.9902 89.849 37.0151 89.6211 36.7411L89.624 36.7382ZM59.4072 23.1444C58.2129 22.8645 58.7293 23.4358 58.4292 24.2609C55.6164 31.9752 52.6219 39.626 49.7485 47.3172C49.6504 47.7471 49.7196 48.4799 49.9216 48.8405C50.5562 49.9685 72.0836 54.4719 74.8358 55.9634L75.2311 55.0229L59.4014 23.1444H59.4072ZM13.8974 52.8015L20.7578 30.4L20.3856 29.4653L5.54842 38.0364L5.39551 39.8135L13.8945 52.8044L13.8974 52.8015ZM46.1567 49.3223C46.3644 48.3991 46.0702 47.7182 45.3201 47.1816L22.8407 29.748L26.2997 53.0929L46.1567 49.3223ZM25.4112 53.0698L21.6867 30.325L14.7427 53.2054C15.5851 53.3035 16.0698 54.3449 16.2688 54.4632C17.0391 54.9219 24.0091 53.2977 25.4112 53.0698ZM91.0578 38.4461L78.3266 55.4066L78.2112 56.6442C78.3439 57.0308 79.3104 57.5068 79.7085 57.7491C85.1581 61.0553 91.7617 64.4393 97.4768 67.3617C98.4317 67.8493 101.721 69.7101 102.505 69.5081C102.641 69.4735 103.059 69.1216 102.846 68.9196L92.1108 38.423L91.0578 38.4461ZM105.491 45.6555C104.19 45.3613 104.432 43.9765 103.648 43.3245L93.4494 38.6826L103.682 68.3657L105.491 45.6555ZM4.38579 39.8366L3.81457 39.9809L2.0865 69.2312C2.6606 69.335 2.90005 68.8504 3.23181 68.5042C6.55237 65.0538 9.40846 59.9475 12.7232 56.3528C13.1444 55.522 12.3655 54.6219 13.2166 53.8054L4.38579 39.8366ZM50.0687 49.9281L49.6446 50.6263L61.7758 75.9704L62.7249 76.4147L74.856 58.2627C75.0753 57.8819 75.0695 57.5097 74.8705 57.1202C74.2819 55.972 52.7834 51.258 50.0716 49.9252L50.0687 49.9281ZM29.7559 73.8413L30.7541 73.5442C36.1604 65.9712 41.6332 58.4502 46.9212 50.7965L46.5895 50.2195L26.5796 53.9583L29.753 73.8442L29.7559 73.8413ZM48.7445 50.8167L47.954 50.8397L31.3224 74.1442L32.0609 75.7165L60.1717 77.6061L61.0459 77.3176L60.6391 75.379L48.7445 50.8167ZM25.717 53.9555L16.6929 55.4499L16.3294 55.6633L16.1967 56.3961L29.176 73.8413L25.717 53.9555ZM15.2851 56.901H13.3868L3.5982 69.7072C3.56935 69.912 3.67033 70.3246 3.79149 70.4804C4.54446 71.4584 25.2439 74.2654 28.022 75.2809L27.7566 73.9625L15.2822 56.8981L15.2851 56.901ZM101.804 71.2477L101.325 70.4313L78.0323 58.0174L76.0533 58.2944L63.7865 76.8301C64.2568 77.7331 65.004 77.6292 65.8839 77.5571C71.9278 77.0667 78.869 74.5712 85.0283 73.925L101.804 71.2449V71.2477ZM3.70783 71.5593L3.23759 72.2402L15.3283 92.9886L17.0708 92.7405L28.2153 77.1561L27.722 76.305L3.70783 71.5593ZM102.381 72.1132L95.3967 73.0508C85.6803 75.3934 74.6743 75.9877 65.0761 78.4687C64.577 78.5986 64.3606 78.7717 64.0548 79.1727L80.7413 98.219L82.628 98.6229L102.378 72.1132H102.381ZM31.3599 76.4666L30.956 77.3782C32.7504 80.1593 40.3061 103.421 41.7168 103.55C42.0515 103.582 42.3602 103.521 42.5736 103.233L60.8901 79.4525L60.7574 78.7226L31.3628 76.4695L31.3599 76.4666ZM30.0386 77.3003L28.8846 77.7302L17.6565 93.8368L17.9854 94.9792L40.4157 104.101L30.0386 77.2975V77.3003ZM87.1112 94.8811C89.6904 92.7145 92.1397 90.4095 94.4332 87.94L100.076 77.5888L87.1112 94.8811ZM43.0121 104.678C43.6295 104.664 44.2613 104.727 44.8816 104.678C53.747 103.937 63.6394 102.451 72.5192 101.188C74.5848 100.893 77.0572 100.605 79.0536 100.23C79.5585 100.135 80.499 100.062 80.4932 99.3499L65.3531 81.9076C64.4558 81.0998 63.5875 79.6891 62.1941 79.8852L43.015 104.678H43.0121ZM78.7507 101.508L78.6122 100.939L43.592 105.832L60.7026 107.843L78.7507 101.511V101.508Z" fill="#FF5500"/>
</svg>
