<svg width="25" height="25" viewBox="0 0 25 25" fill="none" xmlns="http://www.w3.org/2000/svg">
<path d="M0.0727539 11.1193H11.1193V0.0727539H0.0727539V11.1193ZM2.83438 2.83438H8.35764V8.35764H2.83438V2.83438ZM0.0727539 24.9274H11.1193V13.8809H0.0727539V24.9274ZM2.83438 16.6425H8.35764V22.1658H2.83438V16.6425ZM13.8809 0.0727539V11.1193H24.9274V0.0727539H13.8809ZM22.1658 8.35764H16.6425V2.83438H22.1658V8.35764ZM13.8947 13.8809H16.6563V16.6425H13.8947V13.8809ZM16.6563 16.6425H19.418V19.4042H16.6563V16.6425ZM13.8947 19.4042H16.6563V22.1658H13.8947V19.4042ZM19.418 19.4042H22.1796V22.1658H19.418V19.4042ZM22.1796 22.1658H24.9412V24.9274H22.1796V22.1658ZM16.6563 22.1658H19.418V24.9274H16.6563V22.1658ZM19.418 13.8809H22.1796V16.6425H19.418V13.8809ZM22.1796 16.6425H24.9412V19.4042H22.1796V16.6425Z" fill="currentColor"/>
</svg>
