<svg width="21" height="21" viewBox="0 0 21 21" fill="none" xmlns="http://www.w3.org/2000/svg">
<path d="M6.43359 12.5421C6.91246 12.579 7.43566 12.7369 7.89551 12.8907C8.17133 12.983 8.40716 13.0679 8.63574 13.1427C8.74805 13.1795 8.84845 13.2099 8.93652 13.2335L9.16406 13.2823L9.68262 13.3361C10.2791 13.3871 11.0804 13.4294 11.8076 13.4611C12.2902 13.4821 12.7369 13.4989 13.0625 13.5099C13.225 13.5154 13.3574 13.5188 13.4492 13.5216C13.4951 13.523 13.5314 13.5248 13.5557 13.5255C13.5676 13.5259 13.5768 13.5253 13.583 13.5255C13.586 13.5256 13.5883 13.5264 13.5898 13.5265H13.5928L13.7236 13.5294L13.7969 13.6398L14.6934 14.9884L14.8232 15.1827L14.7148 15.2677C14.8397 15.1975 15.0578 15.0693 15.333 14.9005C15.6849 14.6846 16.1177 14.4148 16.5381 14.1505C16.9583 13.8863 17.3662 13.6278 17.6689 13.4357C17.8202 13.3396 17.945 13.2597 18.0322 13.2042C18.0759 13.1765 18.1105 13.1546 18.1338 13.1398C18.1452 13.1325 18.1542 13.1269 18.1602 13.1232C18.1631 13.1213 18.1655 13.1202 18.167 13.1193L18.1689 13.1183V13.1173L18.3291 13.0157L18.4727 13.1407L19.7617 14.2667L19.9824 14.4601L19.7598 14.6515H19.7588C19.7583 14.6519 19.7577 14.6527 19.7568 14.6534C19.7548 14.6552 19.751 14.6579 19.7471 14.6613C19.7391 14.6681 19.7274 14.6785 19.7119 14.6915C19.6807 14.7178 19.6339 14.7563 19.5742 14.8058C19.4548 14.9047 19.2809 15.0479 19.0615 15.2228C18.6228 15.5724 18.0026 16.0519 17.2754 16.5714C15.916 17.5425 14.1678 18.665 12.5293 19.3361L12.2031 19.464C12.0037 19.539 11.5253 19.6305 11.001 19.7032C10.4667 19.7774 9.84682 19.837 9.34863 19.837C9.16225 19.837 8.98689 19.8282 8.83691 19.8077C8.69644 19.7885 8.54923 19.7543 8.43555 19.6857V19.6866C5.9501 18.2343 3.39388 17.9845 1.93945 17.9845C1.56454 17.9865 1.26518 18.0038 1.06055 18.0206C0.958282 18.0291 0.879593 18.037 0.827148 18.0431L0.753906 18.0529H0.750977L0.459961 18.0958V13.2843H0.868164C1.34453 13.2843 2.99977 13.2304 5.81738 12.5802H5.81836C5.95389 12.5494 6.09247 12.5341 6.23145 12.5343L6.43359 12.5421ZM15.9248 11.7872L16.4883 12.1837L16.7969 12.4015L17.1709 12.2032L17.2998 12.1349L17.4238 12.212L18.1582 12.6681L18.5117 12.8878L18.1543 13.1017L15.1992 14.8702L15.0059 14.9855L14.8682 14.8077L14.293 14.0665L14.1152 13.837L14.0996 13.8458L13.9697 13.6759L13.7812 13.4269C13.7491 13.4259 13.7124 13.4252 13.6738 13.424C13.5492 13.42 13.4011 13.4144 13.3154 13.4103L13.2217 12.9435L12.3887 13.339L12.3301 13.3663L12.2656 13.3634C12.1673 13.3577 11.9916 13.3528 11.8076 13.3478C11.6276 13.3429 11.4396 13.3374 11.3262 13.3312L11.2314 12.8488L13.5088 11.7697L13.5938 11.7296L13.6836 11.754L14.3223 11.9288L14.959 12.1017L15.6699 11.7657L15.8037 11.7023L15.9248 11.7872ZM9.40137 9.43665C9.75252 9.43241 10.1444 9.47411 10.5439 9.57922H10.543C11.1575 9.73657 11.6786 10.0113 12.0352 10.3224L12.1777 10.4581L12.1787 10.4591C12.5302 10.828 12.6928 11.2312 12.5557 11.6193L12.5547 11.6183C12.4267 11.9885 12.0583 12.2438 11.542 12.3761L11.541 12.3751C11.017 12.5141 10.335 12.5149 9.6377 12.3312V12.3322C8.93509 12.1481 8.35721 11.8144 7.99512 11.4523L7.98926 11.4454C7.6571 11.0877 7.48118 10.6813 7.62598 10.2911H7.625C7.75227 9.91512 8.12282 9.66371 8.62793 9.53528C8.86321 9.47438 9.12104 9.4409 9.40039 9.43665H9.40137ZM14.8105 5.7511C14.8655 5.7511 14.9343 5.75174 15.0127 5.76379C15.4893 5.78187 15.856 5.91789 16.0078 6.18958L16.0557 6.29895C16.1408 6.56342 16.0379 6.8883 15.7871 7.20422L15.7881 7.2052C15.4938 7.57979 14.9716 7.96746 14.3291 8.24524L14.3271 8.24622C13.6847 8.51973 13.0183 8.64596 12.5068 8.61536V8.61438C12.0169 8.5926 11.6642 8.44376 11.5107 8.18567L11.5078 8.18176C11.3466 7.89775 11.4483 7.52925 11.7324 7.172C12.0277 6.78896 12.5423 6.40694 13.1865 6.1261L13.1895 6.12415C13.751 5.88711 14.3331 5.76497 14.8037 5.75208L14.8105 5.7511ZM10.2334 0.61438C10.5089 0.61438 10.8132 0.754637 11.1064 1.05676H11.1055C11.41 1.35714 11.6719 1.80721 11.8311 2.33118L11.8926 2.56165V2.56262C12.0362 3.18321 11.9988 3.79084 11.8271 4.22961C11.6693 4.65056 11.4069 4.92464 11.0889 4.97375L11.0898 4.97473C11.0883 4.97501 11.0865 4.97447 11.085 4.97473L11.083 4.97571L11.082 4.97473C10.7877 5.02224 10.4394 4.87969 10.1104 4.547C9.76169 4.20249 9.46411 3.65754 9.32031 3.03918L9.31934 3.03625C9.18096 2.41507 9.20874 1.81493 9.38086 1.37219L9.44629 1.21692C9.61126 0.874399 9.85401 0.671619 10.1162 0.623169V0.624146C10.1675 0.614388 10.2186 0.614372 10.2334 0.61438Z" stroke="currentColor" stroke-width="1.0"/>
</svg>
