<svg width="18" height="18" viewBox="0 0 18 18" fill="none" xmlns="http://www.w3.org/2000/svg">
<path fill-rule="evenodd" clip-rule="evenodd" d="M16.506 0.140877C16.3074 0.219068 13.1812 1.44872 9.55889 2.87342C5.93662 4.29816 2.93467 5.49242 2.88789 5.52737C2.73551 5.64113 2.66744 5.76517 2.6532 5.95503C2.63699 6.17089 2.7093 6.3282 2.88817 6.46621C2.95239 6.51578 4.24326 7.11017 5.75675 7.78712C7.27025 8.46408 8.52593 9.03539 8.54719 9.05668C8.56841 9.07798 9.13955 10.3338 9.81639 11.8474C10.4932 13.361 11.0876 14.6519 11.1373 14.7162C11.3879 15.04 11.8347 15.0401 12.0763 14.7165C12.1113 14.6697 13.3643 11.5205 14.8609 7.71826C16.8277 2.72124 17.5864 0.755911 17.5983 0.627669C17.6194 0.399598 17.514 0.197843 17.3117 0.0793016C17.1067 -0.0408568 16.9343 -0.0276817 16.506 0.140877ZM16.2843 1.36406C16.0913 1.87659 11.6055 13.2651 11.5895 13.2834C11.5771 13.2974 11.1091 12.2912 10.5494 11.0474L9.53186 8.78582L10.9879 7.32383C11.7887 6.51973 12.4601 5.81825 12.4799 5.765C12.5664 5.53208 12.4806 5.28678 12.2668 5.15647C12.1433 5.08113 11.9337 5.06686 11.8171 5.12585C11.7757 5.14673 11.0882 5.81588 10.2893 6.61282C8.86871 8.02981 8.83455 8.06102 8.7414 8.02531C8.37297 7.8842 4.30167 6.03105 4.32148 6.01347C4.3352 6.00133 5.5925 5.50226 7.11546 4.90446C8.63841 4.30666 11.3163 3.25299 13.0662 2.563C14.8162 1.87301 16.2613 1.30741 16.2775 1.30617C16.2937 1.3049 16.2968 1.33097 16.2843 1.36406ZM2.76416 9.33886C2.74524 9.34354 2.68333 9.35765 2.62657 9.37017C2.55121 9.38682 2.20513 9.7098 1.34265 10.5686C0.693255 11.2152 0.122462 11.8108 0.0742361 11.8922C0.00564728 12.0079 -0.00941886 12.07 0.00495933 12.1773C0.0439662 12.4681 0.247325 12.6333 0.539808 12.6116L0.723284 12.5981L1.96215 11.3627C2.65048 10.6764 3.22241 10.0782 3.24917 10.0167C3.27566 9.95582 3.29733 9.86508 3.29733 9.81499C3.29733 9.69996 3.17769 9.48438 3.08 9.42335C2.99948 9.37309 2.81985 9.325 2.76416 9.33886ZM6.37591 10.554C6.31915 10.5897 5.44975 11.445 4.4439 12.4544C2.51368 14.3916 2.52723 14.3757 2.56682 14.6454C2.58843 14.7926 2.76581 14.978 2.92796 15.0227C3.20989 15.1006 3.16575 15.1376 5.16573 13.1431C6.1839 12.1278 7.03913 11.2552 7.0662 11.2041C7.13575 11.073 7.12791 10.835 7.05017 10.7171C6.90216 10.4926 6.59217 10.4175 6.37591 10.554ZM7.54543 14.3603C7.41871 14.4254 5.10083 16.7302 5.03213 16.8594C5.00503 16.9106 4.98281 17.03 4.98281 17.1249C4.98281 17.2681 5.00059 17.3177 5.08772 17.4169C5.21327 17.5599 5.38753 17.6247 5.5612 17.5931C5.67055 17.5732 5.85719 17.4015 6.92011 16.3427C7.59778 15.6677 8.17439 15.0736 8.20143 15.0225C8.22846 14.9714 8.25058 14.8603 8.25058 14.7757C8.25058 14.435 7.85463 14.2017 7.54543 14.3603Z" fill="currentColor"/>
</svg>
