<svg width="35" height="35" viewBox="0 0 35 35" fill="none" xmlns="http://www.w3.org/2000/svg">
<path d="M10.0493 9.21113C10.4372 9.34768 10.8501 9.39868 11.2596 9.36063C11.6691 9.32258 12.0656 9.19638 12.4217 8.99068C12.7778 8.78499 13.0853 8.50468 13.3229 8.16898C13.5605 7.83328 13.7226 7.45015 13.7982 7.04589L14.2543 4.59413C16.1299 4.16687 18.0776 4.16687 19.9532 4.59413L20.4122 7.04589C20.4878 7.45015 20.65 7.83328 20.8876 8.16898C21.1252 8.50468 21.4326 8.78499 21.7887 8.99068C22.1448 9.19638 22.5413 9.32258 22.9508 9.36063C23.3603 9.39868 23.7732 9.34768 24.1611 9.21113L26.5117 8.38437C27.8201 9.79381 28.7949 11.4794 29.364 13.3164L27.4681 14.9414C27.1559 15.209 26.9053 15.5411 26.7334 15.9147C26.5616 16.2883 26.4726 16.6947 26.4726 17.1059C26.4726 17.5172 26.5616 17.9235 26.7334 18.2972C26.9053 18.6708 27.1559 19.0028 27.4681 19.2704L29.364 20.894C28.7949 22.731 27.8201 24.4166 26.5117 25.826L24.1597 24.9993C23.7718 24.8627 23.3589 24.8117 22.9494 24.8498C22.5399 24.8878 22.1434 25.014 21.7873 25.2197C21.4311 25.4254 21.1237 25.7057 20.8861 26.0414C20.6485 26.3771 20.4864 26.7603 20.4108 27.1645L19.9561 29.6163C18.0805 30.0435 16.1328 30.0435 14.2572 29.6163L13.7982 27.1645C13.7226 26.7603 13.5605 26.3771 13.3229 26.0414C13.0853 25.7057 12.7778 25.4254 12.4217 25.2197C12.0656 25.014 11.6691 24.8878 11.2596 24.8498C10.8501 24.8117 10.4372 24.8627 10.0493 24.9993L7.69874 25.826C6.39032 24.4166 5.41551 22.731 4.84644 20.894L6.74227 19.269C7.05426 19.0014 7.30469 18.6694 7.47638 18.296C7.64807 17.9225 7.73697 17.5163 7.73697 17.1052C7.73697 16.6941 7.64807 16.2879 7.47638 15.9145C7.30469 15.541 7.05426 15.209 6.74227 14.9414L4.84644 13.3164C5.4151 11.4795 6.38941 9.79395 7.69731 8.38437L10.0493 9.21113ZM17.1052 12.8289C18.2394 12.8289 19.3271 13.2794 20.129 14.0814C20.931 14.8834 21.3815 15.9711 21.3815 17.1052C21.3815 18.2394 20.931 19.3271 20.129 20.129C19.3271 20.931 18.2394 21.3815 17.1052 21.3815C15.9711 21.3815 14.8834 20.931 14.0814 20.129C13.2794 19.3271 12.8289 18.2394 12.8289 17.1052C12.8289 15.9711 13.2794 14.8834 14.0814 14.0814C14.8834 13.2794 15.9711 12.8289 17.1052 12.8289Z" stroke="currentColor" stroke-width="1.06908" stroke-linecap="round" stroke-linejoin="round"/>
</svg>
