<svg width="20" height="19" viewBox="0 0 20 19" fill="none" xmlns="http://www.w3.org/2000/svg">
<path d="M5 1.91406H16.25C16.5712 1.91406 16.8794 2.04146 17.1064 2.26855C17.3335 2.49565 17.4609 2.80384 17.4609 3.125V16.875C17.4609 17.1962 17.3335 17.5044 17.1064 17.7314C16.8794 17.9585 16.5712 18.0859 16.25 18.0859H5C4.67884 18.0859 4.37065 17.9585 4.14355 17.7314C3.91646 17.5044 3.78906 17.1962 3.78906 16.875V14.9609H2.5C2.3446 14.9609 2.19582 14.8989 2.08594 14.7891C1.97605 14.6792 1.91406 14.5304 1.91406 14.375C1.91406 14.2196 1.97605 14.0708 2.08594 13.9609C2.19582 13.8511 2.3446 13.7891 2.5 13.7891H3.78906V10.5859H2.5C2.3446 10.5859 2.19582 10.5239 2.08594 10.4141C1.97605 10.3042 1.91406 10.1554 1.91406 10C1.91406 9.8446 1.97605 9.69582 2.08594 9.58594C2.19582 9.47605 2.3446 9.41406 2.5 9.41406H3.78906V6.21094H2.5C2.3446 6.21094 2.19582 6.14895 2.08594 6.03906C1.97605 5.92918 1.91406 5.7804 1.91406 5.625C1.91406 5.4696 1.97605 5.32082 2.08594 5.21094C2.19582 5.10105 2.3446 5.03906 2.5 5.03906H3.78906V3.125C3.78906 2.80384 3.91646 2.49565 4.14355 2.26855C4.37065 2.04146 4.67884 1.91406 5 1.91406ZM10.627 5.58398C9.98913 5.58406 9.36615 5.7764 8.83984 6.13672C8.31343 6.49717 7.90846 7.00871 7.67773 7.60352C7.44702 8.19839 7.40114 8.84952 7.54688 9.4707C7.68822 10.0729 8.00467 10.6182 8.45312 11.043C7.72424 11.3672 7.07807 11.8494 6.56152 12.4541L6.34375 12.7266C6.29146 12.7963 6.25309 12.8755 6.23145 12.96C6.20981 13.0444 6.20546 13.1325 6.21777 13.2188C6.23009 13.305 6.25937 13.3879 6.30371 13.4629C6.32596 13.5005 6.35183 13.536 6.38086 13.5684L6.47656 13.6562C6.54628 13.7085 6.62554 13.7469 6.70996 13.7686C6.79439 13.7902 6.88246 13.7945 6.96875 13.7822C7.05497 13.7699 7.13793 13.7406 7.21289 13.6963C7.25047 13.674 7.28601 13.6482 7.31836 13.6191L7.40625 13.5234C7.78093 13.0239 8.26668 12.6182 8.8252 12.3389C9.38387 12.0595 10.0004 11.9141 10.625 11.9141C11.2496 11.9141 11.8661 12.0595 12.4248 12.3389C12.9136 12.5833 13.3466 12.9246 13.6982 13.3408L13.8438 13.5234C13.9494 13.6643 14.1069 13.7573 14.2812 13.7822C14.4119 13.8009 14.5438 13.7797 14.6611 13.7236L14.7734 13.6562C14.9143 13.5506 15.0073 13.3931 15.0322 13.2188C15.0571 13.0444 15.0119 12.8674 14.9062 12.7266C14.3599 11.9942 13.6346 11.4152 12.8008 11.043C13.2495 10.6181 13.5666 10.0731 13.708 9.4707C13.8537 8.84952 13.8079 8.19839 13.5771 7.60352C13.3464 7.00868 12.9415 6.49719 12.415 6.13672C11.8886 5.77627 11.265 5.58398 10.627 5.58398ZM10.625 6.91406C11.1119 6.91406 11.5785 7.10784 11.9229 7.45215C12.2672 7.79645 12.4609 8.26308 12.4609 8.75C12.4609 9.11302 12.353 9.46767 12.1514 9.76953C11.9496 10.0714 11.6626 10.3073 11.3271 10.4463C10.9918 10.5851 10.6226 10.6216 10.2666 10.5508C9.91054 10.4799 9.58386 10.3046 9.32715 10.0479C9.07043 9.79114 8.89508 9.46446 8.82422 9.1084C8.75341 8.75241 8.78989 8.38322 8.92871 8.04785C9.06767 7.71238 9.30355 7.42537 9.60547 7.22363C9.90733 7.022 10.262 6.91406 10.625 6.91406Z" fill="#FF5500" stroke="#FF5500" stroke-width="0.078125"/>
</svg>
