<svg width="20" height="20" viewBox="0 0 20 20" fill="none" xmlns="http://www.w3.org/2000/svg">
<path d="M13.4503 1.875C12.71 1.87471 11.9802 2.05024 11.3209 2.38715C10.6617 2.72406 10.0919 3.2127 9.6585 3.81287C9.22505 4.41304 8.94034 5.10757 8.82779 5.83928C8.71524 6.571 8.77808 7.31899 9.01113 8.02167L2.30863 14.7258C2.0316 15.003 1.87598 15.3789 1.87598 15.7708C1.87598 16.1627 2.0316 16.5386 2.30863 16.8158L3.1853 17.6925C3.32252 17.8299 3.48548 17.9389 3.66486 18.0133C3.84425 18.0876 4.03653 18.1259 4.23071 18.1259C4.4249 18.1259 4.61718 18.0876 4.79656 18.0133C4.97595 17.9389 5.13891 17.8299 5.27613 17.6925L11.9795 10.9883C12.7797 11.2541 13.6368 11.2985 14.4602 11.1168C15.2835 10.9352 16.0425 10.5342 16.6565 9.95645C17.2706 9.37867 17.717 8.64556 17.9484 7.83478C18.1799 7.02399 18.1877 6.16571 17.9711 5.35084C17.7495 4.51417 16.7695 4.43084 16.2778 4.9225L14.842 6.3575C14.7638 6.43864 14.6703 6.50338 14.5669 6.54795C14.4634 6.59252 14.3521 6.61603 14.2395 6.61709C14.1269 6.61815 14.0151 6.59675 13.9109 6.55413C13.8066 6.51152 13.7119 6.44855 13.6322 6.3689C13.5526 6.28925 13.4896 6.19452 13.447 6.09026C13.4044 5.98599 13.383 5.87428 13.384 5.76164C13.3851 5.64901 13.4086 5.53772 13.4532 5.43427C13.4978 5.33083 13.5625 5.2373 13.6436 5.15917L15.0786 3.72334C15.5703 3.23167 15.487 2.25167 14.6495 2.03C14.2584 1.92662 13.8556 1.87452 13.4511 1.875" fill="#FF5500"/>
</svg>
