<svg width="20" height="20" viewBox="0 0 20 20" fill="none" xmlns="http://www.w3.org/2000/svg">
<path d="M16.666 5.83398H9.16602" stroke="#FF5500" stroke-width="1.33333" stroke-linecap="round" stroke-linejoin="round"/>
<path d="M11.666 14.166H4.16602" stroke="#FF5500" stroke-width="1.33333" stroke-linecap="round" stroke-linejoin="round"/>
<path d="M14.1654 16.6648C15.5458 16.6648 16.6648 15.5458 16.6648 14.1654C16.6648 12.785 15.5458 11.666 14.1654 11.666C12.785 11.666 11.666 12.785 11.666 14.1654C11.666 15.5458 12.785 16.6648 14.1654 16.6648Z" stroke="#FF5500" stroke-width="1.33333" stroke-linecap="round" stroke-linejoin="round"/>
<path d="M5.83337 8.33277C7.21375 8.33277 8.33277 7.21375 8.33277 5.83337C8.33277 4.453 7.21375 3.33398 5.83337 3.33398C4.453 3.33398 3.33398 4.453 3.33398 5.83337C3.33398 7.21375 4.453 8.33277 5.83337 8.33277Z" stroke="#FF5500" stroke-width="1.33333" stroke-linecap="round" stroke-linejoin="round"/>
</svg>
