<svg width="20" height="20" viewBox="0 0 20 20" fill="none" xmlns="http://www.w3.org/2000/svg">
<path d="M3.32715 2.08398H13.1611L17.083 6.00586V17.5068L17.0752 17.5869C17.0594 17.6659 17.0207 17.7391 16.9629 17.7969C16.8859 17.8737 16.7816 17.9169 16.6729 17.917H3.33008C3.22078 17.9161 3.1164 17.8722 3.03906 17.7949C2.98109 17.737 2.94119 17.6641 2.9248 17.585L2.91699 17.5039V2.49414C2.91699 2.26826 3.10022 2.08417 3.32715 2.08398ZM10 5.41699C9.22645 5.41699 8.48448 5.7245 7.9375 6.27148C7.39062 6.81845 7.08301 7.56051 7.08301 8.33398V8.75H6.25V13.75H13.75V8.75H12.917V8.33398C12.917 7.56051 12.6094 6.81845 12.0625 6.27148C11.5155 5.7245 10.7735 5.41699 10 5.41699ZM10 7.91699C10.1105 7.91699 10.2168 7.96092 10.2949 8.03906C10.373 8.11719 10.417 8.22355 10.417 8.33398V8.75H9.58301V8.33398C9.58301 8.22355 9.62704 8.11719 9.70508 8.03906C9.78322 7.96092 9.88949 7.91699 10 7.91699Z" fill="#FF5500" stroke="#FF5500" stroke-width="0.833333"/>
</svg>
