<svg width="16" height="16" viewBox="0 0 16 16" fill="none" xmlns="http://www.w3.org/2000/svg">
<g clip-path="url(#clip0_340_4774)" transform="rotate(-90 8 8)">
<path d="M10.0001 1.33337H4.00008C3.64646 1.33337 3.30732 1.47385 3.05727 1.7239C2.80722 1.97395 2.66675 2.31309 2.66675 2.66671V13.3334C2.66675 13.687 2.80722 14.0261 3.05727 14.2762C3.30732 14.5262 3.64646 14.6667 4.00008 14.6667H12.0001C12.3537 14.6667 12.6928 14.5262 12.9429 14.2762C13.1929 14.0261 13.3334 13.687 13.3334 13.3334V4.66671L10.0001 1.33337Z" stroke="#E55C2A" stroke-width="1.33333" stroke-linecap="round" stroke-linejoin="round"/>
<path d="M6.66626 11.9994C7.40246 11.9994 7.99927 11.4026 7.99927 10.6664C7.99927 9.93018 7.40246 9.33337 6.66626 9.33337C5.93006 9.33337 5.33325 9.93018 5.33325 10.6664C5.33325 11.4026 5.93006 11.9994 6.66626 11.9994Z" stroke="#E55C2A" stroke-width="1.33333" stroke-linecap="round" stroke-linejoin="round"/>
<path d="M10.666 6.66663L7.66675 9.66589" stroke="#E55C2A" stroke-width="1.33333" stroke-linecap="round" stroke-linejoin="round"/>
<path d="M10 7.33337L10.6665 7.99988" stroke="#E55C2A" stroke-width="1.33333" stroke-linecap="round" stroke-linejoin="round"/>
</g>
<defs>
<clipPath id="clip0_340_4774">
<rect width="16" height="16" fill="white"/>
</clipPath>
</defs>
</svg>
