<svg width="16" height="16" viewBox="0 0 16 16" fill="none" xmlns="http://www.w3.org/2000/svg">
<path d="M13.3333 4.66675H7.33325" stroke="#FF5500" stroke-width="1.33333" stroke-linecap="round" stroke-linejoin="round"/>
<path d="M9.33325 11.3333H3.33325" stroke="#FF5500" stroke-width="1.33333" stroke-linecap="round" stroke-linejoin="round"/>
<path d="M11.3328 13.3323C12.4371 13.3323 13.3323 12.4371 13.3323 11.3328C13.3323 10.2285 12.4371 9.33325 11.3328 9.33325C10.2285 9.33325 9.33325 10.2285 9.33325 11.3328C9.33325 12.4371 10.2285 13.3323 11.3328 13.3323Z" stroke="#FF5500" stroke-width="1.33333" stroke-linecap="round" stroke-linejoin="round"/>
<path d="M4.66626 6.66577C5.77056 6.66577 6.66577 5.77056 6.66577 4.66626C6.66577 3.56196 5.77056 2.66675 4.66626 2.66675C3.56196 2.66675 2.66675 3.56196 2.66675 4.66626C2.66675 5.77056 3.56196 6.66577 4.66626 6.66577Z" stroke="#FF5500" stroke-width="1.33333" stroke-linecap="round" stroke-linejoin="round"/>
</svg>
