<svg width="21" height="21" viewBox="0 0 21 21" fill="none" xmlns="http://www.w3.org/2000/svg">
<path d="M13.3 0H0V13.3H7.7V20.65H21V7.35H13.3V0ZM5.78834 3.15L3.59157 9.41938H5.075L5.43226 8.4H7.7V11.9H1.4V1.4H11.9V7.35H8.98327L7.51187 3.15H5.78834ZM7.37721 7H5.92279L6.65 4.92459L7.37721 7ZM19.6 8.75V19.25H9.1V8.75H19.6Z" fill="#FF5500"/>
<path d="M13.1875 15.071C13.3214 15.286 13.4688 15.4924 13.6288 15.6888C13.1213 15.9625 12.545 16.0995 11.8998 16.1V17.5C12.956 17.5 13.8996 17.2196 14.6998 16.6764C15.5 17.2196 16.4436 17.5 17.4998 17.5V16.1C16.856 16.1 16.2796 15.9628 15.7708 15.6884C15.9308 15.4922 16.0782 15.2859 16.2122 15.071C16.6157 14.415 16.9124 13.6991 17.0913 12.95H17.8498V11.55H15.3998V10.5H13.9998V11.55H11.5498V12.95H12.3083C12.4872 13.6991 12.7839 14.415 13.1875 15.071ZM15.6417 12.95C15.4969 13.4345 15.2895 13.8981 15.0249 14.329C14.926 14.4879 14.8175 14.6406 14.6998 14.7861C14.5908 14.6512 14.4896 14.5103 14.3966 14.3639C14.1212 13.9234 13.9063 13.4478 13.7577 12.95H15.6417Z" fill="#FF5500"/>
</svg>

