<svg width="20" height="20" viewBox="0 0 20 20" fill="none" xmlns="http://www.w3.org/2000/svg">
<path d="M9.58366 13.5253H10.417V8.81445H9.58366V13.5253ZM10.362 7.34862C10.4631 7.24751 10.5137 7.12695 10.5137 6.98695C10.5137 6.84751 10.4631 6.72723 10.362 6.62612C10.2609 6.52501 10.1403 6.47445 10.0003 6.47445C9.86033 6.47445 9.73977 6.52501 9.63866 6.62612C9.53755 6.72723 9.48699 6.84779 9.48699 6.98779C9.48699 7.12779 9.53755 7.24806 9.63866 7.34862C9.73977 7.44918 9.86033 7.49973 10.0003 7.50029C10.1403 7.50084 10.2609 7.45029 10.362 7.34862ZM10.0003 17.4686C8.32588 16.9714 6.93505 15.9572 5.82783 14.4261C4.7206 12.895 4.16699 11.1697 4.16699 9.25029V4.74362L10.0003 2.56445L15.8337 4.74362V9.25029C15.8337 11.1692 15.28 12.8942 14.1728 14.4253C13.0656 15.9564 11.6748 16.9703 10.0003 17.4686Z" fill="#FF5500"/>
</svg>
