<svg width="16" height="16" viewBox="0 0 16 16" fill="none" xmlns="http://www.w3.org/2000/svg">
<g clip-path="url(#clip0_340_4761)">
<path d="M1.72392 11.6094C1.47385 11.8593 1.33333 12.1984 1.33325 12.552V14C1.33325 14.1768 1.40349 14.3464 1.52851 14.4714C1.65354 14.5965 1.82311 14.6667 1.99992 14.6667H3.99992C4.17673 14.6667 4.3463 14.5965 4.47132 14.4714C4.59635 14.3464 4.66659 14.1768 4.66659 14V13.3334C4.66659 13.1565 4.73682 12.987 4.86185 12.862C4.98687 12.7369 5.15644 12.6667 5.33325 12.6667H5.99992C6.17673 12.6667 6.3463 12.5965 6.47132 12.4714C6.59635 12.3464 6.66658 12.1768 6.66658 12V11.3334C6.66658 11.1565 6.73682 10.987 6.86185 10.862C6.98687 10.7369 7.15644 10.6667 7.33325 10.6667H7.44792C7.80151 10.6666 8.14059 10.5261 8.39059 10.276L8.93325 9.73336C9.85981 10.0561 10.8685 10.0549 11.7942 9.72986C12.72 9.40483 13.5081 8.77525 14.0295 7.94411C14.5509 7.11297 14.7749 6.12947 14.6647 5.15452C14.5545 4.17956 14.1167 3.27086 13.4229 2.57707C12.7291 1.88328 11.8204 1.44548 10.8454 1.33528C9.87047 1.22509 8.88698 1.44902 8.05583 1.97045C7.22469 2.49188 6.59511 3.27994 6.27008 4.20571C5.94506 5.13147 5.94382 6.14014 6.26658 7.06669L1.72392 11.6094Z" stroke="#FF5500" stroke-width="1.33333" stroke-linecap="round" stroke-linejoin="round"/>
<path d="M11 5.33313C11.1841 5.33313 11.3333 5.18393 11.3333 4.99988C11.3333 4.81583 11.1841 4.66663 11 4.66663C10.816 4.66663 10.6667 4.81583 10.6667 4.99988C10.6667 5.18393 10.816 5.33313 11 5.33313Z" fill="#FF5500" stroke="#FF5500" stroke-width="1.33333" stroke-linecap="round" stroke-linejoin="round"/>
</g>
<defs>
<clipPath id="clip0_340_4761">
<rect width="16" height="16" fill="white"/>
</clipPath>
</defs>
</svg>
