<svg width="20" height="20" viewBox="0 0 20 20" fill="none" xmlns="http://www.w3.org/2000/svg">
<path d="M2.91658 16.9533H5.40408V14.5833M14.5957 5.41667V3.04667L17.0832 2.91667M12.4999 2.04833C11.0466 1.59165 9.49596 1.54205 8.01647 1.90495C6.53698 2.26784 5.18526 3.02934 4.10824 4.10667C0.853242 7.36167 0.853242 12.6383 4.10824 15.8925C4.39046 16.1758 4.68713 16.4339 4.99824 16.6667M7.49991 17.9508C8.95331 18.4077 10.5041 18.4574 11.9838 18.0945C13.4635 17.7316 14.8153 16.97 15.8924 15.8925C19.1474 12.6383 19.1474 7.36167 15.8924 4.1075C15.6096 3.82417 15.3127 3.56611 15.0016 3.33333" stroke="#FF5500" stroke-width="1.25" stroke-linecap="round" stroke-linejoin="round"/>
<path d="M10.0003 9.58268C10.5529 9.58268 11.0828 9.36319 11.4735 8.97249C11.8642 8.58179 12.0837 8.05188 12.0837 7.49935C12.0837 6.94681 11.8642 6.41691 11.4735 6.02621C11.0828 5.63551 10.5529 5.41602 10.0003 5.41602C9.44779 5.41602 8.91789 5.63551 8.52719 6.02621C8.13649 6.41691 7.91699 6.94681 7.91699 7.49935C7.91699 8.05188 8.13649 8.58179 8.52719 8.97249C8.91789 9.36319 9.44779 9.58268 10.0003 9.58268ZM10.0003 9.58268C9.11627 9.58268 8.26842 9.93387 7.6433 10.559C7.01818 11.1841 6.66699 12.032 6.66699 12.916M10.0003 9.58268C10.8844 9.58268 11.7322 9.93387 12.3573 10.559C12.9825 11.1841 13.3337 12.032 13.3337 12.916" stroke="#FF5500" stroke-width="1.25" stroke-linecap="round" stroke-linejoin="round"/>
</svg>
