<svg width="20" height="20" viewBox="0 0 20 20" fill="none" xmlns="http://www.w3.org/2000/svg">
<path d="M17.917 4.27895C18.0292 4.34375 18.1248 4.43383 18.1961 4.54204C18.2674 4.65024 18.3125 4.77359 18.3278 4.90228L18.3337 5.00062V15.8339C18.3337 15.9802 18.2951 16.1239 18.222 16.2506C18.1489 16.3773 18.0437 16.4825 17.917 16.5556C17.7903 16.6288 17.6466 16.6673 17.5003 16.6673C17.354 16.6673 17.2103 16.6288 17.0837 16.5556C16.1394 16.0104 15.0759 15.7051 13.9863 15.6664C12.8966 15.6278 11.8141 15.857 10.8337 16.3339V3.68895C11.9848 3.25896 13.2168 3.08887 14.4414 3.19087C15.666 3.29287 16.8529 3.66444 17.917 4.27895ZM9.16699 3.68978L9.16783 16.3348C8.22599 15.8763 7.18937 15.6462 6.14201 15.6631C5.09464 15.6801 4.066 15.9436 3.13949 16.4323L2.86699 16.5823L2.78116 16.6189L2.74033 16.6323L2.64866 16.6539L2.59783 16.6623L2.50033 16.6673H2.46533L2.37366 16.6573L2.30949 16.6456L2.21949 16.6189L2.11449 16.5723L2.03533 16.5256L1.96116 16.4698L1.91116 16.4231L1.85033 16.3548L1.79699 16.2806L1.77866 16.2506L1.75199 16.2006L1.71533 16.1148L1.70199 16.0739L1.68033 15.9823L1.67199 15.9314L1.66866 15.8906L1.66699 5.00062C1.667 4.85434 1.7055 4.71064 1.77864 4.58396C1.85178 4.45728 1.95698 4.35209 2.08366 4.27895C3.14786 3.66457 4.33477 3.29315 5.55936 3.19129C6.78395 3.08944 8.01591 3.25966 9.16699 3.68978Z" fill="#FF5500"/>
</svg>
