<svg width="19" height="19" viewBox="0 0 19 19" fill="none" xmlns="http://www.w3.org/2000/svg">
<path d="M17.1832 17.8337H6.5665C6.39411 17.8337 6.22878 17.7652 6.10688 17.6433C5.98499 17.5214 5.9165 17.356 5.9165 17.1837V6.56699C5.9165 6.3946 5.98499 6.22927 6.10688 6.10737C6.22878 5.98547 6.39411 5.91699 6.5665 5.91699H17.1832C17.3556 5.91699 17.5209 5.98547 17.6428 6.10737C17.7647 6.22927 17.8332 6.3946 17.8332 6.56699V17.1837C17.8332 17.356 17.7647 17.5214 17.6428 17.6433C17.5209 17.7652 17.3556 17.8337 17.1832 17.8337Z" stroke="#484848" stroke-linecap="round" stroke-linejoin="round"/>
<path d="M12.4167 5.91667V1.15C12.4167 0.977609 12.3482 0.812279 12.2263 0.690381C12.1044 0.568482 11.9391 0.5 11.7667 0.5H1.15C0.977609 0.5 0.812279 0.568482 0.690381 0.690381C0.568482 0.812279 0.5 0.977609 0.5 1.15V11.7667C0.5 11.9391 0.568482 12.1044 0.690381 12.2263C0.812279 12.3482 0.977609 12.4167 1.15 12.4167H5.91667" stroke="#484848" stroke-linecap="round" stroke-linejoin="round"/>
</svg>
