<svg width="15" height="15" viewBox="0 0 15 15" fill="none" xmlns="http://www.w3.org/2000/svg">
<path d="M2.5 3.375C2.5 2.88875 2.88875 2.5 3.375 2.5H7.875C8.36125 2.5 8.75 2.88875 8.75 3.375V3.75C8.75 3.83208 8.76617 3.91335 8.79758 3.98918C8.82899 4.06501 8.87502 4.13391 8.93306 4.19194C8.9911 4.24998 9.06 4.29602 9.13583 4.32743C9.21165 4.35884 9.29293 4.375 9.375 4.375C9.45708 4.375 9.53835 4.35884 9.61418 4.32743C9.69001 4.29602 9.75891 4.24998 9.81694 4.19194C9.87498 4.13391 9.92102 4.06501 9.95243 3.98918C9.98384 3.91335 10 3.83208 10 3.75V3.375C10 2.19875 9.05125 1.25 7.875 1.25H3.375C3.09581 1.24951 2.81926 1.30414 2.56122 1.41075C2.30318 1.51737 2.06872 1.67388 1.8713 1.8713C1.67388 2.06872 1.51737 2.30318 1.41075 2.56122C1.30414 2.81926 1.24951 3.09581 1.25 3.375V7.875C1.25 9.05125 2.19875 10 3.375 10H3.75C3.91576 10 4.07473 9.93415 4.19194 9.81694C4.30915 9.69973 4.375 9.54076 4.375 9.375C4.375 9.20924 4.30915 9.05027 4.19194 8.93306C4.07473 8.81585 3.91576 8.75 3.75 8.75H3.375C2.88875 8.75 2.5 8.36125 2.5 7.875V3.375Z" fill="#484848"/>
<path d="M5.625 7.125C5.625 6.72717 5.78304 6.34564 6.06434 6.06434C6.34564 5.78304 6.72717 5.625 7.125 5.625H11.625C12.0228 5.625 12.4044 5.78304 12.6857 6.06434C12.967 6.34564 13.125 6.72717 13.125 7.125V11.625C13.125 12.0228 12.967 12.4044 12.6857 12.6857C12.4044 12.967 12.0228 13.125 11.625 13.125H7.125C6.72717 13.125 6.34564 12.967 6.06434 12.6857C5.78304 12.4044 5.625 12.0228 5.625 11.625V7.125Z" fill="#484848"/>
</svg>
