<svg width="95" height="78" viewBox="0 0 95 78" fill="none" xmlns="http://www.w3.org/2000/svg">
<path d="M82.7861 53.8398C76.255 53.8398 70.9595 59.1974 70.9595 65.8044C70.9595 72.4114 76.255 77.7686 82.7861 77.7686C89.3169 77.7686 94.6127 72.4114 94.6127 65.8044C94.6127 59.1974 89.3169 53.8398 82.7861 53.8398Z" fill="#FF5500"/>
<path d="M23.6531 77.7685H0V29.911C0 13.4201 13.2655 0 29.5664 0C45.8674 0 59.1329 13.4201 59.1329 29.911V47.8576H35.4796V29.911C35.4796 26.6142 32.8252 23.9288 29.5664 23.9288C26.3076 23.9288 23.6531 26.6142 23.6531 29.911V77.7685Z" fill="#FF5500"/>
<path d="M59.1328 77.7685H35.4795V29.911C35.4795 13.4201 48.745 0 65.0459 0C81.3469 0 94.6124 13.4201 94.6124 29.911V47.8576H70.9591V29.911C70.9591 26.6142 68.3047 23.9288 65.0459 23.9288C61.7871 23.9288 59.1328 26.6142 59.1328 29.911V77.7685Z" fill="#FF5500"/>
</svg>
