<svg width="160" height="160" viewBox="0 0 160 160" fill="none" xmlns="http://www.w3.org/2000/svg">
<rect x="13" y="13" width="133" height="133" rx="40" fill="#D9D9D9"/>
<rect x="13" y="13" width="133" height="133" rx="40" fill="#F9D4BF"/>
<rect x="7" y="7" width="133" height="133" rx="40" stroke="black" stroke-width="2" stroke-linecap="round" stroke-linejoin="round"/>
<path d="M81.6673 60.3333C81.6673 63.2789 75.1009 65.6667 67.0007 65.6667C58.9005 65.6667 52.334 63.2789 52.334 60.3333M81.6673 60.3333C81.6673 57.3878 75.1009 55 67.0007 55C58.9005 55 52.334 57.3878 52.334 60.3333M81.6673 60.3333V72.2191C78.41 73.1973 76.334 74.6771 76.334 76.3333M52.334 60.3333V92.3333C52.334 95.2789 58.9005 97.6667 67.0007 97.6667C70.5463 97.6667 73.7982 97.2091 76.334 96.4477V76.3333M76.334 76.3333C76.334 79.2789 82.9004 81.6667 91.0006 81.6667C99.1009 81.6667 105.667 79.2789 105.667 76.3333M76.334 76.3333C76.334 73.3878 82.9004 71 91.0006 71C99.1009 71 105.667 73.3878 105.667 76.3333M76.334 76.3333V97.6667C76.334 100.612 82.9004 103 91.0006 103C99.1009 103 105.667 100.612 105.667 97.6667V76.3333M52.334 71C52.334 73.9456 58.9005 76.3333 67.0007 76.3333C70.5463 76.3333 73.7982 75.8757 76.334 75.1144M52.334 81.6667C52.334 84.6123 58.9005 87 67.0007 87C70.5463 87 73.7982 86.5424 76.334 85.7811M105.667 87C105.667 89.9456 99.1009 92.3333 91.0006 92.3333C82.9004 92.3333 76.334 89.9456 76.334 87" stroke="black" stroke-width="2" stroke-linecap="round" stroke-linejoin="round"/>
</svg>
