<svg width="14" height="14" viewBox="0 0 14 14" fill="none" xmlns="http://www.w3.org/2000/svg">
<path fill-rule="evenodd" clip-rule="evenodd" d="M14 1.86667V12.1333C14 12.6284 13.8033 13.1032 13.4533 13.4533C13.1032 13.8033 12.6284 14 12.1333 14L1.86667 14C1.3716 14 0.896802 13.8033 0.546734 13.4533C0.196666 13.1032 0 12.6284 0 12.1333V1.86667C0 1.3716 0.196666 0.896801 0.546734 0.546734C0.896802 0.196666 1.3716 -5.52005e-07 1.86667 -5.30365e-07L12.1333 -8.15946e-08C12.3785 -7.08794e-08 12.6212 0.0482828 12.8477 0.142092C13.0742 0.2359 13.2799 0.373398 13.4533 0.546734C13.8033 0.896802 14 1.3716 14 1.86667ZM9.56122 8.71656C9.70791 8.85823 9.90438 8.93663 10.1083 8.93486C10.3122 8.93309 10.5073 8.85129 10.6515 8.70708C10.7957 8.56288 10.8775 8.3678 10.8793 8.16387C10.8811 7.95994 10.8027 7.76347 10.661 7.61678L7.54989 4.50567C7.40403 4.35986 7.20624 4.27794 7 4.27794C6.79376 4.27794 6.59597 4.35986 6.45011 4.50567L3.339 7.61678C3.19732 7.76347 3.11893 7.95994 3.1207 8.16387C3.12247 8.3678 3.20427 8.56288 3.34847 8.70708C3.49268 8.85129 3.68776 8.93309 3.89169 8.93486C4.09562 8.93663 4.29209 8.85823 4.43878 8.71656L7 6.15533L9.56122 8.71656Z" fill="#1A9C52"/>
</svg>
