<svg width="156" height="155" viewBox="0 0 156 155" fill="none" xmlns="http://www.w3.org/2000/svg">
<path d="M49.1032 36.6181C48.9458 34.3808 50.7743 32.5067 53.0147 32.6088L87.8261 34.1958C89.7471 34.2834 91.2905 35.8099 91.3993 37.7298L92.5804 58.571C92.697 60.6292 91.1304 62.3957 89.073 62.5257L54.8108 64.6917C52.7542 64.8217 50.9781 63.2679 50.8335 61.2123L49.1032 36.6181Z" fill="#D44B00"/>
<path d="M52.8026 41.812C53.1497 42.8838 53.1872 44.995 53.208 46.1564C53.2085 46.1777 53.209 46.1989 53.2095 46.2202C53.2145 46.4959 53.229 46.7559 53.2463 47.0605C53.2877 47.7869 53.3435 48.7683 53.3151 50.8268C53.3634 51.4218 53.4087 52.017 53.4506 52.6124C53.647 55.4039 53.801 58.1983 53.9274 60.9946C53.887 61.3322 54.182 61.7424 54.6266 61.7783C56.32 61.7328 58.0139 61.6937 59.7079 61.6576C59.789 61.6511 59.8716 61.6444 59.955 61.6377C61.5668 61.5078 63.5653 61.3468 64.8287 61.366C66.4349 61.3904 67.5278 61.4382 68.4257 61.4824C73.5491 61.376 78.6711 61.2466 83.7858 61.0037C85.3888 60.9275 86.9914 60.84 88.5928 60.7387C88.7147 60.731 88.8366 60.7233 88.9585 60.7154C89.6645 60.6778 90.3123 60.2097 90.5806 59.5671C90.6725 59.2591 90.6693 58.9562 90.6054 58.6829C90.5749 58.4674 90.5446 58.256 90.5151 58.049C90.3637 56.9898 90.2291 56.0468 90.1583 55.2655C89.9879 53.3833 89.967 51.2383 89.9515 49.6455C89.949 49.3852 89.9467 49.1394 89.9438 48.9121C89.8354 47.6525 89.7243 46.3928 89.6124 45.1334C89.6301 45.0479 89.6487 44.9617 89.6679 44.874C89.9068 43.7802 89.8279 42.4567 89.7042 40.3734C89.6602 39.6313 89.6105 38.7926 89.5674 37.8336C89.5636 37.7227 89.5511 37.6106 89.5285 37.4973C89.443 37.1019 89.4138 36.8646 89.3791 36.6483C89.3678 36.5857 89.354 36.5265 89.3334 36.4702C89.2615 36.2761 89.0426 36.1861 88.8015 36.1444C88.476 36.0886 88.1678 36.1051 87.7461 35.9497C87.7452 35.9495 87.7442 35.9493 87.7433 35.9491C85.1463 35.4067 83.9804 35.6412 83.0985 35.8186C82.8398 35.8706 82.6053 35.9176 82.3665 35.9387C81.592 36.0073 80.5001 35.8546 79.6777 35.6759C79.0256 35.5341 77.7057 35.585 76.7022 35.6805C76.3227 35.7166 75.8127 35.6947 75.2121 35.6686C74.5906 35.6416 73.8715 35.61 73.0995 35.6347C71.1487 35.6972 70.1123 35.7234 69.2791 35.7441C69.0416 35.75 68.8204 35.7552 68.5993 35.761C67.9009 35.7794 67.035 35.7814 66.1584 35.7832C65.1093 35.7854 64.0446 35.7876 63.2332 35.8183C61.1413 35.6513 59.0499 35.4672 56.959 35.2834C55.885 35.1885 54.8642 34.8832 54.1227 34.4227C53.3813 33.962 52.9793 33.3869 53.0055 32.8111C53.0317 32.2353 53.4845 31.6993 54.2647 31.3079C55.045 30.9168 56.0893 30.7052 57.1676 30.7084C59.3396 30.7158 61.512 30.7232 63.6834 30.7493C66.3285 30.781 68.9725 30.8403 71.6135 30.9607C73.461 31.0449 75.3079 31.1429 77.1543 31.2518C77.3444 31.263 77.5345 31.2745 77.7246 31.2859C79.2832 31.2149 80.8382 31.1566 81.9317 31.1603C82.8346 31.1635 83.4882 31.2691 84.0479 31.3595C84.433 31.4217 84.7739 31.4767 85.1208 31.4862C85.3071 31.4913 85.5619 31.4942 85.869 31.4977C86.4221 31.5039 87.1454 31.5121 87.9472 31.5388C89.6829 31.5729 91.6159 32.5416 92.6603 34.0604C93.348 35.0109 93.78 36.328 93.7481 37.5967C93.7364 37.7845 93.7244 37.9719 93.7126 38.1577C93.6248 39.5316 93.543 40.8127 93.6267 41.4524C93.7737 42.5756 93.7767 43.8733 93.7792 45.0198C93.7816 46.1135 93.7838 47.07 93.9104 47.6069C94.0617 48.2484 94.0463 48.8037 94.0237 49.6292C94.0081 50.2018 93.9891 50.9044 94.0194 51.8563C94.0544 52.9551 94.0181 53.736 93.9873 54.3998C93.9438 55.3339 93.9112 56.0368 94.1031 57.0707C94.1894 57.5354 94.2673 58.0092 94.3301 58.4719C94.446 59.4691 94.2247 60.4753 93.8265 61.215C93.5269 61.7835 93.1029 62.3916 92.5374 62.9055C91.7973 63.5907 90.79 64.0809 89.8282 64.1947C89.6014 64.2233 89.3855 64.2299 89.1801 64.221C88.8272 64.1889 88.5142 64.1314 88.2279 64.0788C88.1026 64.0557 87.9823 64.0338 87.8661 64.0152C87.4355 64.0438 87.0051 64.0731 86.5747 64.1037C86.5061 64.126 86.4341 64.1506 86.3588 64.176C85.9815 64.3033 85.5174 64.4596 84.9371 64.5595C84.0185 64.7177 83.203 64.7066 82.3427 64.6944C81.6729 64.685 80.9759 64.675 80.1821 64.7445C79.6408 64.792 79.0264 64.8766 78.4173 64.9605C77.5127 65.0852 76.6194 65.208 75.9932 65.2054C75.7585 65.2044 75.5532 65.147 75.3501 65.0898C75.3492 65.0894 75.3483 65.0891 75.3473 65.0887C75.3336 65.0848 75.3197 65.081 75.3059 65.0772C73.7907 65.2266 72.2756 65.3815 70.7609 65.5396C70.6304 65.5659 70.4985 65.5921 70.3678 65.618C69.7293 65.7442 69.1088 65.8668 68.7083 66.0106C68.2742 66.1664 67.1673 66.311 66.0008 66.4634C65.2369 66.5632 64.4471 66.6664 63.8041 66.7782C63.4282 66.8436 63.0645 66.794 62.6904 66.7429C62.3413 66.6952 61.9829 66.6462 61.5972 66.6883C61.4039 66.7094 61.1965 66.7525 60.9752 66.7987C60.7804 66.8393 60.5743 66.8823 60.3578 66.9143C60.1566 66.9441 59.7037 66.9332 59.123 66.9196C58.7641 66.9112 58.3564 66.9019 57.9289 66.9001C56.9426 67.0021 55.956 67.1028 54.9694 67.2012C54.7432 67.2205 54.5159 67.2276 54.2878 67.2222C53.8922 67.2681 53.5354 67.297 53.2377 67.3428C53.0242 67.3756 52.8312 67.4194 52.6285 67.4557C52.3522 67.504 52.056 67.5414 51.6698 67.4845C51.3681 67.4407 51.0393 67.3019 50.8563 67.1513C50.7707 67.0815 50.7161 67.0116 50.6676 66.9481C50.6121 66.8751 50.5643 66.8099 50.4876 66.757C50.4324 66.7188 50.3629 66.6955 50.2779 66.6645C50.1426 66.6149 49.964 66.5461 49.7548 66.3632C48.9757 65.6867 48.2715 64.7039 47.8652 63.6224C47.5882 62.8992 47.4411 62.144 47.3974 61.454C47.3829 61.2157 47.3662 60.991 47.3454 60.7873C47.2867 60.2115 47.3094 59.3836 47.3318 58.5542C47.3474 57.9757 47.3627 57.3963 47.3508 56.901C47.3392 56.4157 47.2592 55.9151 47.1814 55.4303C47.088 54.8484 46.9979 54.2887 47.0349 53.8051C47.0425 53.7073 47.1214 53.581 47.22 53.4225C47.2899 53.3102 47.3698 53.1809 47.4416 53.0352C47.3988 52.4259 47.3595 51.8163 47.3233 51.2066C47.3099 51.186 47.2963 51.1647 47.2824 51.1434C47.2821 51.143 47.2818 51.1427 47.2815 51.1424C46.9683 50.6615 46.54 50.0035 46.6991 49.0254C46.7395 48.7768 46.8352 48.6154 46.9213 48.4699C47.0058 48.3271 47.0815 48.1994 47.0866 48.02C47.0925 47.8161 47.0179 47.5812 46.9367 47.3251C46.8227 46.9656 46.6954 46.5639 46.7583 46.1474C46.7626 46.119 46.7674 46.0884 46.772 46.0566C46.8164 45.7548 46.8821 45.3081 47.0457 44.8566C47.0062 43.5541 46.9756 42.2508 46.9505 40.9473C46.9238 39.5566 46.9035 38.1654 46.8854 36.7741C46.8384 35.5391 47.1992 34.2821 47.8828 33.2773C48.8013 31.8841 50.4286 31.274 51.5103 31.4462C52.6195 31.6079 53.0407 32.2637 53.0055 32.8111C52.9738 33.3765 52.5792 33.8965 52.3152 34.4139C52.0376 34.9302 51.9042 35.3643 51.7725 35.6948C51.6719 35.945 51.6633 36.1906 51.7247 36.4336C51.8445 37.3682 51.9632 38.3028 52.0796 39.2375C52.0977 39.3267 52.1154 39.4164 52.1323 39.5056C52.2585 40.1696 52.461 40.7798 52.6637 41.3903C52.7102 41.5305 52.7569 41.671 52.8026 41.812Z" fill="#D44B00"/>
<path d="M85.9592 103.172L48.827 147.252C47.4574 148.878 48.6132 151.363 50.739 151.363H103.554C109.305 151.363 114.763 148.825 118.468 144.426L150.796 106.05C151.754 104.912 150.945 103.172 149.457 103.172H85.9592Z" fill="#D44B00"/>
<path d="M51.6673 148.605C51.6527 148.428 51.5645 148.247 51.3743 148.101C51.1905 147.951 50.8812 147.89 50.739 147.933C51.2137 147.962 51.6724 147.999 52.0915 148.039C52.5302 148.08 52.308 148.266 52.6109 148.303C53.2032 148.375 53.7551 148.284 54.3404 148.37C54.5344 148.399 54.2929 148.693 54.4964 148.717C55.611 148.847 56.6656 148.772 57.7947 148.835C63.3567 149.143 68.824 149.253 74.454 149.387C76.3103 149.431 78.567 149.698 80.4844 149.581C80.7082 149.567 80.5748 149.309 80.6174 149.288C81.2853 148.963 81.0632 149.483 81.4994 149.553C83.2303 149.826 85.1551 149.849 86.8209 149.75C87.5296 149.707 86.8191 149.194 87.5326 149.482C87.5822 149.501 87.4024 149.775 87.5967 149.805C88.0375 149.87 88.8737 149.821 89.2153 149.843C89.8736 149.886 89.9826 149.884 90.6053 149.887C91.4565 149.893 92.469 150.029 93.3823 149.967C93.5772 149.953 93.3191 149.673 93.63 149.625C93.9412 149.577 94.7645 149.601 95.042 149.667C95.3196 149.733 95.2014 149.954 95.2505 150.005C95.6547 150.432 96.607 149.84 96.7294 149.826C98.9634 149.576 100.879 149.913 102.976 149.912C103.167 149.912 103.36 149.91 103.554 149.907C104.871 149.888 106.22 149.647 107.419 149.394C109.039 149.05 110.437 148.7 111.877 147.933C112.027 147.852 111.698 147.652 111.879 147.552C113.794 146.491 115.519 145.168 117.132 143.652C117.294 143.499 117.326 143.906 117.502 143.762C117.532 143.738 117.561 143.713 117.592 143.688C118.728 142.723 120.547 141.353 120.153 139.914C120.831 139.186 121.647 138.297 122.414 137.781C122.908 137.448 122.791 138.078 123.142 137.452C123.221 137.312 122.877 137.291 123.012 137.094C123.58 136.262 124.354 135.482 124.884 134.632C124.991 134.459 124.766 134.341 124.768 134.269C124.802 133.669 125.773 133.442 125.919 133.337C127.022 132.53 127.549 131.707 128.351 130.766C128.538 130.548 128.064 130.593 128.235 130.375C129.121 129.25 130.098 128.134 131.114 127.157C131.341 126.94 131.373 127.342 131.492 127.247C132.016 126.83 131.701 126.373 132.195 125.966C132.299 125.879 132.436 126.093 132.472 126.092C133.037 126.071 132.796 125.437 132.848 125.354C133.507 124.295 134.488 124.09 135.189 123.122C135.273 123.006 134.831 123.054 135.079 122.739C136.735 120.642 138.62 118.536 140.511 116.672C140.805 116.382 140.792 116.755 140.831 116.754C141.442 116.717 141.162 116.125 141.232 116.008C141.789 115.096 142.808 114.662 142.728 113.655C145.257 110.968 147.443 108.01 150.003 105.382C150.267 105.164 150.4 104.774 150.223 104.337C150.208 104.305 150.483 104.181 150.444 104.109C150.236 103.763 149.977 103.711 149.824 103.76C149.664 103.812 149.559 103.963 149.457 104.153C149.344 104.259 149.204 104.374 149.011 104.494C148.785 104.634 148.097 103.961 148.036 103.911C147.815 103.73 148.045 103.293 147.97 103.258C147.356 102.982 147.456 104.425 146.627 104.425C146.601 104.423 146.71 104.157 146.641 104.131C146.425 104.048 146.21 104.153 145.999 104.062C145.515 103.85 145.342 103.149 144.603 103.557C144.51 103.61 144.653 104.429 143.913 104.39C143.618 104.374 142.312 104.388 141.946 104.335C141.58 104.282 141.831 104.018 141.805 104.007C140.82 103.658 141.194 103.513 140.7 102.997C140.207 102.483 140.344 103.71 140.143 103.846C139.941 103.983 139.219 103.695 139.041 103.595C138.864 103.495 139.085 103.328 138.928 103.271C137.882 102.901 138.469 103.88 138.124 104.075C137.312 104.536 136.679 103.626 135.935 103.537C135.734 103.513 135.898 103.72 135.719 103.739C135.01 103.813 134.583 103.529 133.775 103.79C133.643 103.832 132.991 104.379 132.568 103.978C132.508 103.92 132.678 103.693 132.376 103.642C131.924 103.566 131.11 103.517 130.624 103.592C130.266 103.648 130.677 104.022 130.225 103.906C130.025 103.854 130.397 103.636 130.02 103.556C129.645 103.477 128.687 103.487 128.322 103.494C127.958 103.502 128.157 103.786 128.128 103.805C127.95 103.914 127.251 104.051 127.189 104.05C124.075 104.085 121.203 103.607 118.171 103.765C117.933 103.777 118.092 104.076 118.056 104.081C117.241 104.206 117.883 103.412 117.314 103.146C117.396 103.752 117.061 103.642 116.487 103.709C116.21 103.741 116.361 103.976 116.336 104C115.926 104.357 115.64 103.896 115.566 103.802C115.295 103.455 114.999 103.865 114.815 103.633C114.63 103.403 115.055 103.062 114.505 103.067C114.35 103.284 114.759 103.851 114.341 103.943C112.765 104.291 109.822 103.846 108.555 103.799C107.29 103.753 106.881 103.793 106.144 103.715C104.812 103.573 105.3 103.994 104.474 104.187C103.645 104.379 104.048 103.344 103.928 103.121C103.811 102.899 103.684 103.128 103.538 103.005C103.393 102.883 103.707 102.732 103.366 102.686C103.025 102.64 102.091 103.036 101.97 103.268C101.714 103.762 102.135 104.279 101.232 104.097C101.18 104.086 101.348 103.814 101.149 103.787C99.5696 103.577 97.9282 103.564 96.3502 103.379C96.1332 103.353 96.3272 103.05 96.201 103.031C94.8857 102.838 95.3559 103.348 94.635 103.916C94.7969 103.161 94.3983 102.699 93.4 102.694C92.8 102.691 92.9033 103.021 92.5152 103.253C92.3987 103.324 91.9742 103.097 91.8972 103.252C91.6435 103.759 92.0434 104.327 91.0143 104.101C90.9691 104.09 91.1129 103.812 90.9569 103.796C89.9484 103.686 89.8277 104.216 88.7376 104.28C88.0362 104.322 86.8867 104.111 85.9592 104.005L86.5962 103.709C86.448 103.849 86.3105 103.984 86.191 104.111C85.5549 103.549 85.1115 104.377 85.319 105.039C84.8938 105.507 84.4798 106.05 84.0247 106.464C83.8683 106.607 83.7692 106.343 83.7318 106.346C83.1515 106.389 83.4102 106.965 83.3395 107.084C82.5538 108.354 81.4483 108.996 80.8627 110.346C80.842 110.394 81.2408 110.836 80.6687 110.847C80.6303 110.846 80.7251 110.317 80.282 110.811C79.8387 111.305 78.7914 112.058 78.4072 112.938C78.3139 113.151 78.3169 113.89 77.7395 113.995C77.6618 114.008 77.5749 113.849 77.4469 113.855C77.0364 113.877 77.3933 114.378 76.7931 114.305C76.1929 114.231 75.4599 114.513 75.1288 115.448C75.1175 115.477 75.3372 115.95 75.1434 116.168C74.8336 116.517 74.332 116.96 74.0207 117.334C73.8718 117.513 74.1923 117.588 74.1703 117.623C73.2864 118.927 72.3679 119.612 71.1995 120.822C70.9849 121.044 70.721 121.978 70.0953 122.23C69.4091 122.507 68.7408 121.065 68.0344 122.436C67.7486 122.989 68.6513 124.753 67.2252 124.977C66.0427 126.744 64.4128 127.927 63.3033 129.764C63.2533 129.847 63.4491 130.406 63.2994 130.573C63.0764 130.82 62.7765 130.806 62.6115 130.977C61.9153 131.693 61.4844 132.521 60.8418 133.234C60.5982 133.505 60.4919 133.249 60.2013 133.573C59.9112 133.896 59.9728 134.327 59.4737 134.676C59.096 134.939 58.3024 134.851 57.8632 135.253C58.349 135.691 58.0777 135.993 57.7458 136.655C57.6822 136.782 57.952 136.815 57.9309 136.883C57.849 137.163 57.5457 137.23 57.4804 137.506C57.4642 137.573 57.6332 137.719 57.6296 137.781C57.6055 138.321 56.7669 138.536 56.622 138.572C56.0688 138.713 56.1513 139.066 55.8219 139.254C55.4928 139.442 55.7101 138.93 55.3819 139.196C54.7019 139.749 54.0171 140.618 53.4462 141.279C53.2195 141.544 53.6009 141.554 53.5737 141.597C53.167 142.197 52.4546 142.55 52.6514 143.239C51.1545 142.632 52.4852 143.667 51.586 144.258C51.5146 144.304 50.8925 143.915 51.0118 143.608C51.1311 143.301 51.6093 143.085 51.7608 142.647C51.7969 142.544 51.6543 141.657 51.6743 141.569C51.8318 140.882 52.7192 141.513 52.7862 141.526C53.5207 141.653 53.4217 140.632 53.5046 140.455C53.8834 139.645 54.4729 139.182 54.8115 138.523C55.034 138.093 54.52 137.599 54.7756 137.33C55.6251 136.433 56.6611 136.743 56.752 135.3C56.7723 134.991 56.0184 134.68 57.061 134.391C57.1266 134.373 57.9812 134.226 57.9575 133.705C57.9544 133.639 57.7802 133.495 57.8065 133.434C57.9863 133.03 58.307 132.929 58.5393 132.519C58.7716 132.109 59.0318 131.6 59.4312 131.245C59.6716 131.031 60.2578 130.99 60.4351 130.94C60.9402 130.803 60.8645 130.135 61.3121 130.163C61.7625 130.191 61.8442 130.947 62.4778 130.558C62.0446 130.159 61.6214 129.724 61.1959 129.311C62.208 128.142 63.3338 127.101 64.3135 125.897C64.4345 125.748 64.0658 125.694 64.1893 125.529C64.7114 124.831 65.3734 124.395 65.886 123.647C66.2818 123.067 66.5191 122.266 66.925 121.653C67.7274 121.746 68.2507 120.77 68.8049 120.207C68.9988 120.01 69.1245 120.14 69.2957 120.028C69.9383 119.602 69.2599 119.484 69.3189 119.268C69.5739 118.345 70.6519 119.156 71.2874 118.35C71.3214 118.307 71.2004 117.337 71.2252 117.238C71.3768 116.605 71.4783 117.325 71.7533 117.081C72.2555 116.636 72.684 116.393 73.0254 115.661C73.1242 115.447 73.1333 114.742 73.6823 114.627C73.7544 114.612 73.9152 114.79 73.956 114.763C74.6782 114.265 74.1223 113.768 74.2406 113.235C74.359 112.703 75.2338 112.463 75.4452 112.443C75.9948 112.386 75.3743 112.781 75.3892 112.822C75.569 113.304 75.8609 112.838 76.158 112.544C76.7559 112.969 77.0973 112.496 76.4637 112.237C76.3939 112.21 76.2374 112.502 76.158 112.544C75.8448 111.803 76.1866 111.254 77.1544 111.146C77.6077 111.095 77.6864 111.57 78.2311 110.716C78.4786 110.328 77.9801 110.138 78.1343 109.742C78.487 108.838 79.6156 108.227 80.1695 107.454C80.3706 107.174 79.944 107.253 80.0741 107.055C80.4188 106.53 80.9313 106.242 81.2539 105.695C81.2829 105.645 80.9729 105.565 81.0956 105.414C82.0215 104.263 82.9913 103.398 83.9886 102.222C84.0909 102.102 84.2047 101.956 84.3254 101.796L85.026 101.01L85.9592 101.036C86.7017 100.997 87.6571 100.903 88.265 100.928C89.6026 100.982 91.2481 101.402 92.3908 101.3C93.1361 101.234 92.9726 100.946 93.292 100.749C93.9082 100.368 94.999 101.051 95.1458 101.157C95.1503 101.16 94.509 101.228 94.8512 101.376C95.0502 101.685 95.1386 101.158 95.1458 101.157C95.2423 101.225 96.5234 101.29 96.7778 101.235C96.916 101.205 96.8387 100.932 96.9108 100.921C98.6239 100.677 100.34 100.607 102.077 100.735C102.108 100.74 102.062 101.046 102.134 101.055C103.14 101.191 103.784 100.817 104.613 100.595C105.443 100.373 106.101 100.448 106.592 100.972C107.217 100.906 108.115 101.138 108.632 101.279C109.149 101.42 109.221 100.825 109.266 100.813C110.684 100.436 111.504 100.777 112.975 100.83C113.674 100.856 115.062 100.77 115.819 100.705C116.417 100.653 116.778 100.792 117.329 100.703C117.404 100.691 117.329 100.426 117.351 100.416C117.967 100.099 117.671 100.746 117.798 100.862C118.259 101.283 118.544 101.507 119.332 101.309C119.513 101.264 120.043 100.331 120.374 100.276C120.805 100.207 120.643 100.542 121.094 100.461C121.132 100.454 121.124 100.248 121.403 100.257C122.695 100.296 124.104 100.416 125.447 100.396C125.631 100.394 125.395 100.066 125.661 100.058C126.904 100.019 128.268 100.031 129.479 100.185C129.778 100.223 129.591 100.452 129.655 100.52C130.053 100.932 130.616 100.334 130.709 100.323C132.928 100.035 134.626 100.576 136.887 100.319C137.01 100.304 137.958 99.6626 138.38 100.212C138.409 100.249 138.828 100.811 139.197 100.427C139.22 100.403 138.96 100.113 139.415 100.143C139.869 100.172 140.601 99.9788 141.226 100.297C141.424 100.397 141.892 100.958 142.482 100.511C142.521 100.48 143.432 99.4684 143.758 100.166C143.81 100.281 143.755 101.019 144.46 100.641C144.594 100.567 144.35 100.403 144.705 100.3C145.248 100.141 145.968 100.339 146.636 100.01C146.752 99.952 147.248 99.4509 147.646 99.8312C147.708 99.8908 147.59 100.137 147.8 100.165C148.343 100.237 148.899 100.221 149.457 100.219C150.657 100.195 152.009 100.764 152.785 101.715C153.348 102.468 152.765 102.341 153.097 103.136C153.46 103.938 153.44 105.657 153.145 106.548C152.874 107.421 153.946 106.903 153.197 108.073C153.189 108.085 153.181 108.098 153.171 108.111C151.696 110.206 149.781 111.9 148.097 113.814C147.848 114.098 148.223 114.005 147.868 114.434C146.557 116.016 144.435 118.865 142.918 119.918C141.702 120.761 142.634 119.196 141.811 119.93C141.414 120.284 141.612 121.195 141.548 121.308C140.928 122.41 140.122 122.859 139.479 123.779C139.346 123.968 139.721 123.988 139.605 124.148C139.212 124.694 138.656 125.148 138.262 125.654C138.085 125.881 138.294 125.988 138.11 126.179C137.672 126.638 137.237 127.004 136.676 127.339C136.625 127.369 136.652 126.896 136.342 127.247C135.841 127.817 135.072 128.401 134.677 129.208C134.561 129.449 134.954 129.793 134.319 129.986C134.186 130.027 133.802 129.509 133.799 130.354C133.798 130.495 133.656 131.799 132.951 131.904C132.765 131.932 132.141 131.877 132.002 132.167C131.985 132.207 132.308 132.259 132.163 132.474C131.647 133.228 131.01 133.938 130.476 134.709C130.333 134.915 130.795 134.818 130.576 135.119C129.973 135.948 129.094 136.877 128.381 137.583C128.117 137.843 128.097 137.493 128.06 137.497C127.457 137.552 127.732 138.118 127.665 138.249C127.245 139.059 126.602 139.403 126.128 140.077C125.997 140.262 126.31 140.316 126.299 140.366C126.181 140.878 126.029 140.294 125.797 140.486C125.145 141.021 124.566 141.742 124.053 142.405C123.865 142.649 124.331 142.589 124.159 142.806C123.153 144.085 122.041 145.359 120.886 146.463C120.878 146.47 120.871 146.477 120.863 146.484C120.611 146.729 120.568 146.402 120.479 146.421C119.867 146.537 119.769 147.418 119.682 147.577C119.308 148.286 118.937 148.337 118.46 148.815C116.131 151.203 112.3 153.026 109.256 153.672C107.219 154.141 105.364 154.253 103.554 154.191C102.06 154.129 100.579 154.09 98.9516 154.119C98.7387 154.122 98.9534 154.448 98.7699 154.455C96.4002 154.534 94.0673 154.406 91.6929 154.5C91.4981 154.508 91.7789 154.816 91.4662 154.838C90.8247 154.885 90.0122 154.868 89.3636 154.77C89.0472 154.722 89.4716 154.457 89.1531 154.415C88.4117 154.316 87.617 154.294 86.8554 154.343C86.5313 154.365 87.0203 154.681 86.599 154.684C83.7295 154.715 80.9113 154.77 78.0116 154.361C77.8128 154.333 77.6384 153.692 77.2157 153.815C77.1838 153.993 77.1856 154.202 77.1717 154.392C72.9944 154.495 68.8598 154.273 64.6708 154.238C64.4942 154.237 64.7994 154.577 64.4575 154.576C62.4784 154.571 60.5566 154.665 58.5323 154.327C58.3314 154.294 58.4345 153.696 57.8426 153.787C57.7382 153.803 56.8467 153.883 56.6162 154.013C56.5849 154.032 56.7475 154.311 56.4603 154.319C54.7909 154.362 53.0415 154.298 51.375 154.127C51.106 154.099 51.3924 153.802 51.2009 153.78C51.0483 153.762 50.8942 153.749 50.739 153.74C48.3504 153.799 45.9531 151.597 46.0471 149.36C46.0659 148.531 46.3271 148.302 46.5504 148.191C46.7876 148.084 47.0417 148.062 47.3776 147.819C47.4532 147.742 47.7898 147.068 48.0694 147.212C48.7217 147.563 49.3166 148.146 50.0369 148.477C50.1803 148.555 50.1654 148.28 50.4133 148.628C50.4238 148.656 50.501 148.797 50.6374 148.839C50.7288 148.869 51 148.998 51.1269 149.01C51.2582 149.004 51.0247 148.912 51.1708 148.874C51.3144 148.817 51.6739 148.835 51.6673 148.605ZM110.958 101.909C111.437 102.194 111.508 101.147 110.99 101.398C110.965 101.411 110.934 101.894 110.958 101.909ZM63.9321 127.616C64.6882 127.435 64.4447 126.67 63.8877 126.778C63.331 126.886 63.7023 127.671 63.9321 127.616ZM60.0114 132.793C60.7607 132.469 59.6996 131.425 59.4247 132.217C59.4083 132.262 59.9677 132.813 60.0114 132.793ZM47.8741 150.639C47.8727 150.627 47.6499 150.164 47.6409 150.154C47.1989 150.014 47.6845 151.038 47.8741 150.639ZM56.1456 137.952C56.4462 137.907 56.6922 137.255 56.3186 137.311C56.0179 137.356 55.7714 138.009 56.1456 137.952ZM135.915 103.026C135.923 103.041 136.2 103.055 136.195 102.967C136.176 102.683 135.79 102.763 135.915 103.026ZM49.1112 146.329C50.1952 145.129 51.7643 145.17 50.5246 146.427C50.3001 146.654 50.6681 145.649 50.3222 145.888C49.69 146.326 49.9613 147.199 49.1577 147.513C49.0116 147.569 49.0473 146.396 49.1118 146.326C49.1116 146.327 49.1114 146.328 49.1112 146.329ZM111.234 103.166C111.244 103.18 111.628 103.193 111.637 103.179C111.845 102.847 111.071 102.82 111.234 103.166ZM150.707 104.848C150.693 104.857 150.69 105.019 150.649 105.17C150.612 105.322 150.539 105.462 150.546 105.477C150.689 105.764 150.986 105.617 151.074 105.286C151.161 104.955 150.971 104.662 150.707 104.848ZM86.1638 104.109C86.1496 104.644 85.8568 105.053 85.3205 105.038C85.6058 104.734 85.8783 104.415 86.1638 104.109Z" fill="#D44B00"/>
<path d="M67.7445 153.328C67.3476 153.37 66.7874 153.143 66.3192 153.131C64.3578 153.079 63.631 152.922 61.8564 152.832C59.2252 152.7 51.4159 152.998 51.4157 151.421C51.4157 151.421 51.4157 151.421 51.4157 151.421C51.4157 151.406 51.4165 151.39 51.418 151.374C51.4454 151.074 52.1096 150.746 52.2081 150.406C52.3066 150.066 52.2328 147.872 53.1761 147.749C54.544 147.586 57.8253 148.149 58.5548 148.124C59.0536 148.107 59.6676 147.907 60.3053 147.872C62.3616 147.757 63.4376 147.903 65.2902 147.362C66.0312 147.647 66.7723 147.933 67.5133 148.218C68.4802 148.086 69.9455 148.462 70.5329 148.442C71.0148 148.425 71.2972 148.199 71.7995 148.188C72.3628 148.175 73.2279 148.419 74.2525 148.382C75.9323 148.323 76.2312 147.734 77.2391 147.659C78.2843 147.582 79.9097 147.902 81.2433 147.695C81.4105 147.63 81.5778 147.565 81.745 147.5C81.6252 147.354 81.5054 147.207 81.3855 147.061C82.0572 146.993 82.3461 147.293 82.9633 147.298C83.6895 147.305 84.06 147.02 84.5487 147.021C84.949 147.023 85.4918 147.251 86.0109 147.237C86.7676 147.217 86.6021 146.887 87.0094 146.826C87.1719 146.802 90.1758 146.62 90.3453 146.617C91.6342 146.604 91.7464 147.055 92.7742 147.095C95.6248 147.203 98.551 146.838 101.188 146.7C102.365 146.638 103.594 146.665 104.768 146.737C103.906 147.275 104.335 147.758 104.883 147.937C105.449 148.143 106.103 147.9 105.371 146.974C106.464 147.181 107.156 146.576 108.126 146.407C108.759 146.286 109.279 146.39 110.145 146.001C111.726 145.293 112.631 143.625 113.847 144.242C114.266 143.769 114.674 143.333 115.027 142.908C115.96 141.784 116.707 140.876 116.489 139.911C116.833 139.397 118.366 138.632 118.881 138.165C119.368 137.724 122.828 134.103 123.369 133.489C123.91 132.876 124.849 131.794 125.217 131.204C125.682 130.463 125.172 129.241 127.219 128.954C128.29 127.513 128.732 127.051 129.93 125.882C130.147 125.671 130.325 125.777 130.439 125.642C130.673 125.365 130.956 124.796 131.361 124.289C132.025 123.456 132.747 123.269 132.168 122.935C132.537 122.328 132.906 121.72 133.276 121.112C133.532 121.006 133.788 120.9 134.044 120.793C134.181 120.417 134.318 120.041 134.454 119.665C134.896 120.616 136.174 118.235 135.203 118.538C136.232 117.625 137.262 116.712 138.291 115.799C138.994 116.642 140.317 113.596 139.695 113.421C139.796 113.302 139.897 113.184 139.999 113.065C141.099 112.209 141.728 111.1 142.949 109.955C144.169 108.81 144.149 108.997 144.855 108.932C145.086 108.615 145.317 108.297 145.548 107.98C145.832 105.532 147.4 107.333 148.871 103.973C149.88 103.75 150.922 102.405 151.796 101.084C151.85 100.903 151.733 100.83 151.65 100.796C151.613 100.784 151.462 100.862 151.433 100.909C151.395 100.959 151.505 101.006 151.517 101.012C150.904 101.032 150.35 101.095 150.385 101.399C149.77 101.244 149.156 101.089 148.541 100.933C148.039 101.031 147.537 101.128 147.035 101.226C147.037 101.393 147.04 101.561 147.042 101.728C146.031 101.158 144.442 101.377 143.658 101.24C143.502 101.213 143.469 100.982 142.984 100.919C142.417 100.844 141.361 100.912 140.686 100.84C140.423 101.096 140.161 101.352 139.898 101.608C138.69 101.747 138.266 101.071 137.557 101.019C137.429 101.01 135.1 101.058 134.974 101.073C133.947 101.187 134.238 101.762 131.266 101.639C130.737 101.617 130.309 101.418 129.83 101.41C128.986 101.395 126.439 101.847 126.239 102.264C125.214 101.742 122.472 101.955 121.665 101.804C121.421 101.758 121.366 101.425 120.617 101.355C120.009 101.297 118.445 101.563 117.675 101.519C116.857 101.47 116.565 101.191 116.198 101.171C115.852 101.152 115.533 101.378 115.061 101.377C113.589 101.369 112.255 101.006 111.092 100.999C109.408 100.989 107.922 101.657 106.513 101.953C106.164 101.91 105.82 101.766 105.454 101.765C100.92 101.744 95.806 101.621 91.2589 101.478C90.6059 101.458 89.6525 101.357 88.6886 101.272C86.9138 101.048 85.161 101.751 86.2519 102.435C85.9513 102.69 83.9815 103.36 82.9162 104.469C82.3377 105.047 81.8648 105.522 81.6707 105.748C81.009 106.517 80.6971 107.306 80.1855 107.917C78.6414 109.762 77.3984 110.93 75.6883 113.319C75.2472 113.937 74.9695 114.763 74.6775 115.103C74.3252 115.512 73.713 115.755 73.2467 116.276C72.1371 117.519 70.2108 119.957 69.1379 121.143C68.9415 121.359 68.6669 121.261 68.3323 121.525C67.0284 122.551 65.8744 123.961 66.7479 124.277C65.0252 125.549 64.1257 127.312 62.9005 128.805C60.3082 131.959 55.3525 137.507 53.3363 140.46C52.0651 142.321 52.4006 142.53 50.0118 144.834C49.4816 145.345 48.9335 145.837 48.2916 146.459C47.867 146.869 47.4202 147.243 46.9894 147.608C45.2772 149.234 43.2971 149.762 41.4529 150.404C38.9816 150.29 36.9309 149.1 35.8429 147.539C35.4848 146.97 35.191 146.389 34.9968 145.745C34.7299 145.706 34.4629 145.666 34.196 145.627C34.0095 145.413 33.8229 145.199 33.6364 144.985C33.7093 144.808 33.7821 144.63 33.855 144.453C32.5779 142.871 30.3792 141.353 29.2725 140.036C27.4165 137.828 22.8281 131.979 21.2379 129.741C20.3936 128.554 20.0648 128.729 20.1004 127.611C19.8509 127.396 19.6014 127.182 19.352 126.967C19.0955 126.918 18.839 126.869 18.5824 126.819C17.3748 125.401 16.143 123.549 14.9954 122.195C12.9037 119.728 9.42396 116.311 7.55403 113.639C7.08548 112.969 6.68679 111.973 6.16911 111.367C5.41591 110.484 4.80501 110.631 3.84626 109.513C3.06103 108.596 2.07196 107.204 1.07983 105.803C-1.17932 102.98 0.532767 99.172 2.33912 98.1576C3.34469 97.4973 3.9019 97.1833 4.75134 97.0699C4.89001 97.0556 5.02818 97.0468 5.16691 97.0434C7.12182 96.9592 8.75976 96.9627 10.6602 96.6526C12.7845 97.1906 12.601 97.8851 13.2593 98.5859C13.7582 99.1148 15.2881 100.341 15.5053 100.804C15.6578 101.129 15.0883 101.548 15.302 101.906C12.7569 102.192 11.6877 101.877 9.62103 101.373C8.13632 101.381 6.65162 101.389 5.16691 101.397C4.402 101.346 3.93339 102.432 4.46767 102.939C4.50459 102.982 4.54152 103.026 4.57844 103.069C4.65325 103.46 4.72806 103.852 4.80287 104.243C4.80255 104.243 4.80222 104.244 4.80189 104.244C5.5757 105.509 6.36129 105.658 6.95886 106.188C12.6798 111.261 21.6406 123.19 26.9244 129.632C28.0633 131.02 32.0344 135.31 32.587 136.456C32.7297 136.753 32.5567 137.015 32.7657 137.283C34.8596 139.483 36.9535 141.682 39.0473 143.881C39.1892 144.077 39.3322 144.273 39.4764 144.468C40.2403 145.752 42.4459 145.862 43.4027 144.576C45.6209 141.896 47.7723 139.143 49.9642 136.488C59.7482 124.639 69.4164 112.874 79.1965 101.325C80.4835 99.8018 82.1456 98.6001 83.9903 97.8553C85.3731 97.2923 87.0007 96.9065 88.6886 96.8798C90.9642 96.8298 93.317 96.7749 95.3011 96.8663C96.6211 96.9267 97.1711 97.4109 98.9051 97.05C98.9233 97.1805 98.9415 97.3109 98.9597 97.4414C100.473 97.2839 101.44 96.9871 103.137 96.9569C104.565 96.932 108.345 96.9126 109.608 96.9625C110.263 96.9874 110.019 97.2311 110.629 97.2299C111.674 97.226 113.908 96.889 115.35 96.889C116.656 96.889 118.859 97.1698 119.863 97.1291C123.481 96.9847 127.421 96.5685 131.276 96.68C132.341 96.7116 133.711 97.0277 134.044 97.0188C134.696 97.0005 134.89 96.6935 135.327 96.654C137.55 96.4545 141.015 96.8194 143.193 96.8338C145.922 96.852 148.713 96.8434 151.517 96.8291C154.777 96.6639 156.832 101.046 154.601 103.455C152.448 106.03 150.3 108.594 148.182 111.06C145.272 114.448 140.522 120.151 137.684 123.15C137.072 123.797 136.969 123.399 136.487 123.969C135.952 124.602 135.836 125.091 135.601 125.398C133.97 127.526 130.33 132.189 128.521 133.969C128.176 134.308 127.749 134.405 127.564 134.626C127.469 134.737 127.394 135.105 127.112 135.467C124.625 138.661 122.641 140.846 120.036 143.834C119.491 144.458 118.941 145.097 118.387 145.748C115.244 149.514 110.151 152.125 104.883 152.119C102.053 152.139 99.2376 152.137 96.5179 152.075C94.7805 152.036 93.5889 151.515 93.3446 151.52C92.8085 151.53 92.4653 151.881 91.3794 151.968C87.7689 152.252 82.9064 151.878 79.4724 152.054C77.7758 152.141 75.4444 152.586 73.7749 152.684C72.4414 152.763 69.2921 152.588 68.7011 152.784C68.3415 152.902 68.1751 153.281 67.7445 153.328ZM111.186 145.809C111.32 146.464 112.877 144.877 112.017 145.044C111.837 145.086 111.162 145.65 111.186 145.809ZM99.3866 100.703C99.4094 100.877 99.4323 101.05 99.4552 101.223C99.7829 101.151 100.111 101.079 100.438 101.007C100.254 100.903 100.07 100.799 99.8858 100.694C99.7194 100.697 99.553 100.7 99.3866 100.703Z" fill="#484848"/>
<path d="M46.6739 113.524C46.7599 112.587 47.5129 111.017 47.927 110.153C47.9345 110.137 47.942 110.122 47.9495 110.106C48.0478 109.901 48.1315 109.703 48.2294 109.471C48.4628 108.919 48.7782 108.173 49.5712 106.67C49.7494 106.211 49.9303 105.754 50.1144 105.298C52.1025 100.372 54.2996 95.5301 56.538 90.7052C56.5618 90.6424 56.5861 90.5786 56.6105 90.5141C56.7997 90.0155 57.007 89.4691 57.2185 88.9336C57.6208 87.9094 58.1835 86.9782 58.6913 86.3698C59.7726 85.0802 60.7118 84.4281 61.4845 83.9466C63.695 82.3711 66.3997 81.575 69.0428 81.6696C71.0655 81.7503 73.0881 81.8149 75.1108 81.8534C76.4332 81.8785 77.7557 81.8922 79.0781 81.8922C80.2958 81.8922 81.5138 81.8836 82.7315 81.8675C83.4407 81.8085 84.1149 81.7384 84.7402 81.6735C85.6188 81.5823 86.4009 81.5013 87.047 81.4748C88.6036 81.4111 90.3694 81.5116 91.6807 81.5863C91.895 81.5985 92.0973 81.6101 92.2844 81.6201C93.3259 81.5831 94.3675 81.5435 95.4089 81.503C95.4784 81.5255 95.5485 81.549 95.6197 81.5731C96.5085 81.8735 97.6011 81.8696 99.321 81.864C100.07 81.8616 100.938 81.859 101.96 81.8807C102.618 81.8947 102.957 82.0138 103.233 82.111C103.314 82.1396 103.391 82.1663 103.468 82.1879C103.732 82.2619 104.011 82.1819 104.341 82.0875C104.768 81.965 105.281 81.8178 105.958 81.9508C108.116 82.3743 109.067 82.087 109.787 81.8696C109.998 81.8058 110.189 81.7482 110.385 81.7162C111.02 81.6124 111.924 81.7152 112.608 81.8563C113.15 81.9682 114.235 81.8573 115.058 81.7162C115.369 81.6628 115.789 81.6615 116.285 81.6602C116.797 81.6589 117.391 81.6577 118.025 81.5978C119.629 81.4466 120.481 81.3732 121.166 81.3146C121.361 81.2978 121.543 81.2826 121.725 81.2667C122.249 81.2209 122.889 81.1824 123.545 81.1443C123.659 81.1407 123.774 81.1404 123.888 81.1436C125.492 81.156 127.081 82.0495 127.919 82.9858C129.422 84.7703 129.604 87.5812 128.368 89.49C128.097 89.9086 127.826 90.327 127.555 90.7454C127.071 91.4912 126.422 92.0996 125.739 92.4302C125.055 92.7604 124.398 92.7877 123.898 92.4995C123.399 92.2113 123.094 91.6279 123.038 90.8711C122.983 90.1144 123.185 89.2473 123.589 88.4555C123.816 88.0117 124.043 87.5678 124.27 87.1241C124.409 86.752 124.261 86.4356 124.013 86.2429C123.856 86.1345 123.734 86.1155 123.545 86.1348C122.172 86.175 120.798 86.1994 119.424 86.1994C117.9 86.1994 116.376 86.1856 114.852 86.1609C114.695 86.1584 114.538 86.1556 114.381 86.1528C113.1 86.2947 111.822 86.4238 110.922 86.4698C110.179 86.5078 109.637 86.4321 109.173 86.3673C108.853 86.3227 108.57 86.2832 108.284 86.2895C108.131 86.2929 107.921 86.3016 107.668 86.3122C106.635 86.3551 104.881 86.428 103.28 86.2895C102.57 86.2281 101.745 86.107 100.957 85.9913C99.8308 85.8259 98.7806 85.6718 98.2504 85.7191C97.3193 85.8023 96.2515 85.7319 95.3081 85.6696C94.4081 85.6101 93.621 85.5582 93.1734 85.6542C92.6385 85.769 92.1824 85.7222 91.5042 85.6529C91.0338 85.6049 90.4566 85.5462 89.672 85.5226C88.7663 85.4954 88.1255 85.415 87.5808 85.3466C86.8142 85.2504 86.2375 85.178 85.3779 85.3111C84.423 85.459 83.4249 85.5531 82.639 85.5064C82.281 85.4851 81.8714 85.4903 81.4453 85.4957C80.8812 85.5029 80.2879 85.5103 79.7462 85.4573C79.2998 85.4135 78.9308 85.3016 78.6043 85.2026C78.5024 85.1717 78.4047 85.1422 78.31 85.1163C77.9544 85.1177 77.5989 85.1198 77.2433 85.1231C77.1857 85.1412 77.1252 85.1611 77.062 85.1817C76.745 85.285 76.3553 85.4116 75.8728 85.4748C75.1091 85.5747 74.4389 85.5121 73.732 85.4457C73.1816 85.394 72.6089 85.3401 71.9524 85.3594C71.5048 85.3726 70.995 85.4184 70.4897 85.4637C69.9805 85.5093 69.4757 85.5545 69.0428 85.5657C68.875 85.571 68.7222 85.5738 68.5862 85.5678C68.4287 85.5609 68.2877 85.5025 68.1447 85.4476C68.1441 85.4472 68.1434 85.4469 68.1428 85.4465C68.1331 85.4428 68.1233 85.4392 68.1136 85.4356C67.0821 85.6044 66.096 85.9747 65.2228 86.5095C65.153 86.567 65.0835 86.6257 65.0158 86.6847C64.6843 86.9726 64.3952 87.2804 64.2603 87.5354C64.1117 87.8092 63.6186 88.3197 63.2211 88.9361C62.9578 89.3365 62.7337 89.7756 62.6073 90.1545C62.5332 90.375 62.3735 90.5356 62.2134 90.7149C62.1632 90.771 62.1131 90.8288 62.0663 90.8902C61.9567 91.0547 61.8564 91.2297 61.788 91.4305C61.7363 91.5822 61.6994 91.7537 61.6602 91.9367C61.6256 92.0978 61.5891 92.2683 61.5388 92.4418C61.492 92.603 61.3162 92.9331 61.0912 93.3566C60.9522 93.6183 60.7944 93.9157 60.6361 94.2309C60.3302 95.1092 60.0226 95.9871 59.7122 96.8636C59.6985 97.0671 59.712 97.2538 59.7603 97.4169C59.7949 97.5339 59.8486 97.6432 59.9033 97.7554C59.9778 97.908 60.0547 98.0659 60.0905 98.2551C60.1184 98.403 60.0925 98.5537 60.0237 98.6341C59.9916 98.6716 59.9507 98.6937 59.9136 98.7139C59.8711 98.737 59.8333 98.7577 59.8189 98.7957C59.8085 98.8231 59.8172 98.8595 59.8276 98.9042C59.8441 98.9755 59.8653 99.0681 59.8227 99.1788C59.6642 99.5908 59.4603 100.049 59.2605 100.499C59.0383 100.998 58.8212 101.487 58.677 101.887C58.5154 102.336 58.1862 102.936 57.8569 103.537C57.6271 103.956 57.3974 104.376 57.2235 104.746C57.053 105.108 56.9387 105.51 56.8283 105.9C56.6958 106.369 56.5685 106.819 56.3548 107.159C56.3116 107.228 56.1932 107.287 56.045 107.362C55.9399 107.415 55.8196 107.476 55.7004 107.552C55.512 108.019 55.3203 108.484 55.1257 108.949C55.1301 108.97 55.1345 108.991 55.1391 109.013C55.1392 109.013 55.1394 109.013 55.1395 109.014C55.2432 109.501 55.3849 110.169 54.8766 110.821C54.7474 110.986 54.6008 111.064 54.4688 111.135C54.3392 111.204 54.2232 111.265 54.1517 111.395C54.0704 111.543 54.0503 111.748 54.0281 111.971C53.9971 112.284 53.9624 112.634 53.7503 112.914C53.7358 112.933 53.7201 112.953 53.704 112.975C53.5514 113.178 53.3256 113.479 53.0095 113.741C52.5597 114.717 52.1015 115.689 51.6382 116.659C50.866 118.276 50.0792 119.888 49.2927 121.499C48.9094 122.283 48.3509 122.957 47.7267 123.369C47.1019 123.78 46.4655 123.896 45.9411 123.685C45.4167 123.473 45.0395 122.948 44.8753 122.218C44.7116 121.488 44.7778 120.615 45.0458 119.785C45.4839 118.432 45.922 117.078 46.3674 115.728C46.3843 115.654 46.4017 115.581 46.4197 115.508C46.5533 114.965 46.5978 114.43 46.6422 113.894C46.6524 113.771 46.6626 113.647 46.6739 113.524Z" fill="#484848"/>
<path d="M41.8854 128.517C41.8139 127.768 41.1097 126.606 40.7224 125.967C40.7154 125.955 40.7084 125.944 40.7014 125.932C40.6095 125.78 40.5314 125.632 40.4402 125.459C40.2227 125.045 39.9287 124.487 39.1854 123.385C39.0198 123.04 38.8515 122.695 38.6802 122.352C36.83 118.65 34.7783 115.048 32.6868 111.466C32.6646 111.418 32.6421 111.37 32.6194 111.321C32.1804 110.38 31.6359 109.213 31.1859 108.534C30.6138 107.67 30.1972 107.097 29.8507 106.629C28.187 103.785 26.5438 100.931 25.0026 98.026C24.5195 97.1155 24.0466 96.1998 23.586 95.278C23.1619 94.4293 22.7454 93.5764 22.3357 92.7204C22.1415 92.1997 21.9693 91.6984 21.8096 91.2336C21.599 90.6205 21.4099 90.0706 21.221 89.6233C21.2185 89.6138 21.2161 89.6046 21.2138 89.5959C21.1714 89.4241 21.1482 89.2987 21.1513 89.1356C21.1543 88.9758 21.2053 88.7934 21.286 88.6581C21.312 88.6136 21.3402 88.5737 21.3692 88.5394C21.5438 88.4468 21.7124 88.4249 21.9136 88.4551C22.0816 88.4634 22.2496 88.4717 22.4176 88.4801C22.4718 88.4576 22.5263 88.4341 22.5818 88.41C23.2744 88.1096 24.1258 88.1135 25.4659 88.1191C26.0495 88.1215 26.7259 88.1241 27.5222 88.1024C28.0353 88.0884 28.2989 87.9693 28.5142 87.8721C28.5776 87.8435 28.637 87.8168 28.6971 87.7952C28.9033 87.7212 29.1206 87.8012 29.3773 87.8956C29.7103 88.0181 30.1098 88.1653 30.6376 88.0323C32.3193 87.6088 33.0603 87.8961 33.6209 88.1135C33.7853 88.1773 33.9344 88.2349 34.0869 88.2669C34.5817 88.3706 35.2866 88.2679 35.8194 88.1268C36.2419 88.0149 37.087 88.1258 37.728 88.2669C37.9704 88.3203 38.2981 88.3216 38.6842 88.3229C39.0837 88.3242 39.5459 88.3254 40.0403 88.3853C41.2899 88.5365 41.954 88.6098 42.4878 88.6685C42.64 88.6853 42.7818 88.7005 42.9234 88.7164C43.3709 88.7666 43.9263 88.8079 44.4885 88.8497C45.1614 88.8996 45.8443 88.9503 46.3639 89.018C47.7107 88.9464 49.0577 88.8578 50.4043 88.7694C51.0961 88.7234 51.7598 88.4649 52.2489 88.0387C52.738 87.6122 53.0127 87.0561 53.0127 86.4797C53.0127 85.9033 52.7379 85.3472 52.2489 84.9206C51.7598 84.4945 51.0961 84.2355 50.4043 84.1896C49.0108 84.0981 47.617 84.0066 46.2234 83.9337C44.5257 83.8449 42.8279 83.7837 41.1303 83.7837C39.9427 83.7837 38.7551 83.7975 37.5675 83.8222C37.4452 83.8247 37.3229 83.8275 37.2006 83.8303C36.2029 83.6884 35.2072 83.5593 34.5056 83.5133C33.9263 83.4753 33.504 83.551 33.1423 83.6158C32.8934 83.6604 32.6732 83.6999 32.4503 83.6936C32.3307 83.6902 32.1672 83.6814 31.97 83.6709C31.1651 83.628 29.798 83.5551 28.5508 83.6936C27.9974 83.755 27.3545 83.8761 26.7408 83.9918C25.8632 84.1572 25.0448 84.3113 24.6317 84.264C23.9062 84.1808 23.0742 84.2512 22.339 84.3135C22.1929 84.3259 22.0505 84.338 21.9136 84.3484C21.0711 84.3855 20.3774 84.6247 19.9296 84.7399C19.2504 84.9202 18.734 85.3107 18.2071 85.9998C17.8506 86.4842 17.4751 87.1264 17.2454 88.0823C16.996 89.1969 17.2224 90.0276 17.4719 90.6265C17.5818 90.8849 17.7028 91.1068 17.8299 91.3177C18.0399 91.6358 18.2075 91.9549 18.3335 92.4151C18.5338 93.1468 18.7972 93.8845 19.1128 94.4115C19.2565 94.6515 19.3945 94.9392 19.5381 95.2387C19.7281 95.6351 19.9281 96.052 20.1643 96.4059C20.3589 96.6975 20.5875 96.9047 20.7898 97.088C20.8529 97.1452 20.9133 97.2001 20.9695 97.2545C21.092 97.503 21.214 97.7518 21.3349 98.0011C21.3388 98.0493 21.3421 98.1004 21.3457 98.1536C21.3637 98.4207 21.3861 98.749 21.4977 99.1136C21.6743 99.6906 21.9637 100.13 22.2693 100.593C22.5072 100.953 22.755 101.328 22.9663 101.795C23.1104 102.113 23.247 102.488 23.3825 102.861C23.5837 103.414 23.7826 103.96 23.9996 104.3C24.0809 104.428 24.2015 104.512 24.3212 104.595C24.3218 104.595 24.3225 104.596 24.3231 104.596C24.3312 104.602 24.3393 104.607 24.3474 104.613C24.7362 105.511 25.1202 106.412 25.5014 107.313C25.5231 107.397 25.5454 107.482 25.5676 107.565C25.6761 107.974 25.7816 108.372 25.7933 108.659C25.8058 108.971 26.0589 109.644 26.3255 110.354C26.5002 110.818 26.6808 111.298 26.8034 111.703C26.8751 111.939 27.0432 112.114 27.2162 112.293C27.3776 112.46 27.5434 112.632 27.6388 112.862C27.6866 112.978 27.72 113.112 27.7555 113.255C27.7868 113.38 27.8199 113.513 27.8661 113.647C27.9091 113.771 28.0739 114.013 28.2849 114.323C28.4153 114.514 28.5632 114.732 28.7114 114.964C28.9946 115.632 29.2795 116.299 29.5671 116.964C29.5778 117.128 29.5627 117.282 29.5144 117.422C29.4798 117.522 29.427 117.62 29.3731 117.719C29.2998 117.855 29.2241 117.995 29.1876 118.155C29.159 118.279 29.1821 118.398 29.2472 118.453C29.2776 118.478 29.3166 118.49 29.3519 118.501C29.3924 118.513 29.4284 118.524 29.4419 118.553C29.4516 118.573 29.4427 118.604 29.4322 118.642C29.4155 118.703 29.3941 118.781 29.4337 118.865C29.581 119.176 29.7712 119.518 29.9577 119.853C30.1651 120.225 30.3677 120.589 30.5014 120.893C30.6512 121.233 30.9601 121.671 31.2691 122.109C31.4847 122.415 31.7003 122.721 31.8628 122.995C32.0221 123.264 32.1271 123.574 32.2285 123.874C32.3502 124.235 32.467 124.582 32.6681 124.826C32.7088 124.875 32.8217 124.905 32.9631 124.943C33.0633 124.97 33.1781 125.001 33.2916 125.045C33.4669 125.396 33.6455 125.745 33.8267 126.093C33.8223 126.111 33.8178 126.129 33.8132 126.147C33.813 126.147 33.8128 126.148 33.8127 126.148C33.7074 126.561 33.5635 127.125 34.0437 127.578C34.1658 127.693 34.3056 127.734 34.4315 127.771C34.5551 127.807 34.6656 127.839 34.7328 127.934C34.809 128.042 34.8259 128.205 34.8445 128.383C34.8707 128.633 34.8998 128.913 35.1001 129.108C35.1138 129.121 35.1286 129.135 35.1438 129.15C35.2879 129.292 35.5011 129.502 35.8014 129.667C36.2217 130.392 36.6499 131.113 37.0831 131.831C37.8053 133.028 38.5415 134.219 39.2774 135.409C39.6361 135.987 40.1641 136.451 40.7584 136.69C41.3533 136.928 41.9628 136.925 42.4687 136.672C42.9745 136.419 43.3429 135.934 43.5091 135.315C43.6748 134.696 43.6216 133.996 43.3741 133.362C42.9696 132.328 42.5651 131.294 42.1536 130.263C42.1382 130.206 42.1223 130.149 42.1059 130.092C41.9842 129.671 41.9478 129.243 41.9114 128.813C41.9031 128.715 41.8947 128.616 41.8854 128.517Z" fill="#484848"/>
<circle cx="105.795" cy="118.09" r="6.50192" fill="#F6F4F2"/>
<path d="M101.767 119.689C101.665 120.06 102.166 120.154 102.649 120.126C103.141 120.11 103.598 119.975 103.673 120.253C103.831 120.789 103.354 121.825 104.218 121.949C104.817 122.003 105.332 122.442 105.795 122.456C105.947 122.461 106.074 122.416 106.157 122.294C106.444 121.811 106.715 123.157 107.236 122.698C107.698 122.227 108.016 122.26 108.726 122.316C109.449 122.468 111.078 121.119 110.768 120.243C110.517 119.487 111.559 119.047 111.818 118.517C111.898 118.367 111.996 118.248 112.096 118.151C112.138 118.11 112.226 118.09 112.313 118.09C112.313 118.09 112.313 118.09 112.313 118.09C112.42 118.09 112.527 118.122 112.539 118.179C112.601 118.456 112.757 118.867 113.044 119.459C113.523 120.613 112.759 120.522 112.468 121.882C112.104 123.222 111.936 124.586 110.151 125.172C109.289 125.413 108.971 125.938 108.427 126.433C107.907 126.907 107.087 127.356 105.795 126.84C105.762 126.826 105.728 126.811 105.694 126.796C103.337 125.444 102.596 127.486 99.8157 126.054C97.0094 124.429 96.6791 120.215 96.6478 118.713C96.6226 118.513 96.6013 118.308 96.5863 118.09C96.4535 116.545 96.8081 114.365 98.2358 112.789C99.6899 111.053 102.069 108.728 104.844 108.98C105.153 109.007 105.472 109.05 105.795 109.112C108.289 109.498 110.5 111.441 111.053 112.59C111.724 113.894 111.77 114.152 112.564 115.224C113.007 115.85 113.132 116.995 112.603 117.827C112.337 118.244 111.957 118.121 111.761 117.776C111.468 117.277 111.551 116.832 111.025 116.708C109.966 116.486 109.618 116.584 109.867 115.857C110.062 115.078 108.865 115.619 108.817 115.347C108.778 115.198 108.893 114.993 108.813 114.74C108.738 114.5 108.43 114.153 107.623 114.089C106.767 114.043 106.213 114.191 105.795 114.312C105.436 114.422 105.193 114.531 105.002 114.639C104.645 114.826 103.387 114.697 102.975 115.52C102.611 116.137 101.991 117.345 102.272 118.09C102.302 118.182 102.341 118.259 102.388 118.323C102.83 118.848 102.002 118.948 101.767 119.689Z" fill="#F6F4F2"/>
<path d="M108.564 112.191C108.21 112.038 107.947 111.518 107.757 111.238C107.753 111.233 107.75 111.227 107.746 111.222C107.703 111.156 107.654 111.1 107.596 111.035C107.453 110.882 107.276 110.673 106.882 110.199C106.738 110.1 106.591 110.007 106.442 109.916C105.445 109.312 104.327 108.916 103.116 108.804C102.372 108.736 101.617 108.775 100.868 108.942C100.844 108.951 100.821 108.961 100.797 108.971C100.329 109.16 99.7964 109.469 99.422 109.613C98.9425 109.793 98.6092 109.942 98.3341 110.071C96.9616 111.04 95.9121 112.587 95.6008 114.331C95.5359 114.688 95.5005 115.048 95.4953 115.414C95.4926 115.609 95.4983 115.801 95.5129 115.995C95.5513 116.506 95.6484 117.012 95.8013 117.498C95.931 117.77 96.0812 118.014 96.2297 118.23C96.4386 118.533 96.6434 118.781 96.7908 118.995C97.1412 119.51 97.5046 120.117 97.8349 120.544C97.8881 120.614 97.9397 120.679 97.9888 120.738C98.317 121.01 98.6681 121.25 99.0345 121.456C99.0468 121.488 99.0591 121.521 99.0718 121.554C99.2331 121.965 99.6386 122.214 100.306 122.478C100.599 122.592 100.942 122.707 101.355 122.824C101.621 122.899 101.742 123.021 101.847 123.124C101.878 123.153 101.907 123.181 101.937 123.204C102.041 123.284 102.173 123.232 102.322 123.166C102.516 123.08 102.734 122.97 103.018 123.088C103.051 123.101 103.084 123.114 103.116 123.125C103.985 123.425 104.377 123.097 104.618 122.871C104.694 122.8 104.761 122.735 104.833 122.69C105.066 122.545 105.439 122.526 105.75 122.539C105.997 122.552 106.388 122.282 106.627 122.013C106.718 121.913 106.868 121.828 107.039 121.72C107.217 121.608 107.419 121.469 107.593 121.271C108.028 120.769 108.209 120.476 108.358 120.246C108.399 120.18 108.437 120.118 108.474 120.055C108.589 119.857 108.733 119.618 108.861 119.369C109.015 119.071 109.145 118.759 109.206 118.509C109.556 117.958 109.843 117.355 110.04 116.709C110.142 116.379 110.395 116.078 110.774 115.83C111.153 115.586 111.627 115.415 112.121 115.414C112.614 115.412 113.096 115.595 113.443 115.972C113.789 116.348 113.96 116.888 113.9 117.426C113.78 118.504 113.494 119.579 113.038 120.587C112.484 121.814 111.675 122.941 110.662 123.847C109.955 124.48 109.159 125.016 108.307 125.434C108.219 125.477 108.131 125.519 108.042 125.56C107.38 126.02 106.642 126.389 106.097 126.573C105.646 126.726 105.29 126.727 104.992 126.721C104.786 126.716 104.607 126.706 104.429 126.732C104.333 126.746 104.203 126.768 104.046 126.789C103.794 126.824 103.476 126.859 103.116 126.869C102.553 126.886 101.895 126.833 101.3 126.663C100.866 126.541 100.385 126.328 99.9482 126.094C99.3217 125.763 98.7977 125.392 98.4927 125.292C97.953 125.12 97.4158 124.744 96.9823 124.38C96.5655 124.033 96.2367 123.701 95.9815 123.587C95.6762 123.45 95.499 123.23 95.2619 122.897C95.0981 122.664 94.9048 122.377 94.6356 121.999C94.3256 121.56 94.1782 121.203 94.0626 120.902C93.9023 120.475 93.8023 120.159 93.491 119.752C93.1454 119.299 92.8711 118.758 92.7862 118.299C92.7466 118.089 92.6843 117.857 92.6281 117.61C92.5539 117.286 92.4925 116.938 92.5024 116.615C92.5104 116.349 92.5911 116.127 92.6665 115.935C92.69 115.875 92.713 115.818 92.7334 115.763C92.7289 115.647 92.7261 115.531 92.7249 115.414C92.724 115.326 92.7241 115.239 92.725 115.152C92.7104 115.119 92.6943 115.084 92.678 115.047C92.5958 114.864 92.4995 114.627 92.4737 114.34C92.434 113.881 92.5526 113.492 92.6975 113.098C92.8111 112.791 92.941 112.481 93.0445 112.111C93.1151 111.859 93.1815 111.565 93.2613 111.275C93.3788 110.845 93.5297 110.423 93.711 110.174C93.7788 110.08 93.8803 110.025 93.981 109.974C93.9815 109.974 93.9821 109.973 93.9826 109.973C93.9894 109.97 93.9962 109.966 94.003 109.963C94.341 109.309 94.7454 108.685 95.2116 108.102C95.244 108.045 95.2776 107.987 95.3117 107.929C95.4777 107.65 95.6553 107.385 95.7409 107.173C95.8322 106.942 96.221 106.523 96.6789 106.125C96.9776 105.864 97.3039 105.611 97.5701 105.394C97.726 105.267 97.922 105.235 98.1219 105.208C98.3088 105.183 98.4979 105.163 98.6744 105.07C98.763 105.024 98.8518 104.959 98.9489 104.891C99.0342 104.831 99.126 104.769 99.2268 104.716C99.3201 104.666 99.5528 104.619 99.8505 104.574C100.034 104.547 100.245 104.52 100.461 104.493C101.013 104.319 101.58 104.19 102.156 104.107C102.272 104.042 102.373 103.965 102.452 103.87C102.51 103.801 102.558 103.721 102.608 103.639C102.677 103.528 102.75 103.414 102.856 103.322C102.939 103.251 103.039 103.222 103.107 103.251C103.11 103.252 103.113 103.254 103.116 103.255C103.143 103.269 103.164 103.292 103.184 103.313C103.208 103.34 103.23 103.363 103.257 103.363C103.277 103.362 103.297 103.344 103.322 103.322C103.363 103.287 103.416 103.241 103.495 103.242C103.789 103.244 104.127 103.282 104.451 103.332C104.814 103.388 105.164 103.461 105.446 103.502C105.763 103.547 106.193 103.718 106.605 103.916C106.893 104.053 107.171 104.202 107.415 104.317C107.652 104.43 107.918 104.502 108.175 104.581C108.483 104.675 108.778 104.781 108.977 104.962C109.017 104.999 109.037 105.096 109.06 105.218C109.076 105.305 109.094 105.404 109.12 105.502C109.395 105.669 109.662 105.85 109.918 106.043C109.933 106.042 109.949 106.04 109.964 106.038C109.965 106.038 109.965 106.038 109.965 106.038C110.316 105.999 110.828 105.977 111.094 106.475C111.16 106.601 111.159 106.725 111.157 106.836C111.155 106.945 111.151 107.041 111.208 107.118C111.272 107.205 111.396 107.258 111.531 107.32C111.72 107.407 111.933 107.514 112.017 107.732C112.022 107.747 112.029 107.763 112.035 107.779C112.096 107.936 112.181 108.171 112.188 108.453C112.564 109.017 112.882 109.615 113.139 110.234C113.567 111.267 113.821 112.358 113.907 113.441C113.95 113.971 113.771 114.499 113.425 114.868C113.078 115.236 112.605 115.415 112.121 115.414C111.636 115.413 111.17 115.245 110.793 115.005C110.416 114.761 110.158 114.465 110.045 114.143C109.862 113.617 109.619 113.125 109.332 112.671C109.311 112.65 109.291 112.629 109.271 112.607C109.124 112.448 108.915 112.342 108.707 112.252C108.659 112.231 108.611 112.211 108.564 112.191Z" fill="#474747"/>
<path d="M48.9223 16.6932C48.7453 16.412 48.7311 15.9603 48.7595 15.5536C48.7745 15.2829 48.8084 15.0297 48.8377 14.8333C48.8391 14.8229 48.8406 14.8125 48.842 14.8021C48.8623 14.6681 48.8729 14.5404 48.887 14.3916C48.924 14.0388 48.9636 13.5487 49.3014 12.5956C49.3453 12.3095 49.3992 12.0249 49.4638 11.7427C50.1561 8.68583 51.9365 5.92575 54.2668 3.95578C54.2746 3.94726 54.2824 3.93872 54.2903 3.93014C54.3087 3.91009 54.3274 3.88987 54.3463 3.86957C54.8618 3.30671 55.5698 2.66182 56.1071 2.38684C56.7873 2.03457 57.2799 1.86417 57.6848 1.73683C59.8263 0.703545 62.1308 0.162546 64.4201 0.0324746C64.8887 0.005656 65.3575 -0.00433135 65.8256 0.00171745C66.0751 0.00494003 66.3242 0.0127175 66.573 0.0249286C67.2328 0.0573065 67.8909 0.12399 68.5447 0.225896C68.9341 0.236415 69.3092 0.248082 69.6585 0.27045C70.1491 0.301725 70.5893 0.354553 70.9381 0.447043C71.7821 0.666813 72.646 1.16964 73.2439 1.58263C73.3421 1.64974 73.4341 1.71421 73.5188 1.77397C74.0362 2.026 74.5427 2.30532 75.0346 2.61226C75.0526 2.65316 75.0701 2.69503 75.0875 2.73778C75.3019 3.27218 75.7688 3.62389 76.4492 4.26489C76.5418 4.35275 76.6379 4.44615 76.7373 4.5466C76.9537 4.7654 77.1843 5.01624 77.4215 5.31297C77.6441 5.59259 77.6649 5.81146 77.6804 5.98692C77.6848 6.03867 77.6888 6.08706 77.6969 6.13263C77.7245 6.2887 77.8766 6.35685 78.0567 6.44338C78.2894 6.55475 78.5732 6.70112 78.6609 7.08093C78.9224 8.28073 79.3644 8.58397 79.7363 8.84713C79.8427 8.92316 79.9386 8.994 80.0116 9.07864C80.2495 9.3532 80.3425 9.85739 80.3328 10.2531C80.3281 10.5661 80.6124 11.0833 80.8623 11.4835C80.9574 11.6341 81.0154 11.858 81.0751 12.1229C81.137 12.3973 81.2006 12.7153 81.3142 13.0506C81.5984 13.901 81.6949 14.3764 81.7749 14.7555C81.797 14.8638 81.8161 14.9652 81.8351 15.0668C81.8626 15.2144 81.8866 15.3787 81.9068 15.5536C81.9306 15.7277 81.9531 15.9128 81.9756 16.0992C82.0256 16.5118 82.0763 16.9305 82.144 17.2492C82.0723 18.075 81.9837 18.9009 81.8953 19.7267C81.8494 20.1508 81.5909 20.5578 81.1647 20.8577C80.7382 21.1576 80.182 21.326 79.6056 21.3261C79.0293 21.3261 78.4731 21.1576 78.0466 20.8577C77.6204 20.5578 77.3615 20.1508 77.3156 19.7267C77.2241 18.8722 77.1325 18.0175 77.0596 17.163C77.0139 16.6265 76.9755 16.0901 76.949 15.5536C76.924 15.138 76.8871 14.7254 76.8421 14.314C76.7772 13.7203 76.6791 13.1298 76.5452 12.5453C76.5314 12.4851 76.5173 12.4249 76.5028 12.3649C76.2266 11.9197 75.9321 11.5061 75.7546 11.2083C75.6084 10.9623 75.5881 10.7451 75.5662 10.5555C75.5511 10.4254 75.5352 10.3095 75.4771 10.2146C75.4459 10.1637 75.3992 10.0963 75.3418 10.0162C75.1082 9.68562 74.6902 9.16223 74.4139 8.59291C74.2922 8.33874 74.1761 8.01456 74.0471 7.70609C73.997 7.58608 73.9456 7.46882 73.8926 7.35904C73.7512 7.06531 73.5994 6.82832 73.4589 6.7495C73.1216 6.55963 72.8317 6.23642 72.554 5.96029C72.2908 5.69702 72.0423 5.478 71.8357 5.46444C71.5893 5.4488 71.4559 5.31669 71.2438 5.12439C71.0967 4.99174 70.9114 4.83038 70.6255 4.67462C70.2956 4.49583 70.0771 4.32535 69.8859 4.18203C69.6174 3.9821 69.4011 3.8347 69.016 3.86403C68.5888 3.89734 68.1706 3.90217 67.8588 3.79987C67.7168 3.75299 67.5479 3.7313 67.3724 3.71328C67.1396 3.68921 66.8959 3.67173 66.6754 3.60255C66.4939 3.54552 66.3454 3.42664 66.2098 3.32315C66.1676 3.29088 66.1266 3.26029 66.0868 3.2335C65.9998 3.23242 65.9127 3.23251 65.8256 3.23387C65.7605 3.23489 65.6955 3.23661 65.6306 3.23908C65.6063 3.25749 65.5809 3.27792 65.5545 3.2991C65.4217 3.40547 65.2637 3.5378 65.0682 3.61373C64.7594 3.73423 64.4823 3.70089 64.181 3.67633C63.9474 3.65739 63.7002 3.64433 63.4345 3.71908C63.2534 3.77003 63.0557 3.86279 62.8643 3.95992C62.5793 4.10388 62.3098 4.25783 62.0957 4.28645C62.0153 4.2971 61.9276 4.25351 61.8393 4.21102C61.8389 4.21072 61.8384 4.21042 61.838 4.21012C61.832 4.20724 61.826 4.20447 61.82 4.20162C61.345 4.43059 60.8905 4.6953 60.4608 4.98948C60.4294 5.02621 60.3978 5.06308 60.3667 5.09965C60.2147 5.27814 60.0748 5.45573 60.0201 5.62663C59.9604 5.81143 59.6916 6.06544 59.4302 6.34974C59.2587 6.53525 59.0895 6.73303 58.9753 6.91823C58.9085 7.02641 58.7758 7.04363 58.637 7.06543C58.5082 7.08531 58.3741 7.10937 58.2941 7.20774C58.254 7.257 58.2252 7.32542 58.1954 7.39853C58.1693 7.46281 58.1426 7.53084 58.1061 7.59309C58.096 7.61027 58.0775 7.6289 58.0521 7.64928C57.9921 7.69746 57.894 7.75524 57.7788 7.82689C57.6775 7.88991 57.5634 7.96357 57.4506 8.04912C57.2441 8.35467 57.0524 8.66748 56.8749 8.98556C56.8827 9.08393 56.9131 9.18444 56.9715 9.2862C57.0134 9.35921 57.0711 9.43562 57.1306 9.51325C57.2116 9.61889 57.2962 9.72694 57.3513 9.83268C57.3943 9.91533 57.3929 9.97721 57.3453 9.98931C57.323 9.99492 57.2911 9.98991 57.2622 9.98551C57.2291 9.98045 57.1995 9.97613 57.1924 9.989C57.1873 9.99831 57.1999 10.0192 57.2152 10.0446C57.2395 10.0851 57.2711 10.1372 57.2508 10.1742C57.1752 10.3122 57.0708 10.458 56.972 10.6044C56.8621 10.7669 56.7595 10.9304 56.7085 11.0752C56.6514 11.2369 56.4783 11.4248 56.3115 11.625C56.1952 11.7641 56.0821 11.9087 56.0112 12.0432C55.9415 12.175 55.9365 12.3355 55.9358 12.4892C55.9348 12.6742 55.9398 12.849 55.8361 12.9716C55.815 12.9964 55.7214 13.0104 55.604 13.03C55.5208 13.0439 55.4257 13.0607 55.3361 13.0855C55.2933 13.2724 55.2519 13.4597 55.2124 13.6477C55.2229 13.6564 55.2336 13.6653 55.2446 13.6743C55.2449 13.6744 55.2451 13.6746 55.2454 13.6748C55.493 13.8799 55.8385 14.1301 55.5809 14.3896C55.5154 14.4566 55.4046 14.4928 55.3049 14.5263C55.207 14.5593 55.1194 14.59 55.0971 14.6445C55.0718 14.7065 55.124 14.7863 55.1818 14.8712C55.263 14.9911 55.3559 15.1193 55.2603 15.243C55.2538 15.2515 55.2466 15.2607 55.2395 15.2702C55.1851 15.3426 55.1108 15.4435 54.9839 15.5536C54.9523 15.5876 54.9174 15.622 54.8786 15.6564C54.8266 16.1691 54.7657 16.6818 54.6992 17.1945C54.5883 18.0491 54.4619 18.9039 54.3356 19.7584C54.2734 20.1742 54.008 20.5729 53.5832 20.8669C53.1578 21.1609 52.611 21.3261 52.0455 21.3261C51.48 21.326 50.9336 21.1608 50.5082 20.8669C50.0834 20.5729 49.818 20.1742 49.7559 19.7584C49.6556 19.0805 49.5553 18.4024 49.4628 17.7243C49.451 17.6888 49.4397 17.6531 49.429 17.6176C49.3498 17.3533 49.1906 17.1081 49.0312 16.8626C48.9946 16.8063 48.9579 16.7498 48.9223 16.6932Z" fill="#484848"/>
<path d="M45.8084 37.6004C46.0852 38.7776 46.1677 41.0793 46.2131 42.3454C46.214 42.3687 46.2149 42.3919 46.2159 42.4151C46.2267 42.7156 46.2439 42.9993 46.2644 43.3317C46.3131 44.1244 46.3789 45.1954 46.4128 47.438C46.463 48.0876 46.5111 48.7375 46.5568 49.3875C46.7718 52.4468 46.9563 55.5082 47.1209 58.571C47.1212 59.3804 47.8799 60.1422 48.7567 60.1132C50.7705 60.0328 52.7846 59.958 54.7989 59.8858C54.8875 59.8792 54.9777 59.8725 55.0687 59.8657C56.8288 59.7342 59.0113 59.5713 60.3881 59.555C62.1385 59.5342 63.3287 59.5423 64.3065 59.5525C69.8941 59.3543 75.4808 59.1396 81.0622 58.8437C82.8115 58.751 84.5605 58.6501 86.3087 58.5395C86.4375 58.5313 86.5664 58.5231 86.6952 58.5149C87.6733 58.4662 88.5685 57.7582 88.854 56.8328C88.9324 56.5281 88.9442 56.2219 88.9033 55.9317C88.8562 55.5041 88.8094 55.0897 88.7643 54.6904C88.6335 53.5321 88.5171 52.501 88.4499 51.6476C88.288 49.5915 88.2275 47.2522 88.1826 45.515C88.1752 45.2311 88.1683 44.963 88.1614 44.7151C88.0571 43.3393 87.9509 41.9633 87.8441 40.5877C87.8549 40.4948 87.8664 40.4012 87.8783 40.306C88.0259 39.1185 87.9414 37.6736 87.8087 35.3993C87.7613 34.5875 87.7078 33.6698 87.6565 32.6205C87.6497 32.4689 87.6294 32.315 87.5934 32.1602C87.4554 31.6116 87.3282 31.3283 87.2243 31.0842C87.1917 31.0135 87.1577 30.9478 87.1175 30.8852C86.9787 30.6697 86.7231 30.5406 86.4259 30.4607C86.1113 30.3771 85.7631 30.3405 85.3332 30.299C85.1743 30.2868 85.0081 30.2683 84.834 30.2418C81.9918 29.8092 80.724 29.9568 79.765 30.0685C79.4837 30.1012 79.2287 30.1308 78.9686 30.1418C78.125 30.1775 76.9312 30.0495 76.031 29.9075C75.3173 29.7949 73.8784 29.8086 72.7853 29.8596C72.372 29.8789 71.8153 29.8544 71.1597 29.8254C70.4812 29.7954 69.6963 29.7604 68.8546 29.7648C66.7277 29.7759 65.5976 29.7767 64.6891 29.7772C64.43 29.7773 64.1888 29.7772 63.9478 29.7776C63.1862 29.7787 62.2417 29.7652 61.2855 29.7514C60.1412 29.7349 58.9798 29.7181 58.0952 29.7261C55.8104 29.5706 53.5259 29.403 51.2419 29.2355C50.0687 29.1492 48.9499 28.9133 48.1332 28.5712C47.3166 28.229 46.8682 27.8109 46.8869 27.3996C46.9057 26.9883 47.3904 26.6128 48.2347 26.3463C49.0792 26.0802 50.2148 25.9468 51.391 25.9677C53.7605 26.0104 56.1304 26.0531 58.4995 26.1092C61.3854 26.1774 64.2705 26.2653 67.1535 26.3969C69.1703 26.489 71.1867 26.5908 73.2027 26.7005C73.4102 26.7118 73.6178 26.7233 73.8253 26.7347C75.5243 26.7108 77.2195 26.6959 78.4125 26.7174C79.3974 26.7352 80.1122 26.822 80.7243 26.8963C81.1455 26.9474 81.5182 26.9926 81.8968 27.0054C82.1002 27.0123 82.3781 27.0187 82.7132 27.0265C83.4291 27.0431 84.4066 27.0658 85.4787 27.1116C86.9508 27.1563 88.5146 27.914 89.4533 29.0983C90.1724 29.967 90.6509 31.2205 90.6432 32.4514C90.6388 32.6581 90.6341 32.8645 90.6295 33.0689C90.5959 34.5651 90.5646 35.9603 90.6381 36.6596C90.7671 37.8876 90.7968 39.3026 90.823 40.5529C90.8479 41.7455 90.8698 42.7885 90.9718 43.3767C91.0937 44.0794 91.0945 44.6845 91.0959 45.5842C91.0968 46.2082 91.0982 46.974 91.1401 48.0125C91.1884 49.2115 91.1791 50.0622 91.1711 50.7853C91.1599 51.803 91.1515 52.5687 91.3107 53.7002C91.4085 54.3946 91.4955 55.1071 91.5581 55.7814C91.6212 56.5112 91.4987 57.2266 91.2662 57.8079C91.033 58.4007 90.6617 59.0396 90.1339 59.5826C89.4439 60.3068 88.4633 60.8307 87.5125 60.9713C87.2819 61.0074 87.0628 61.0205 86.8536 61.0176C86.4748 61.0028 86.1391 60.9694 85.8317 60.9389C85.6956 60.9254 85.565 60.9126 85.4387 60.902C84.9687 60.9328 84.4988 60.9641 84.0289 60.9962C83.9536 61.0138 83.8745 61.0331 83.7919 61.0531C83.3775 61.1532 82.8679 61.2761 82.2329 61.3615C81.2278 61.4966 80.339 61.5081 79.4015 61.5199C78.6715 61.5291 77.9121 61.5386 77.045 61.6073C76.4538 61.6541 75.782 61.7294 75.1161 61.804C74.127 61.9147 73.1503 62.024 72.4677 62.037C72.2119 62.0419 71.9895 62.0057 71.7693 61.9696C71.7684 61.9694 71.7674 61.9691 71.7664 61.9689C71.7515 61.9664 71.7365 61.9641 71.7215 61.9616C70.0662 62.1047 68.4109 62.2517 66.7559 62.401C66.6131 62.423 66.4687 62.4448 66.3256 62.4664C65.6265 62.572 64.9472 62.6746 64.5072 62.787C64.0303 62.9089 62.8202 63.0388 61.545 63.1757C60.7099 63.2654 59.8464 63.358 59.1429 63.4534C58.7315 63.5092 58.3363 63.4824 57.9296 63.4547C57.5502 63.4289 57.1607 63.4023 56.7392 63.4417C56.528 63.4614 56.3009 63.4972 56.0585 63.5355C55.8452 63.5692 55.6196 63.6049 55.3828 63.633C55.1627 63.6591 54.6693 63.6621 54.0366 63.6662C53.6455 63.6688 53.2012 63.6718 52.7353 63.6807C51.5092 63.7906 50.2828 63.8992 49.0565 64.0056C49.0388 64.0099 49.0213 64.0142 49.0039 64.0186C48.6617 64.0844 48.3526 64.1276 48.0963 64.1733C47.8981 64.2085 47.7227 64.2478 47.5386 64.2803C47.2872 64.3232 47.0187 64.3564 46.6583 64.3131C46.3765 64.2798 46.0608 64.1687 45.874 64.0473C45.7869 63.9913 45.7272 63.9354 45.6741 63.8843C45.6132 63.8258 45.5606 63.7731 45.4847 63.7281C45.43 63.6956 45.3657 63.674 45.2869 63.6453C45.1614 63.599 44.9961 63.5355 44.7894 63.3752C44.0192 62.783 43.3131 61.8862 42.9085 60.8771C42.641 60.2226 42.4975 59.5336 42.4569 58.8987C42.4397 58.6252 42.421 58.3674 42.3998 58.1345C42.3426 57.5055 42.3371 56.6038 42.3313 55.7006C42.3272 55.0706 42.3229 54.4396 42.3014 53.8995C42.2803 53.3703 42.2098 52.8226 42.1413 52.2923C42.0591 51.6557 41.9799 51.0434 41.9937 50.5174C41.9965 50.411 42.0497 50.2754 42.1162 50.1053C42.1633 49.9847 42.2171 49.846 42.2647 49.6891C42.2179 49.024 42.1737 48.3586 42.1317 47.6932C42.1216 47.6704 42.1113 47.6468 42.1008 47.6232C42.1006 47.6229 42.1004 47.6225 42.1001 47.6221C41.8632 47.0898 41.5391 46.3614 41.6273 45.2998C41.6498 45.0299 41.714 44.8565 41.7718 44.7003C41.8286 44.5468 41.8794 44.4097 41.8784 44.2143C41.8772 43.9923 41.8176 43.7343 41.7527 43.4531C41.6616 43.0582 41.5599 42.6171 41.594 42.165C41.5963 42.1341 41.5989 42.1009 41.6014 42.0663C41.6253 41.7386 41.6605 41.2535 41.7658 40.7659C41.7032 39.3454 41.647 37.9243 41.5947 36.5031C41.5319 34.7937 41.4748 33.0837 41.4193 31.3738C41.3767 30.4451 41.5872 29.4989 42.0203 28.6837C42.7713 27.2254 44.2985 26.4746 45.3598 26.4976C46.4459 26.5084 46.9142 27.0141 46.8869 27.3996C46.8648 27.8067 46.4227 28.1521 45.9955 28.6C45.5604 29.044 45.1768 29.5702 44.9533 30.1325C44.8226 30.4543 44.7837 30.7945 44.8325 31.134C44.9639 32.3478 45.0946 33.5617 45.2229 34.7757C45.2382 34.8734 45.2532 34.9715 45.2677 35.0692C45.3755 35.7962 45.5366 36.4664 45.6978 37.1371C45.7349 37.2912 45.772 37.4455 45.8084 37.6004Z" fill="#474747"/>
</svg>
