<svg width="402" height="642" viewBox="0 0 402 642" fill="none" xmlns="http://www.w3.org/2000/svg">
<ellipse cx="192.42" cy="316.101" rx="384.652" ry="258.348" transform="rotate(-30 192.42 316.101)" fill="#F6F4F2"/>
<path d="M-115.877 365.381C-125.847 407.69 -131.731 450.744 -111.247 488.262C-110.807 489.059 -110.357 489.853 -109.896 490.643C-83.701 535.906 -29.7059 556.12 24.4821 565.74C80.122 575.989 141.384 570.64 199.684 554.879C236.255 544.981 271.987 530.957 306.288 513.327C326.924 502.717 346.964 490.839 366.207 477.688C417.206 442.776 463.128 398.883 496.635 346.23C519.203 310.596 536.105 270.456 540.947 228.127C543.048 209.58 542.745 190.71 539.441 172.11C536.987 158.243 532.857 144.583 527.047 131.543C526.243 129.73 525.774 127.821 525.779 126.193C525.786 124.566 526.267 123.352 527.188 122.822C528.108 122.293 529.415 122.489 530.831 123.379C532.244 124.268 533.642 125.786 534.709 127.575C542.443 140.549 548.589 154.594 552.986 169.241C557.878 185.507 560.614 202.44 561.409 219.492C557.019 222.137 553.689 225.667 551.816 232.142C550.863 235.461 550.112 240.351 550.493 244.005C550.84 247.31 551.785 249.931 552.659 252.46C553.566 255.125 554.408 257.605 554.295 260.682C554.101 265.887 554.891 271.116 555.575 276.624C555.821 278.637 556.05 280.702 556.202 282.828C552.963 298.78 548.377 314.518 542.75 329.8C539.843 335.383 537.092 340.402 535.097 344.909C533.328 348.907 532.35 352.855 531.485 356.95C530.429 359.239 529.325 361.563 528.243 363.796C521.135 378.431 513.156 392.575 504.386 406.322C496.109 415.9 487.176 425.75 475.683 438.391C470.725 443.833 465.377 448.831 460.197 453.474C452.468 460.417 445.154 466.536 439.439 472.871C435.675 477.052 430.896 480.644 426.058 484.155C419.644 488.801 413.091 493.324 408.646 499.155C405.855 502.82 403.419 506.418 401.113 509.747C397.426 515.055 394.191 519.586 390.318 522.603C383.024 528.278 377.414 533.897 372.242 538.887C366.065 544.854 360.776 549.728 354.755 551.951C353.845 552.286 352.778 552.639 351.595 553.017C347.196 554.425 340.958 556.379 333.417 560.315C330.214 561.987 326.789 564.005 323.173 566.476C318.856 569.427 315.167 572.871 311.449 576.239C306.054 581.132 300.769 585.779 293.739 588.236C292.695 588.6 291.444 588.634 290.307 588.66C288.86 588.694 287.601 588.716 287.168 589.405C285.889 591.428 283.62 594.047 281.051 596.9C279.165 598.997 277.15 601.206 275.337 603.374C257.968 611.61 240.053 619.028 221.754 625.471C213.378 628.421 204.877 631.181 196.327 633.717C191.452 632.971 186.471 632.395 181.403 632.212C174.802 631.962 166.581 633.24 156.003 634.473C148.2 635.379 139.095 636.262 128.362 636.374C108.633 636.617 88.5234 638.091 75.4825 639.318C72.7164 639.588 69.9395 639.849 66.9744 640.1C55.646 640.925 41.4594 642.287 14.1237 639.802C-11.7414 637.302 -33.6735 631.234 -49.7875 625.438C-58.0574 622.477 -64.7386 619.662 -69.9792 617.458C-78.885 613.727 -89.6043 608.436 -100.008 602.152C-116.347 592.453 -131.456 579.986 -139.768 572.563C-142.751 569.945 -145.856 567.148 -149.12 564.001C-157.473 555.889 -167.145 545.561 -177.246 529.527C-178.027 528.28 -178.807 527.001 -179.585 525.686C-190.791 506.442 -194.843 492.898 -197.805 479.043C-198.963 473.376 -198.531 468.035 -197.888 462.686C-196.963 455.039 -195.678 447.426 -197.404 437.565C-197.804 435.25 -198.398 432.835 -198.979 430.263C-200.048 425.557 -201.059 420.34 -200.705 415.086C-200.581 413.246 -200.115 411.629 -199.644 410.054C-199.126 408.321 -198.604 406.628 -198.502 404.705C-198.129 397.622 -197.646 390.574 -197.042 384.536C-196.259 376.664 -195.248 370.096 -194.126 366.174C-192.114 359.106 -191.038 351.342 -189.595 343.385C-188.505 337.35 -187.243 331.339 -185.292 325.647C-179.844 309.584 -172.287 287.646 -162.851 265.721C-159.271 257.389 -154.608 251.281 -148.438 243.726C-144.618 239.075 -140.111 233.739 -134.854 227.235C-131.859 223.529 -130.254 219.663 -128.766 216.146C-127.398 212.912 -126.078 209.905 -123.773 207.524C-121.736 205.422 -119.385 204.904 -117.161 204.428C-114.694 203.914 -112.397 203.466 -110.766 200.937C-109.898 199.591 -109.286 197.595 -108.528 195.214C-108.229 194.273 -107.902 193.269 -107.532 192.224C-107.324 192.464 -107.116 192.653 -106.953 192.789C-105.803 193.751 -103.213 191.856 -100.71 190.101C-99.7059 189.393 -98.7041 188.69 -97.806 188.179C-94.5184 186.304 -89.8389 181.298 -86.4139 177.474C-84.9626 175.849 -83.2776 174.711 -81.3032 173.396C-79.5492 172.229 -77.5673 170.924 -75.2903 169.015C-73.9867 167.922 -72.7855 167.312 -71.7881 166.811C-71.0659 166.449 -70.4501 166.142 -69.9845 165.754C-69.5816 165.418 -69.5907 164.815 -69.5999 164.137C-69.6066 163.649 -69.6123 163.118 -69.464 162.62C-69.1096 161.429 -68.2354 160.306 -67.3986 159.743C-67.0122 159.484 -66.6374 159.348 -66.2651 159.215C-65.8313 159.059 -65.3984 158.907 -64.9416 158.554C-62.8521 156.942 -61.3283 154.785 -59.7807 152.606C-58.0701 150.202 -56.2519 147.695 -53.4638 145.716C-52.5864 145.093 -51.5359 144.556 -50.5168 144.04C-49.4502 143.499 -48.4133 142.976 -47.6501 142.4C-44.5557 140.063 -42.5895 136.905 -40.706 133.972C-39.4583 132.025 -38.2602 130.19 -36.8589 128.82C-34.2843 126.306 -33.6316 124.1 -33.1499 122.469C-32.899 121.623 -32.6934 120.931 -32.2855 120.438C-31.8175 120.101 -31.3383 119.765 -30.8658 119.44C-30.399 119.182 -29.9163 118.916 -29.5403 118.571C-29.5117 118.545 -29.4857 118.517 -29.4575 118.491C-26.7705 116.717 -24.0261 115.1 -21.2821 113.513C-15.1384 109.966 -9.08824 106.629 -3.46617 101.865C-2.24905 100.835 -1.28113 99.4832 -0.266393 98.0961C0.971821 96.4002 2.25556 94.6658 3.99703 93.51C8.13935 90.7606 12.848 88.6233 17.3991 86.65C24.2712 83.6617 31.1231 80.8237 36.007 76.205C37.6333 74.6712 39.0695 72.9088 40.5244 71.1409C41.335 70.1557 42.1545 69.1652 43.0153 68.218C43.1496 68.9561 43.3667 69.5955 43.5696 70.1915C43.9883 71.4201 44.3443 72.4718 43.8158 73.8597C42.5625 77.1412 41.488 81.3095 42.9183 83.0055C43.3059 83.4661 43.5852 84.0715 43.8614 84.6841C44.5545 86.222 45.2654 87.7851 47.7966 87.1617C49.5045 86.738 53.8155 85.5665 55.5546 83.0785C55.9329 82.5358 55.9721 81.8742 56.0176 81.1382C56.0393 80.7858 56.0628 80.4158 56.1258 80.0329C56.2992 78.9791 56.7723 77.8245 58.3369 76.6763C58.6958 76.4131 59.0915 76.1351 59.5024 75.8529C61.1419 74.7264 62.9827 73.4829 63.277 72.3053C63.6155 70.9487 62.8721 70.0229 62.0013 68.9449C60.8695 67.5406 59.5108 65.8772 60.109 62.6402C60.2287 61.9997 60.8377 61.4683 61.298 61.0675C61.6222 60.7851 61.8687 60.5666 61.8247 60.4182C61.7728 60.2484 61.4822 59.9948 61.1126 59.6751C59.8109 58.5488 57.5218 56.574 61.3391 54.3672C62.3721 53.7724 63.6327 53.2484 64.7692 52.7809C66.4579 52.0842 67.8595 51.5155 67.824 51.0126C67.8092 50.8225 67.7689 50.6293 67.7167 50.4345C69.0231 49.8117 70.3298 49.1944 71.6371 48.5826C73.5333 48.2241 75.817 47.0019 78.6749 45.5049C79.3684 45.1417 80.1006 44.7621 80.8643 44.3754C83.4328 43.2316 86.0793 42.071 88.6931 40.9523C90.831 40.1905 93.1632 39.5128 95.7048 39.0019C100.789 37.983 105.616 38.0125 110.323 38.092C112.303 38.1271 114.26 38.1748 116.205 38.1588C115.596 38.5164 115.057 38.8637 114.668 39.192C112.005 41.4407 111.584 43.8189 111.206 45.9988C110.955 47.4499 110.721 48.8174 109.868 50.0148C108.301 52.2121 109.194 53.5684 109.825 54.5806C110.156 55.1046 110.422 55.5362 110.268 55.9323C110.144 56.2504 109.677 56.5841 109.196 56.93C108.776 57.2313 108.343 57.5448 108.119 57.8589C105.396 61.6804 107.092 62.401 109.513 63.4654C110.851 64.0529 112.409 64.7516 113.595 66.1222C114.757 67.6165 114.839 68.1663 113.248 69.6955C115.106 69.8468 116.932 70.0197 118.801 70.1816C119.361 69.8675 119.573 69.1522 119.815 68.0132C120.248 65.9774 123.648 63.8179 126.314 62.1687C127.548 61.4034 128.624 60.7422 129.175 60.2327C132.105 57.529 130.382 56.1757 128.842 54.9875C127.997 54.334 127.213 53.7308 127.315 52.9743C127.358 52.6511 127.035 52.4819 126.707 52.3086C126.454 52.1747 126.195 52.0394 126.099 51.8292C125.409 50.2999 127.011 48.2847 128.527 46.4212C129.404 45.3493 130.245 44.3267 130.592 43.4668C130.698 43.2047 130.765 42.9538 130.826 42.7121C130.915 42.3592 131.004 42.0211 131.217 41.677C131.704 40.8929 132.989 39.9852 134.403 39.0014C135.128 38.4969 135.886 37.9719 136.585 37.4308C137.492 36.7297 137.625 35.9697 137.769 35.1731C137.871 34.6104 137.982 34.0287 138.368 33.4382C139.067 32.3696 140.926 31.3815 142.653 30.478C143.41 30.0824 144.151 29.6956 144.756 29.3266C145.002 29.1762 145.091 29.0228 145.065 28.8656C147.908 27.2765 150.619 25.7519 153.265 24.2866C166.507 16.9933 178.498 10.8466 197.785 7.69954C201.461 7.10712 205.303 6.12884 209.145 5.00777C221.778 2.83768 234.535 1.15115 247.302 -1.54531e-05C250.007 1.13395 253.247 1.96427 257.007 2.49628C264.051 3.50164 271.008 3.16317 279.339 2.99798C285.426 2.8861 292.33 2.87077 300.253 3.70416C313.629 5.11689 327.207 6.81952 342.436 8.82475C357.537 10.7638 374.882 14.0487 386.876 16.952C393.509 18.5167 400.001 21.5688 405.995 24.6386C414.325 28.9115 421.559 33.2097 427.039 32.8694C428.823 32.7706 430.759 32.167 432.659 31.6026C434.011 31.2005 435.349 30.8225 436.584 30.6475C439.141 31.9446 441.616 33.2551 444.157 34.6538C448.171 38.1922 454.297 43.0706 461.739 45.3849C464.184 47.0311 466.56 48.7017 468.871 50.4017C473.896 54.0776 478.588 57.8504 483.194 61.889C484.69 63.2047 486.178 64.5512 487.646 65.9206C487.659 65.9337 487.673 65.947 487.687 65.9602C490.649 68.7234 493.557 71.6057 496.301 74.5105C497.477 75.7547 498.635 77.013 499.781 78.2905C502.689 81.5331 505.496 84.8869 508.125 88.2739C509.517 90.0671 510.889 91.8988 512.226 93.7587C514.397 96.7779 516.483 99.8735 518.456 103.01C521.654 108.093 524.551 113.269 527.195 118.592C527.627 119.464 527.883 120.397 527.894 121.181C527.905 121.967 527.676 122.542 527.242 122.791C526.808 123.04 526.194 122.949 525.52 122.562C524.848 122.174 524.17 121.518 523.613 120.749C520.207 116.042 516.61 111.551 512.785 107.221C510.427 104.551 507.981 101.95 505.48 99.4417C503.94 97.8959 502.379 96.3851 500.805 94.9193C497.833 92.1497 494.721 89.4364 491.55 86.8556C490.301 85.8392 489.044 84.8453 487.775 83.8683C484.806 81.5824 481.71 79.3359 478.59 77.2181C478.571 77.2053 478.552 77.1925 478.533 77.1797C477.002 76.1409 475.456 75.1262 473.91 74.1437C469.127 71.0944 464.318 68.3238 459.257 65.662C456.62 64.2858 453.922 62.9428 451.166 61.6456C449.635 60.9256 448.095 60.2249 446.572 59.5538C445.739 59.1844 444.898 58.8169 444.057 58.4568C424.605 50.1668 404.256 44.7679 383.455 41.5634C362.718 38.3829 341.663 37.4433 320.788 38.2653C299.855 39.0902 279.067 41.6739 258.575 45.6856C194.505 58.315 133.637 84.6135 79.011 119.671C22.6933 155.885 -27.0749 201.652 -64.1216 254.62C-74.4954 269.477 -84.0551 285.27 -92.0305 301.11C-100.095 317.117 -106.674 333.205 -111.703 349.816C-113.243 354.926 -114.614 360 -115.877 365.381Z" fill="#F6F4F2"/>
</svg>
