<svg width="402" height="642" viewBox="0 0 402 642" fill="none" xmlns="http://www.w3.org/2000/svg">
<ellipse cx="192.42" cy="316.101" rx="384.652" ry="258.348" transform="rotate(-30 192.42 316.101)" fill="#3F3F3F" fill-opacity="0.6"/>
<path d="M-115.877 365.381C-125.847 407.69 -131.731 450.744 -111.247 488.262C-110.807 489.06 -110.357 489.853 -109.896 490.643C-83.701 535.907 -29.7059 556.121 24.4821 565.74C80.122 575.989 141.384 570.64 199.684 554.879C236.255 544.981 271.987 530.957 306.288 513.327C326.924 502.718 346.964 490.839 366.207 477.689C417.206 442.776 463.128 398.883 496.635 346.23C519.203 310.597 536.105 270.456 540.947 228.127C543.048 209.581 542.745 190.71 539.441 172.11C536.987 158.243 532.857 144.584 527.047 131.543C526.243 129.73 525.774 127.821 525.779 126.193C525.786 124.567 526.267 123.352 527.188 122.822C528.108 122.293 529.415 122.489 530.831 123.379C532.244 124.268 533.642 125.786 534.709 127.575C542.443 140.549 548.589 154.595 552.986 169.242C557.878 185.508 560.614 202.44 561.409 219.492C557.019 222.137 553.689 225.667 551.816 232.142C550.863 235.461 550.112 240.352 550.493 244.005C550.84 247.31 551.785 249.931 552.659 252.46C553.566 255.125 554.408 257.605 554.295 260.682C554.101 265.887 554.891 271.116 555.575 276.624C555.821 278.637 556.05 280.702 556.202 282.828C552.963 298.78 548.377 314.519 542.75 329.8C539.843 335.383 537.092 340.402 535.097 344.909C533.328 348.907 532.35 352.856 531.485 356.95C530.429 359.239 529.325 361.563 528.243 363.796C521.135 378.431 513.156 392.576 504.386 406.323C496.109 415.9 487.176 425.75 475.683 438.391C470.725 443.833 465.377 448.831 460.197 453.474C452.468 460.418 445.154 466.537 439.439 472.872C435.675 477.052 430.896 480.645 426.058 484.155C419.644 488.801 413.091 493.325 408.646 499.155C405.855 502.82 403.419 506.418 401.113 509.747C397.426 515.055 394.191 519.587 390.318 522.603C383.024 528.278 377.414 533.897 372.242 538.888C366.065 544.854 360.776 549.729 354.755 551.952C353.845 552.287 352.778 552.639 351.595 553.017C347.196 554.426 340.958 556.379 333.417 560.316C330.214 561.987 326.789 564.005 323.173 566.476C318.856 569.427 315.167 572.871 311.449 576.24C306.054 581.132 300.769 585.78 293.739 588.236C292.695 588.6 291.444 588.635 290.307 588.661C288.86 588.694 287.601 588.716 287.168 589.405C285.889 591.429 283.62 594.047 281.051 596.901C279.165 598.997 277.15 601.206 275.337 603.374C257.968 611.61 240.053 619.028 221.754 625.471C213.378 628.421 204.877 631.181 196.327 633.717C191.452 632.971 186.471 632.396 181.403 632.212C174.802 631.962 166.581 633.24 156.003 634.473C148.2 635.379 139.095 636.262 128.362 636.374C108.633 636.618 88.5234 638.091 75.4825 639.318C72.7164 639.588 69.9395 639.849 66.9744 640.101C55.646 640.925 41.4594 642.287 14.1237 639.803C-11.7414 637.302 -33.6735 631.234 -49.7875 625.439C-58.0574 622.477 -64.7386 619.662 -69.9792 617.458C-78.885 613.727 -89.6043 608.436 -100.008 602.152C-116.347 592.454 -131.456 579.986 -139.768 572.563C-142.751 569.946 -145.856 567.149 -149.12 564.002C-157.473 555.889 -167.145 545.562 -177.246 529.528C-178.027 528.281 -178.807 527.001 -179.585 525.687C-190.791 506.442 -194.843 492.898 -197.805 479.044C-198.963 473.376 -198.531 468.035 -197.888 462.686C-196.963 455.04 -195.678 447.426 -197.404 437.565C-197.804 435.25 -198.398 432.835 -198.979 430.263C-200.048 425.557 -201.059 420.34 -200.705 415.086C-200.581 413.247 -200.115 411.63 -199.644 410.054C-199.126 408.321 -198.604 406.628 -198.502 404.706C-198.129 397.622 -197.646 390.574 -197.042 384.536C-196.259 376.665 -195.248 370.097 -194.126 366.174C-192.114 359.106 -191.038 351.343 -189.595 343.385C-188.505 337.35 -187.243 331.34 -185.292 325.647C-179.844 309.585 -172.287 287.647 -162.851 265.722C-159.271 257.389 -154.608 251.281 -148.438 243.726C-144.618 239.075 -140.111 233.739 -134.854 227.236C-131.859 223.53 -130.254 219.663 -128.766 216.146C-127.398 212.912 -126.078 209.905 -123.773 207.524C-121.736 205.422 -119.385 204.904 -117.161 204.429C-114.694 203.915 -112.397 203.466 -110.766 200.937C-109.898 199.592 -109.286 197.595 -108.528 195.215C-108.229 194.273 -107.902 193.27 -107.532 192.224C-107.324 192.465 -107.116 192.653 -106.953 192.789C-105.803 193.751 -103.213 191.856 -100.71 190.101C-99.7059 189.394 -98.7041 188.69 -97.806 188.179C-94.5184 186.304 -89.8389 181.298 -86.4139 177.474C-84.9626 175.849 -83.2776 174.711 -81.3032 173.397C-79.5492 172.229 -77.5673 170.924 -75.2903 169.015C-73.9867 167.922 -72.7855 167.312 -71.7881 166.811C-71.0659 166.449 -70.4501 166.142 -69.9845 165.754C-69.5816 165.418 -69.5907 164.816 -69.5999 164.137C-69.6066 163.649 -69.6123 163.119 -69.464 162.62C-69.1096 161.429 -68.2354 160.307 -67.3986 159.744C-67.0122 159.484 -66.6374 159.349 -66.2651 159.215C-65.8313 159.06 -65.3984 158.907 -64.9416 158.554C-62.8521 156.942 -61.3283 154.786 -59.7807 152.606C-58.0701 150.202 -56.2519 147.695 -53.4638 145.716C-52.5864 145.094 -51.5359 144.556 -50.5168 144.04C-49.4502 143.499 -48.4133 142.976 -47.6501 142.4C-44.5557 140.063 -42.5895 136.906 -40.706 133.972C-39.4583 132.025 -38.2602 130.19 -36.8589 128.82C-34.2843 126.306 -33.6316 124.1 -33.1499 122.469C-32.899 121.624 -32.6934 120.931 -32.2855 120.439C-31.8175 120.101 -31.3383 119.765 -30.8658 119.44C-30.399 119.182 -29.9163 118.916 -29.5403 118.571C-29.5117 118.545 -29.4857 118.517 -29.4575 118.491C-26.7705 116.718 -24.0261 115.1 -21.2821 113.513C-15.1384 109.967 -9.08824 106.63 -3.46617 101.865C-2.24905 100.835 -1.28113 99.4835 -0.266393 98.0963C0.971821 96.4005 2.25556 94.666 3.99703 93.5103C8.13935 90.7609 12.848 88.6235 17.3991 86.6502C24.2712 83.6619 31.1231 80.824 36.007 76.2052C37.6333 74.6715 39.0695 72.909 40.5244 71.1411C41.335 70.156 42.1545 69.1655 43.0153 68.2182C43.1496 68.9563 43.3667 69.5957 43.5696 70.1918C43.9883 71.4203 44.3443 72.472 43.8158 73.86C42.5625 77.1415 41.488 81.3097 42.9183 83.0057C43.3059 83.4663 43.5852 84.0717 43.8614 84.6843C44.5545 86.2222 45.2654 87.7853 47.7966 87.1619C49.5045 86.7383 53.8155 85.5668 55.5546 83.0787C55.9329 82.5361 55.9721 81.8744 56.0176 81.1384C56.0393 80.786 56.0628 80.4161 56.1258 80.0331C56.2992 78.9794 56.7723 77.8247 58.3369 76.6765C58.6958 76.4133 59.0915 76.1353 59.5024 75.8532C61.1419 74.7266 62.9827 73.4831 63.277 72.3056C63.6155 70.949 62.8721 70.0232 62.0013 68.9452C60.8695 67.5409 59.5108 65.8774 60.109 62.6405C60.2287 62 60.8377 61.4686 61.298 61.0678C61.6222 60.7854 61.8687 60.5668 61.8247 60.4184C61.7728 60.2486 61.4822 59.9951 61.1126 59.6754C59.8109 58.5491 57.5218 56.5742 61.3391 54.3674C62.3721 53.7726 63.6327 53.2487 64.7692 52.7811C66.4579 52.0844 67.8595 51.5157 67.824 51.0129C67.8092 50.8228 67.7689 50.6296 67.7167 50.4348C69.0231 49.8119 70.3298 49.1947 71.6371 48.5829C73.5333 48.2244 75.817 47.0022 78.6749 45.5052C79.3684 45.1419 80.1006 44.7623 80.8643 44.3757C83.4328 43.2318 86.0793 42.0713 88.6931 40.9525C90.831 40.1908 93.1632 39.5131 95.7048 39.0021C100.789 37.9833 105.616 38.0128 110.323 38.0922C112.303 38.1273 114.26 38.1751 116.205 38.1591C115.596 38.5167 115.057 38.864 114.668 39.1923C112.005 41.441 111.584 43.8191 111.206 45.9991C110.955 47.4502 110.721 48.8176 109.868 50.015C108.301 52.2123 109.194 53.5687 109.825 54.5808C110.156 55.1049 110.422 55.5365 110.268 55.9326C110.144 56.2507 109.677 56.5843 109.196 56.9302C108.776 57.2315 108.343 57.5451 108.119 57.8592C105.396 61.6806 107.092 62.4012 109.513 63.4656C110.851 64.0532 112.409 64.7519 113.595 66.1225C114.757 67.6167 114.839 68.1665 113.248 69.6958C115.106 69.847 116.932 70.0199 118.801 70.1818C119.361 69.8677 119.573 69.1524 119.815 68.0135C120.248 65.9776 123.648 63.8181 126.314 62.1689C127.548 61.4036 128.624 60.7425 129.175 60.233C132.105 57.5293 130.382 56.176 128.842 54.9878C127.997 54.3343 127.213 53.731 127.315 52.9746C127.358 52.6514 127.035 52.4821 126.707 52.3089C126.454 52.175 126.195 52.0397 126.099 51.8294C125.409 50.3001 127.011 48.285 128.527 46.4215C129.404 45.3495 130.245 44.3269 130.592 43.467C130.698 43.205 130.765 42.9541 130.826 42.7124C130.915 42.3595 131.004 42.0214 131.217 41.6772C131.704 40.8931 132.989 39.9854 134.403 39.0016C135.128 38.4971 135.886 37.9722 136.585 37.431C137.492 36.7299 137.625 35.97 137.769 35.1734C137.871 34.6106 137.982 34.0289 138.368 33.4385C139.067 32.3699 140.926 31.3818 142.653 30.4782C143.41 30.0827 144.151 29.6959 144.756 29.3268C145.002 29.1765 145.091 29.0231 145.065 28.8658C147.908 27.2767 150.619 25.7522 153.265 24.2869C166.507 16.9935 178.498 10.8468 197.785 7.69979C201.461 7.10736 205.303 6.12909 209.145 5.00801C221.778 2.83793 234.535 1.1514 247.302 0.000228688C250.007 1.1342 253.247 1.96452 257.007 2.49652C264.051 3.50188 271.008 3.16341 279.339 2.99822C285.426 2.88634 292.33 2.87102 300.253 3.7044C313.629 5.11714 327.207 6.81977 342.436 8.82499C357.537 10.764 374.882 14.0489 386.876 16.9522C393.509 18.517 400.001 21.569 405.995 24.6388C414.325 28.9118 421.559 33.2099 427.039 32.8696C428.823 32.7708 430.759 32.1672 432.659 31.6029C434.011 31.2007 435.349 30.8227 436.584 30.6478C439.141 31.9449 441.616 33.2554 444.157 34.6541C448.171 38.1924 454.297 43.0708 461.739 45.3852C464.184 47.0313 466.56 48.7019 468.871 50.402C473.896 54.0779 478.588 57.8507 483.194 61.8893C484.69 63.205 486.178 64.5515 487.646 65.9208C487.659 65.934 487.673 65.9472 487.687 65.9604C490.649 68.7237 493.557 71.6059 496.301 74.5107C497.477 75.7549 498.635 77.0132 499.781 78.2907C502.689 81.5334 505.496 84.8872 508.125 88.2741C509.517 90.0673 510.889 91.899 512.226 93.759C514.397 96.7782 516.483 99.8737 518.456 103.01C521.654 108.093 524.551 113.27 527.195 118.593C527.627 119.464 527.883 120.397 527.894 121.182C527.905 121.967 527.676 122.542 527.242 122.791C526.808 123.04 526.194 122.949 525.52 122.562C524.848 122.174 524.17 121.518 523.613 120.749C520.207 116.042 516.61 111.552 512.785 107.221C510.427 104.551 507.981 101.951 505.48 99.442C503.94 97.8961 502.379 96.3854 500.805 94.9195C497.833 92.15 494.721 89.4366 491.55 86.8559C490.301 85.8395 489.044 84.8455 487.775 83.8686C484.806 81.5827 481.71 79.3361 478.59 77.2183C478.571 77.2055 478.552 77.1927 478.533 77.18C477.002 76.1412 475.456 75.1265 473.91 74.1439C469.127 71.0946 464.318 68.324 459.257 65.6623C456.62 64.286 453.922 62.943 451.166 61.6458C449.635 60.9259 448.095 60.2251 446.572 59.554C445.739 59.1846 444.898 58.8171 444.057 58.4571C424.605 50.1671 404.256 44.7681 383.455 41.5636C362.718 38.3832 341.663 37.4435 320.788 38.2655C299.855 39.0905 279.067 41.6741 258.575 45.6858C194.505 58.3153 133.637 84.6138 79.011 119.672C22.6933 155.885 -27.0749 201.653 -64.1216 254.62C-74.4954 269.477 -84.0551 285.27 -92.0305 301.11C-100.095 317.118 -106.674 333.205 -111.703 349.817C-113.243 354.927 -114.614 360 -115.877 365.381Z" fill="#3F3F3F" fill-opacity="0.6"/>
</svg>
