<svg width="86" height="86" viewBox="0 0 86 86" fill="none" xmlns="http://www.w3.org/2000/svg">
<g opacity="0.85">
<path d="M17.917 25.0833V17.9167C17.917 16.9663 18.2945 16.0549 18.9665 15.3829C19.6385 14.7109 20.55 14.3333 21.5003 14.3333H28.667M68.0837 25.0833V17.9167C68.0837 16.9663 67.7061 16.0549 67.0341 15.3829C66.3621 14.7109 65.4507 14.3333 64.5003 14.3333H57.3337M17.917 60.9167V68.0833C17.917 69.0337 18.2945 69.9451 18.9665 70.6171C19.6385 71.2891 20.55 71.6667 21.5003 71.6667H28.667M68.0837 60.9167V68.0833C68.0837 69.0337 67.7061 69.9451 67.0341 70.6171C66.3621 71.2891 65.4507 71.6667 64.5003 71.6667H57.3337" stroke="#0B0B0C" stroke-width="5.73333" stroke-linecap="round" stroke-linejoin="round"/>
<path d="M32.2496 41.5667C33.437 41.5667 34.3996 40.6041 34.3996 39.4167C34.3996 38.2293 33.437 37.2667 32.2496 37.2667C31.0622 37.2667 30.0996 38.2293 30.0996 39.4167C30.0996 40.6041 31.0622 41.5667 32.2496 41.5667Z" fill="#0B0B0C" stroke="#0B0B0C" stroke-width="5.73333" stroke-linecap="round" stroke-linejoin="round"/>
<path d="M53.7496 41.5667C54.937 41.5667 55.8996 40.6041 55.8996 39.4167C55.8996 38.2293 54.937 37.2667 53.7496 37.2667C52.5622 37.2667 51.5996 38.2293 51.5996 39.4167C51.5996 40.6041 52.5622 41.5667 53.7496 41.5667Z" fill="#0B0B0C" stroke="#0B0B0C" stroke-width="5.73333" stroke-linecap="round" stroke-linejoin="round"/>
<path d="M34.042 53.75C36.9087 55.9 39.7753 56.6167 43.0003 56.6167C46.2253 56.6167 49.092 55.9 51.9587 53.75" stroke="#0B0B0C" stroke-width="5.73333" stroke-linecap="round" stroke-linejoin="round"/>
<path d="M43 35.8333V46.5833" stroke="#0B0B0C" stroke-width="5.73333" stroke-linecap="round" stroke-linejoin="round"/>
</g>
</svg>
