<svg width="48" height="48" viewBox="0 0 48 48" fill="none" xmlns="http://www.w3.org/2000/svg">
  <g>
    <path d="M14 11 L14 7" stroke="#D44B00" stroke-width="2" stroke-linecap="round"/>
    <path d="M20 11 L20 5" stroke="#D44B00" stroke-width="2" stroke-linecap="round"/>
    <path d="M26 11 L26 7" stroke="#D44B00" stroke-width="2" stroke-linecap="round"/>
    <circle cx="14" cy="6" r="1.5" fill="#D44B00"/>
    <circle cx="20" cy="4" r="1.5" fill="#D44B00"/>
    <circle cx="26" cy="6" r="1.5" fill="#D44B00"/>
    <rect x="9" y="12" width="22" height="18" rx="3" fill="#D44B00"/>
    <rect x="13" y="17" width="4" height="5" rx="1" fill="#FFEDDC"/>
    <rect x="23" y="17" width="4" height="5" rx="1" fill="#FFEDDC"/>
    <rect x="15" y="25" width="10" height="2" rx="1" fill="#FFEDDC"/>
    <rect x="11" y="30" width="18" height="10" rx="2" fill="#D44B00"/>
    <path d="M31 18 L35 14 L37 16 L33 20 Z" fill="#D44B00"/>
    <path d="M35 13 L38 10" stroke="#D44B00" stroke-width="2" stroke-linecap="round"/>
    <circle cx="38.5" cy="9.5" r="1.5" fill="#D44B00"/>
  </g>
</svg>
