<svg width="131" height="154" viewBox="0 0 131 154" fill="none" xmlns="http://www.w3.org/2000/svg">
<path d="M77.4471 53.3859C87.5673 53.1196 98.848 52.7885 108.907 53.2565C119.61 53.7549 126.333 54.2914 128.421 66.0552C131.115 81.2318 131.282 101.449 130.772 116.953C130.563 123.326 130.19 139.031 126.348 143.696C123.388 147.287 114.565 147.714 109.988 148.246C83.8312 151.282 55.7266 152.903 29.4139 153.219C18.8866 153.344 6.87921 156.103 3.49691 143.049C-0.532172 127.503 -0.239224 99.8972 0.327663 83.4727C0.483652 78.9224 0.72715 70.636 1.97126 66.4928C4.21217 59.0395 18.2322 58.4308 24.9207 57.5063C42.2164 55.1208 59.9801 53.8462 77.4471 53.3821V53.3859ZM64.8919 98.2194C62.339 98.5237 60.1704 99.9086 58.9985 102.218C57.7164 104.752 56.0652 115.648 55.8635 118.844C55.6809 121.736 55.8255 124.22 58.8996 125.297C61.4373 126.187 69.952 125.715 72.5962 124.932C76.9943 123.63 75.9937 119.704 75.5257 116.28C75.0387 112.734 73.7756 103.515 71.8239 100.974C70.1955 98.8547 67.5209 97.9036 64.8919 98.2156V98.2194Z" fill="#D44B00"/>
<path d="M95.69 47.1067C94.5524 48.2138 87.3275 48.4687 86.3002 46.9735C85.4176 45.6876 86.0339 39.5393 85.9046 37.4848C85.2806 27.4597 83.6142 14.1474 72.4971 10.5977C58.1994 6.03213 44.1376 15.8442 40.371 29.6245C38.56 36.2521 39.047 42.895 38.3964 49.6025C36.7795 50.9417 29.5583 51.3831 28.9306 49.2106C28.7365 48.541 28.5197 46.0072 28.4626 45.1169C26.9902 22.6773 39.1155 1.31061 63.271 0.0626947C89.0472 -1.26892 95.5264 18.8194 96.1694 40.5247C96.2074 41.7993 96.3977 46.4143 95.6862 47.1067H95.69Z" fill="#EBE6E4"/>
<path d="M64.2357 89.8029C68.0124 89.3548 71.8546 90.7157 74.1938 93.7654C76.9976 97.4164 78.8122 110.659 79.5117 115.753C80.184 120.672 81.6269 126.312 75.3033 128.182C71.5048 129.302 59.273 129.985 55.6275 128.706C51.2114 127.16 50.9982 123.591 51.2661 119.437C51.5612 114.84 53.9278 99.1872 55.7697 95.5526C57.453 92.2351 60.5684 90.2456 64.2357 89.8084V89.8029Z" fill="white"/>
</svg>
