<svg width="12" height="16" viewBox="0 0 12 16" fill="none" xmlns="http://www.w3.org/2000/svg">
<path fill-rule="evenodd" clip-rule="evenodd" d="M7.425 2.432C9.408 2.622 10.963 3.21 11.135 4.96C11.252 6.236 10.697 6.995 9.78 7.423C11.261 7.782 12.162 8.625 11.976 10.495C11.749 12.838 9.941 13.447 7.356 13.575L7.36 15.995L5.838 15.997L5.834 13.577C5.66733 13.5757 5.49433 13.5767 5.315 13.58C5.077 13.583 4.831 13.586 4.584 13.579L4.588 15.999L3.068 16L3.064 13.58L0.02 13.522L0.276 11.754C0.276 11.754 1.426 11.778 1.405 11.766C1.828 11.764 1.954 11.473 1.985 11.281L1.977 7.403L1.989 4.643C1.943 4.355 1.741 4.009 1.119 3.999C1.152 3.969 0.00400019 4 0.00400019 4L0 2.38L3.12 2.375L3.116 0.00500011L4.687 0.00299978L4.691 2.373C4.995 2.365 5.294 2.368 5.597 2.37L5.897 2.372L5.892 0.00199986L7.422 0L7.425 2.432ZM4.505 6.892L4.581 6.894C5.507 6.934 8.251 7.049 8.254 5.437C8.25 3.905 5.915 3.955 4.831 3.977C4.701 3.981 4.592 3.98267 4.504 3.982L4.505 6.892ZM4.634 11.642L4.5 11.637V8.727C4.59733 8.72833 4.717 8.72767 4.859 8.725C6.141 8.71 9.004 8.675 8.991 10.219C9.005 11.816 5.773 11.687 4.634 11.642Z" fill="white"/>
</svg>
