<svg width="14" height="19" viewBox="0 0 14 19" fill="none" xmlns="http://www.w3.org/2000/svg">
<path d="M7.83008 0.125C8.023 0.1252 8.17851 0.281574 8.17871 0.473633V1.82324C8.17877 1.86908 8.19714 1.91285 8.22949 1.94531C8.26203 1.97785 8.30653 1.99609 8.35254 1.99609H12.958C13.0686 1.99628 13.1748 2.04086 13.2529 2.11914C13.3311 2.19741 13.375 2.30347 13.375 2.41406V5.36816C13.375 5.47871 13.331 5.58485 13.2529 5.66309C13.1748 5.74131 13.0686 5.78497 12.958 5.78516H12.9424C12.8708 5.78496 12.8006 5.76663 12.7383 5.73145C12.6759 5.69613 12.623 5.64536 12.5859 5.58398V5.58301L12.1953 4.93359C11.7726 4.23041 11.008 3.79883 10.1826 3.79883H8.20312C8.19667 3.79897 8.1901 3.80205 8.18555 3.80664C8.1811 3.81129 8.17871 3.81778 8.17871 3.82422V6.66406C8.17866 6.91479 7.86965 7.03329 7.70117 6.84863V6.84766L6.62402 5.66211C6.50294 5.52891 6.43652 5.35512 6.43652 5.17578V3.82324C6.43639 3.81016 6.42525 3.7998 6.41211 3.7998H2.93652L8.50977 9.03613L8.5127 9.03809V9.03906L8.52246 9.04883L8.55273 9.09375C8.57919 9.14088 8.59273 9.19438 8.59277 9.24902C8.59277 9.31776 8.56939 9.38364 8.52832 9.43848L8.5293 9.43945L8.52832 9.44141L8.52051 9.45312L8.50977 9.46289L2.93652 14.7002H6.41211C6.41847 14.7002 6.42519 14.6979 6.42969 14.6934C6.43417 14.6889 6.43652 14.6821 6.43652 14.6758V13.3232C6.43659 13.1435 6.50311 12.971 6.62402 12.8379L7.70117 11.6514C7.73816 11.6103 7.78711 11.5813 7.84082 11.5684C7.89469 11.5554 7.95122 11.5592 8.00293 11.5791C8.0548 11.5991 8.09949 11.6348 8.13086 11.6807C8.16209 11.7265 8.17892 11.7805 8.17871 11.8359V14.6758L8.18066 14.6855C8.18187 14.6884 8.18339 14.6912 8.18555 14.6934C8.1877 14.6955 8.19057 14.697 8.19336 14.6982C8.19632 14.6995 8.1999 14.7002 8.20312 14.7002H10.1836C10.5881 14.7005 10.9855 14.5961 11.3379 14.3975C11.6903 14.1987 11.9863 13.9128 12.1953 13.5664L12.585 12.916H12.5859C12.6231 12.8544 12.6756 12.8029 12.7383 12.7676C12.8009 12.7324 12.8715 12.7138 12.9434 12.7139H12.957C13.0677 12.7139 13.1746 12.7577 13.2529 12.8359C13.3312 12.9142 13.375 13.0211 13.375 13.1318V16.085L13.3672 16.166C13.3619 16.193 13.3543 16.2196 13.3438 16.2451C13.3228 16.2959 13.2918 16.342 13.2529 16.3809C13.2141 16.4198 13.168 16.4507 13.1172 16.4717C13.0664 16.4927 13.012 16.504 12.957 16.5039H8.35156C8.25633 16.5039 8.17786 16.5808 8.17773 16.6768V18.0264C8.17754 18.2194 8.02133 18.375 7.8291 18.375H6.78516C6.59206 18.375 6.43575 18.2185 6.43555 18.0264V16.6768C6.43542 16.5808 6.3581 16.5032 6.2627 16.5029H0.542969C0.312714 16.5029 0.125 16.3167 0.125 16.0859V15.3887L0.132812 15.3096C0.147887 15.2319 0.185046 15.1597 0.240234 15.1016L0.24707 15.0938H0.248047L6.65918 9.36133C6.68744 9.33062 6.7041 9.29082 6.7041 9.24902C6.70398 9.20716 6.68763 9.16738 6.65918 9.13672L0.248047 3.40527L0.240234 3.39844L0.331055 3.31152L0.240234 3.39746C0.167182 3.32007 0.125977 3.21761 0.125977 3.11035V2.41309L0.133789 2.33105C0.150053 2.2513 0.189612 2.1775 0.248047 2.11914C0.326295 2.04116 0.432497 1.99708 0.542969 1.99707H6.2627C6.3583 1.99707 6.43639 1.91937 6.43652 1.82324V0.473633C6.43672 0.280621 6.59297 0.125049 6.78516 0.125H7.83008Z" fill="#FF5500" stroke="#FF5500" stroke-width="0.25"/>
</svg>
