<svg width="23" height="23" viewBox="0 0 23 23" fill="none" xmlns="http://www.w3.org/2000/svg">
<path fill-rule="evenodd" clip-rule="evenodd" d="M8.62319 21.7137C8.62319 22.0822 8.33566 22.2761 7.99062 22.1792C5.67062 21.4284 3.64643 19.9512 2.2102 17.9608C0.77397 15.9704 0 13.5698 0 11.1055C0 8.64116 0.77397 6.24056 2.2102 4.25019C3.64643 2.25981 5.67062 0.782627 7.99062 0.0318349C8.33566 -0.0845259 8.62319 0.128802 8.62319 0.497278V1.38938C8.62319 1.64149 8.4315 1.913 8.20148 1.99057C4.54023 3.34812 1.9141 6.91651 1.9141 11.0861C1.9141 15.2557 4.54023 18.8241 8.20148 20.1816C8.4315 20.2592 8.62319 20.5501 8.62319 20.7828V21.6943V21.7137Z" fill="white"/>
<path fill-rule="evenodd" clip-rule="evenodd" d="M12.4568 18.3784C12.4568 18.6499 12.246 18.8633 11.9776 18.8633H11.0192C10.7508 18.8633 10.54 18.6499 10.54 18.3784V16.8463C8.45056 16.5554 7.43461 15.3724 7.14708 13.7628C7.08957 13.4913 7.3196 13.2392 7.58796 13.2392H8.68058C8.91061 13.2392 9.1023 13.3943 9.14063 13.627C9.35149 14.5967 9.88822 15.3143 11.5751 15.3143C12.821 15.3143 13.6836 14.6161 13.6836 13.5689C13.6836 12.5216 13.1661 12.1337 11.345 11.8234C8.66141 11.455 7.39627 10.6404 7.39627 8.50716C7.39627 6.85871 8.62308 5.59814 10.5208 5.30724V3.81394C10.5208 3.54243 10.7316 3.3291 11 3.3291H11.9585C12.2268 3.3291 12.4377 3.54243 12.4377 3.81394V5.36542C13.9903 5.63692 14.968 6.52902 15.2747 8.00293C15.3322 8.27444 15.1213 8.54594 14.8338 8.54594H13.8178C13.607 8.54594 13.4153 8.3908 13.3578 8.19686C13.0894 7.26597 12.4185 6.85871 11.2875 6.85871C10.0224 6.85871 9.37066 7.4793 9.37066 8.35201C9.37066 9.2635 9.73487 9.72894 11.6901 10.0198C14.3162 10.3883 15.6772 11.1447 15.6772 13.4137C15.6772 15.1397 14.4121 16.5361 12.4377 16.8463V18.3784H12.4568Z" fill="white"/>
<path fill-rule="evenodd" clip-rule="evenodd" d="M15.0066 22.1804C14.6616 22.2968 14.374 22.0835 14.374 21.715V20.8229C14.374 20.5514 14.5274 20.2993 14.7957 20.2217C18.457 18.8641 21.0831 15.2957 21.0831 11.1261C21.0831 6.95655 18.457 3.38816 14.7957 2.03061C14.677 1.98019 14.5746 1.89716 14.5001 1.79092C14.4255 1.68468 14.3819 1.55945 14.374 1.42942V0.537317C14.374 0.168841 14.6616 -0.0444869 15.0066 0.0718739C19.6455 1.56517 23 5.96749 23 11.1455C23 16.3236 19.6455 20.7065 15.0066 22.2192V22.1804Z" fill="white"/>
</svg>
