<svg width="185" height="323" viewBox="0 0 185 323" fill="none" xmlns="http://www.w3.org/2000/svg">
<path d="M102.943 41.708C104.683 37.674 106.014 33.5031 107.659 29.4382C112.267 18.0574 119.06 6.02669 131.037 1.30841C135.107 -0.294647 139.13 -0.556352 143.161 1.26492C148.088 3.49165 150.89 7.64017 152.734 12.5756C160.515 33.4021 152.447 76.0726 148.797 98.2441C148.143 102.202 146.711 106.16 146.289 110.127C146.555 111.273 149.833 118.208 150.567 119.914C153.281 126.209 154.187 129.884 155.716 136.394C157.965 137.87 163.439 138.254 166.34 138.75C171.233 139.59 176.069 140.723 180.824 142.145C181.678 148.024 180.36 155.155 181.105 160.997C181.683 165.508 181.78 170.033 182.29 174.409C183.55 185.189 183.917 195.611 184.17 206.431C184.574 223.311 184.66 240.568 182.772 257.366C182.149 262.895 180.899 269.535 180.136 275.204C179.652 278.779 177.965 284.933 176.954 288.584C174.764 296.508 171.855 305.51 167.241 312.309C164.439 315.859 152.984 322.548 148.39 322.877C142.211 323.314 135.685 322.489 129.545 321.96C126.894 321.705 123.441 322.712 120.883 322.564C114.382 322.192 107.831 322.58 101.376 322.403C95.7486 322.252 89.9918 321.707 84.3593 321.437C81.6485 321.306 78.6181 320.252 75.8633 320.145C64.3102 319.871 52.7935 319.569 41.2695 318.58C36.3762 318.158 28.1174 317.661 23.4281 316.163C15.7787 313.721 9.66017 306.302 6.02153 299.349C2.40059 292.43 1.39751 286.123 0.306147 278.457C-0.0537328 274.952 0.304322 271.194 0.108237 267.715C-0.253987 261.275 0.405353 254.84 0.449622 248.492L0.403275 211.519C0.386869 207.348 0.0202132 202.72 0.130886 198.614C0.275931 193.234 0.642851 187.533 1.03789 182.162C1.36235 177.75 2.22298 172.929 2.39328 168.544C2.65421 161.833 2.86281 155.302 3.54898 148.616C3.86563 145.531 3.85755 141.669 4.74475 138.761C10.1367 133.007 25.3967 136.959 32.2943 135.732C32.6876 131.744 33.6651 127.54 34.174 123.482C34.7898 118.568 34.9502 112.937 35.8148 108.125C38.0584 94.9999 38.6907 83.7947 43.5413 71.1898C51.6774 50.0474 69.0284 33.3661 93.231 38.1126C96.1103 38.6774 100.127 40.5554 102.943 41.708ZM83.7463 141.553C83.4604 136.805 84.3137 135.135 84.5403 130.885C84.8783 124.538 85.5657 118.969 86.4402 112.693C86.8678 109.649 86.8071 106.391 87.4524 103.386C90.8475 87.5672 94.0682 71.6127 98.4897 56.0503C99.4196 52.7773 100.2 49.6897 101.364 46.5296C98.6912 46.0953 95.6583 45.1128 93.305 44.8073C86.1423 44.0894 78.226 47.852 72.5765 51.875C63.1862 58.5619 57.7063 68.9602 53.9814 79.5654C51.9458 84.5902 51.306 89.6395 50.735 94.994C50.4803 97.3847 49.4574 100.872 49.4894 103.261C49.6183 112.838 47.7283 122.303 48.1114 131.816C48.1757 133.415 48.9764 134.888 49.6748 136.263C52.82 137.032 55.9272 138.081 59.0895 138.74C62.1139 139.371 82.1945 142.667 83.6708 141.64C83.7023 141.618 83.721 141.582 83.7463 141.553ZM138.076 139.107C140.349 139.003 148.51 139.168 149.013 136.827C149.979 132.321 147.021 119.387 145.213 115.434C142.01 122.896 140.854 131.139 138.076 139.107Z" fill="#1C1C1C"/>
<path d="M102.943 41.708C104.682 37.674 106.013 33.5031 107.658 29.4382C112.266 18.0574 119.059 6.0267 131.036 1.30841C135.106 -0.294647 139.13 -0.556352 143.161 1.26492C148.087 3.49165 150.889 7.64017 152.733 12.5756C160.514 33.4021 152.447 76.0726 148.796 98.2441C148.142 102.202 146.71 106.16 146.288 110.127C145.582 112.471 145.689 113.43 145.213 115.434C142.01 122.896 140.853 131.139 138.075 139.107C136.286 139.145 134.544 139.598 132.724 139.823L118.307 141.636C113.81 142.187 109.786 141.931 105.324 142.155C98.4893 142.499 90.872 142.745 84.0618 141.889L83.7454 141.553C83.4595 136.805 84.3129 135.135 84.5394 130.885C84.8774 124.538 85.5649 118.969 86.4393 112.693C86.8669 109.649 86.8063 106.391 87.4515 103.386C90.8467 87.5672 94.0674 71.6127 98.4888 56.0503C99.4187 52.7773 100.199 49.6897 101.363 46.5296C102.036 44.8482 102.436 43.4535 102.943 41.708Z" fill="#DFB78C"/>
<path d="M131.035 71.8027C134.119 71.6472 134.322 72.2662 136.228 74.5916C132.837 84.0803 118.181 92.4627 109.253 96.479C108.731 96.7136 106.543 97.0167 105.858 97.1211C103.859 97.4649 102.974 96.68 100.969 95.8941C103.425 88.3421 118.764 77.3027 125.833 73.1547C127.098 72.4118 129.562 71.9897 131.035 71.8027Z" fill="#1C1C1C"/>
<path d="M128.788 107.514C134.158 107.405 127.723 115.039 126.468 116.317C120.352 122.536 106.689 132.455 97.9551 132.598C92.0491 131.357 97.1973 126.638 99.4623 124.43C104.299 119.717 110.272 115.683 115.828 111.897C118.145 110.319 126.179 107.478 128.788 107.514Z" fill="#1C1C1C"/>
<path d="M140.304 38.6405C141.71 38.4866 142.304 38.1775 143.226 39.2792C143.53 40.6797 143.278 41.8875 142.538 43.1246C141.051 45.6126 138.043 48.3242 135.807 50.085C133.007 52.2888 129.666 53.9627 126.606 55.7624C121.879 58.5451 117.977 61.5775 112.632 63.1717C106.187 60.997 111.148 56.8175 114.413 54.2718C121.974 48.3773 131.184 41.7528 140.304 38.6405Z" fill="#1C1C1C"/>
<path d="M15.7377 138.262C21.5578 138.324 26.293 139.677 32.0092 140.342C37.3787 140.966 42.7613 141.529 48.135 142.098C50.181 142.315 54.234 142.301 55.9867 142.629C58.2465 143.051 60.6358 144.254 63.3911 144.704C69.3784 145.682 75.3648 146.585 81.3838 147.35C83.6322 147.705 86.3607 147.475 88.5322 147.815C95.6077 148.925 102.472 149.792 109.654 149.407C111.874 149.288 114.402 149.707 116.683 149.51C122.45 149.01 128.186 148.087 133.912 147.249C136.454 146.862 139.782 146.756 142.066 146.349C147.479 145.382 151.948 144.039 157.586 144.023C164.065 144.004 168.57 145.249 174.65 146.536C174.062 159.35 174.887 172.598 175.049 185.454C175.111 190.34 175.843 195.374 175.947 200.4C176.194 212.214 174.996 223.74 174.621 235.523C174.181 240.127 173.335 244.702 172.622 249.278C171.887 254.004 171.754 259.157 170.827 263.801C168.635 274.803 165.492 285.511 161.325 295.919C159.195 300.669 153.695 306.775 148.469 308.046C141.363 309.778 133.113 309.437 125.788 309.668C120.118 309.845 114.544 310.34 108.887 310.533C104.847 310.559 100.889 310.028 96.8464 310.21C90.9464 310.601 85.2394 309.822 79.3602 309.78C70.1598 309.715 60.9967 309.991 51.7541 309.7C42.4748 309.408 26.1969 311.137 18.8636 304.395C14.1107 300.023 11.3582 286.794 10.5937 280.417C10.0169 274.904 10.7567 269.048 10.6434 263.579C10.3859 251.137 10.7814 238.708 11.9441 226.318C12.2504 223.055 12.0348 219.573 12.2741 216.282C13.0316 205.866 12.7423 195.457 13.1844 185.036C13.4612 177.946 14.7107 171.052 15.294 164.023C15.9986 155.529 15.7937 146.789 15.7377 138.262Z" fill="#F6F4F2"/>
<path d="M89.9614 249.891C89.4765 249.456 86.927 244.241 86.5252 243.202C85.1188 239.602 83.2413 232.5 82.8395 228.654C82.6316 226.675 83.366 221.278 82.694 219.593C82.5069 219.13 80.5186 218.148 79.7842 216.379C78.0869 212.295 77.2694 202.034 80.962 199.129C85.4513 195.584 95.9611 197.185 101.025 199.072C107.739 201.578 108.986 204.146 105.951 210.758C104.198 214.575 99.5428 218.211 98.7946 222.443C98.2057 225.797 98.6422 238.065 99.0232 241.89C99.0925 242.62 100.111 243.469 100.208 244.831C100.381 247.301 98.2196 251.954 95.6147 252.228C94.8734 252.305 90.4325 250.319 89.9614 249.898V249.891Z" fill="#E65303"/>
</svg>
